<svg height="200px" width="200px" version="1.1" id="Layer_1" xmlns="http://www.w3.org/2000/svg" xmlns:xlink="http://www.w3.org/1999/xlink" viewBox="0 0 512 512" xml:space="preserve" fill="#000000"><g id="SVGRepo_bgCarrier" stroke-width="0"></g><g id="SVGRepo_tracerCarrier" stroke-linecap="round" stroke-linejoin="round"></g><g id="SVGRepo_iconCarrier"> <circle style="fill:#7AB9E8;" cx="256" cy="256" r="256"></circle> <path style="fill:#579ADF;" d="M256,0v512c141.385,0,256-114.615,256-256S397.385,0,256,0z"></path> <path style="fill:#F2F2F4;" d="M256,393.143c-75.621,0-137.143-61.522-137.143-137.143S180.379,118.857,256,118.857 S393.143,180.379,393.143,256S331.621,393.143,256,393.143z M256,173.714c-45.372,0-82.286,36.913-82.286,82.286 s36.913,82.286,82.286,82.286s82.286-36.913,82.286-82.286S301.374,173.714,256,173.714z"></path> <path style="fill:#DFDFE1;" d="M256,118.857v54.857c45.374,0,82.286,36.913,82.286,82.286S301.374,338.286,256,338.286v54.857 c75.621,0,137.143-61.522,137.143-137.143S331.621,118.857,256,118.857z"></path> </g></svg>