<?xml version="1.0" encoding="UTF-8" standalone="no"?>
<!-- Created with Inkscape (http://www.inkscape.org/) -->

<svg
   xmlns:dc="http://purl.org/dc/elements/1.1/"
   xmlns:cc="http://creativecommons.org/ns#"
   xmlns:rdf="http://www.w3.org/1999/02/22-rdf-syntax-ns#"
   xmlns:svg="http://www.w3.org/2000/svg"
   xmlns="http://www.w3.org/2000/svg"
   xmlns:sodipodi="http://sodipodi.sourceforge.net/DTD/sodipodi-0.dtd"
   xmlns:inkscape="http://www.inkscape.org/namespaces/inkscape"
   width="106.75447mm"
   height="57.119869mm"
   viewBox="0 0 106.75447 57.119869"
   version="1.1"
   id="svg6341"
   inkscape:version="0.92.2 2405546, 2018-03-11"
   sodipodi:docname="sleepingwoman-0028079msgqhx.svg">
  <defs
     id="defs6335">
    <linearGradient
       gradientTransform="matrix(0.072,0,0,0.072,-304.76599,454.57447)"
       y2="2313.97"
       x2="3215.49"
       y1="1485.89"
       x1="3215.49"
       gradientUnits="userSpaceOnUse"
       id="Gradient_1">
      <stop
         id="stop7168"
         stop-color="#FEFEFE"
         offset="0" />
      <stop
         id="stop7170"
         stop-color="#B3CAE9"
         offset="1" />
    </linearGradient>
    <radialGradient
       gradientTransform="matrix(0.072,0,0,0.072,-304.76599,454.57447)"
       r="45.050999"
       cy="1948.87"
       cx="4128.6499"
       gradientUnits="userSpaceOnUse"
       id="Gradient_2">
      <stop
         id="stop7173"
         stop-opacity="0.8"
         stop-color="#F9B6AD"
         offset="0" />
      <stop
         id="stop7175"
         stop-opacity="0.8"
         stop-color="#FBCABE"
         offset="0.42" />
      <stop
         id="stop7177"
         stop-opacity="0.8"
         stop-color="#FDDDCF"
         offset="0.988" />
      <stop
         id="stop7179"
         stop-opacity="0.8"
         stop-color="#FDDDCF"
         offset="1" />
    </radialGradient>
    <radialGradient
       gradientTransform="matrix(0.072,0,0,0.072,-304.76599,454.57447)"
       r="45.050999"
       cy="1452.92"
       cx="4128.2798"
       gradientUnits="userSpaceOnUse"
       id="Gradient_3">
      <stop
         id="stop7182"
         stop-opacity="0.8"
         stop-color="#F9B6AD"
         offset="0" />
      <stop
         id="stop7184"
         stop-opacity="0.8"
         stop-color="#FBCABE"
         offset="0.42" />
      <stop
         id="stop7186"
         stop-opacity="0.8"
         stop-color="#FDDDCF"
         offset="0.988" />
      <stop
         id="stop7188"
         stop-opacity="0.8"
         stop-color="#FDDDCF"
         offset="1" />
    </radialGradient>
  </defs>
  <sodipodi:namedview
     id="base"
     pagecolor="#ff0000"
     bordercolor="#666666"
     borderopacity="1.0"
     inkscape:pageopacity="0"
     inkscape:pageshadow="2"
     inkscape:zoom="2.8"
     inkscape:cx="167.42259"
     inkscape:cy="110.51157"
     inkscape:document-units="mm"
     inkscape:current-layer="layer5"
     showgrid="false"
     inkscape:pagecheckerboard="true"
     inkscape:window-width="1906"
     inkscape:window-height="1007"
     inkscape:window-x="0"
     inkscape:window-y="23"
     inkscape:window-maximized="0"
     fit-margin-top="0"
     fit-margin-left="0"
     fit-margin-right="0"
     fit-margin-bottom="0" />
  <metadata
     id="metadata6338">
    <rdf:RDF>
      <cc:Work
         rdf:about="">
        <dc:format>image/svg+xml</dc:format>
        <dc:type
           rdf:resource="http://purl.org/dc/dcmitype/StillImage" />
        <dc:title></dc:title>
      </cc:Work>
    </rdf:RDF>
  </metadata>
  <g
     inkscape:groupmode="layer"
     id="layer5"
     inkscape:label="Layer 3"
     style="display:inline"
     transform="translate(-38.804478,-111.2014)">
    <path
       inkscape:connector-curvature="0"
       style="fill:#000000;stroke-width:0.26458332"
       d="m 92.508049,111.20355 c -1.255403,-0.005 -2.510134,-0.001 -3.763079,0.009 -10.062334,0.10911 -20.336195,0.72441 -29.873112,4.19458 -3.38315,1.33049 -6.819836,3.52105 -8.165909,7.06313 -0.70176,2.1403 0.406484,4.27209 1.068668,6.24975 0.404283,1.33358 0.32599,2.84352 -0.706933,3.88245 -0.44923,0.70079 -1.327552,0.84551 -1.783355,1.54926 -0.571648,0.7461 -0.912706,0.74824 -1.952852,2.01383 -1.040146,1.26559 -3.860449,3.25079 -5.499921,5.20589 -1.639472,1.9551 -3.569292,5.04406 -2.885612,8.02173 0.50822,2.70966 2.330937,5.05062 4.291211,6.81302 0.519843,0.75131 1.439265,1.11686 2.124935,1.70325 4.752089,3.12907 10.370847,4.49887 15.800068,5.94848 14.445038,3.63064 29.438671,5.0333 44.311502,4.25555 0.81569,0.0152 2.04883,-0.13043 3.02463,-0.18655 9.07238,-0.66482 18.35446,-1.91975 26.55496,-6.1004 2.87028,-1.38648 5.91675,-3.01277 7.57577,-5.85856 0.8775,-1.65247 0.77973,-3.67977 -0.0336,-5.33404 -0.0369,-0.20211 -0.14277,-0.42615 -0.29249,-0.56689 -0.85437,-1.79064 -1.74549,-3.89252 -0.71061,-5.83187 0.9761,-1.75027 2.44947,-3.2426 3.09031,-5.04551 0.64084,-1.80291 1.08727,-3.53769 0.77357,-6.91509 -0.3137,-3.37741 -3.57214,-7.90471 -7.77211,-10.76341 -5.65726,-3.96445 -12.30121,-6.26895 -18.97454,-7.85069 -8.58613,-1.95393 -17.41368,-2.4227 -26.201501,-2.45669 z"
       id="path7850"
       sodipodi:nodetypes="ccccccczzccccccccccczzcccc" />
  </g>
  <g
     inkscape:label="Layer 1"
     inkscape:groupmode="layer"
     id="layer1"
     style="display:inline"
     transform="translate(-38.804478,-111.2014)">
    <g
       id="ƒŒƒCƒ_x201e__x0081__x005b__x0020_1"
       transform="matrix(0.26458333,0,0,0.26458333,36.720413,103.42447)">
      <g
         id="g7389">
        <!-- DELETED -->
        <path
           id="path7195"
           d="m 257.452,89.135 c -1.224,-0.72 -1.943,-1.944 -2.591,-3.096 -1.152,-2.088 -2.232,-4.176 -3.384,-6.264 -0.288,-0.576 -0.576,-1.224 -1.44,-1.152 -0.288,0 -0.504,-0.288 -0.792,-0.432 -2.448,-1.944 -4.896,-3.888 -7.343,-5.976 -2.808,-2.376 -5.4,-4.896 -7.704,-7.776 -1.296,-1.584 -2.664,-3.024 -4.176,-4.32 -1.871,-1.656 -4.319,-2.52 -6.695,-3.096 -4.104,-0.936 -8.423,-1.44 -12.599,-0.936 -4.464,0.576 -8.783,1.728 -12.959,3.528 -4.032,1.8 -7.775,4.032 -11.663,6.12 -2.808,1.512 -5.256,3.6 -7.992,5.256 -2.519,1.584 -5.039,3.024 -7.559,4.536 -0.072,0.072 -0.216,0.072 -0.288,0.144 -2.448,1.728 -5.256,2.376 -8.207,2.808 -2.304,0.288 -4.536,1.08 -6.696,1.8 -4.751,1.584 -9.503,3.456 -14.471,4.392 -1.8,0.36 -3.599,0.36 -5.399,0.576 -1.728,0.216 -3.456,0.36 -5.256,0.576 -0.864,0.072 -1.728,0.216 -2.592,0.216 -2.232,0.072 -4.391,0.504 -6.479,1.224 -0.792,0.288 -1.584,0.504 -2.376,0.72 -0.504,0.144 -1.08,0.216 -1.44,0.504 -1.152,1.152 -2.232,0.504 -3.096,-0.216 -1.296,-1.152 -2.807,-1.944 -4.247,-2.808 -2.736,-1.656 -5.4,-3.456 -8.136,-5.04 -1.296,-0.792 -2.808,-1.224 -4.247,-1.728 -0.792,-0.288 -1.656,-0.432 -2.736,-0.72 1.08,2.664 1.08,5.184 1.224,7.704 0.072,1.224 -0.288,2.16 -0.936,3.168 -1.512,2.376 -3.888,3.528 -6.264,4.608 -4.823,2.16 -9.863,4.032 -14.975,5.471 -2.447,0.648 -4.895,1.152 -7.343,1.728 -2.16,0.504 -4.32,1.008 -6.48,1.656 -0.504,0.144 -0.936,0.288 -1.439,0.504 1.007,-8.135 -5.616,-16.271 -5.688,-24.767 -0.072,-5.688 2.808,-11.088 6.551,-15.48 9.36,-11.016 23.543,-16.704 37.51,-20.664 34.629,-9.791 70.986,-11.447 106.983,-11.519 53.708,-0.144 109.144,3.527 157.38,27.215 16.271,7.992 31.894,18.576 41.325,34.056 4.032,6.623 6.624,14.183 7.488,21.887 -2.52,-2.232 -5.112,-4.32 -7.632,-6.48 -2.807,-2.304 -5.687,-4.608 -8.495,-6.984 -4.464,-3.671 -8.999,-7.127 -13.823,-10.223 -5.904,-3.744 -11.735,-7.704 -17.207,-12.168 -1.224,-1.008 -2.159,-2.232 -3.311,-3.312 -1.224,-1.152 -2.448,-2.232 -3.744,-3.24 -0.936,-0.792 -1.584,-1.584 -1.224,-2.88 0.288,-0.936 -0.432,-1.44 -1.152,-1.8 -2.016,-1.08 -4.176,-1.872 -6.479,-2.088 -2.808,-0.288 -5.544,-0.504 -8.352,-0.648 -1.224,-0.072 -2.088,-0.504 -2.88,-1.44 -1.008,-1.296 -2.231,-2.376 -3.311,-3.6 -0.288,-0.288 -0.432,-0.792 -0.576,-1.224 -0.288,-0.936 -0.504,-1.872 -0.72,-2.808 -0.072,-0.216 -0.36,-0.432 -0.648,-0.792 -1.08,2.952 -2.088,5.688 -3.096,8.496 -1.8,0.36 -3.6,0.648 -5.328,1.08 -1.079,0.288 -2.087,0.648 -3.023,1.08 -1.224,0.504 -2.304,1.152 -3.528,1.512 -1.08,0.288 -2.232,0.504 -3.312,0.432 -0.936,-0.072 -1.584,0.144 -2.232,0.72 -0.504,0.504 -1.008,1.008 -1.656,1.44 -0.575,0.36 -1.223,0.504 -1.799,0.648 -1.584,0.504 -3.24,0.792 -4.752,1.44 -5.544,2.232 -11.015,4.464 -16.487,6.768 -3.384,1.44 -6.695,2.952 -9.935,4.68 -4.464,2.376 -9.215,3.816 -13.967,5.544 -1.296,0.432 -2.592,0.936 -3.888,1.368 z m 5.256,154.077 0.288,-0.144 c 2.088,-1.296 4.104,-2.592 6.047,-4.032 1.08,-0.864 1.944,-2.16 2.88,-3.24 0.432,-0.432 0.36,-0.792 0,-1.224 -0.576,-0.792 -0.432,-1.656 -0.072,-2.52 0.792,-2.088 2.304,-3.671 3.744,-5.255 2.592,-2.736 5.112,-5.544 8.279,-7.632 0.864,-0.576 0.144,-1.152 -0.072,-1.944 0.792,-0.504 1.584,-1.008 2.448,-1.44 2.52,-1.296 2.736,-2.448 1.08,-4.752 -0.648,-0.936 -1.296,-1.872 -1.944,-2.808 -0.576,-0.792 -0.576,-1.584 -0.216,-2.52 0.576,-1.44 1.656,-2.664 3.24,-3.6 0.792,0.576 1.656,1.224 2.448,1.8 0.072,0.072 0.216,0.144 0.288,0.144 1.872,0 2.736,1.584 4.032,2.52 0.935,0.648 1.799,1.296 2.807,2.016 0.576,-0.576 1.008,-1.08 1.512,-1.512 1.368,-1.368 2.448,-1.368 3.888,-0.144 0.216,0.216 0.432,0.432 0.576,0.648 2.088,-0.504 4.104,-1.08 6.191,-1.44 5.76,-1.08 11.375,-2.52 16.847,-4.464 3.456,-1.224 6.984,-2.16 10.439,-3.312 2.952,-0.936 5.832,-2.088 8.712,-3.096 2.519,-0.864 5.039,-1.584 7.487,-2.448 1.008,-0.288 1.944,-0.72 2.88,-1.008 3.096,-1.08 6.119,-2.16 9.215,-3.24 5.184,-1.8 10.295,-3.672 15.407,-5.472 3.456,-1.224 6.839,-2.592 10.295,-3.816 2.304,-0.864 4.608,-1.728 6.912,-2.52 1.656,3.744 3.167,7.56 3.311,11.52 0.504,11.808 -10.439,20.664 -20.734,26.496 -13.895,7.848 -28.726,13.896 -44.061,18.143 -14.327,3.888 -29.013,6.192 -43.7,7.848 -10.224,1.152 -20.447,2.016 -30.67,2.664 z"
           inkscape:connector-curvature="0"
           style="fill:url(#Gradient_1)" />
        <path
           id="path7197"
           d="m 75.594,121.174 c -1.296,2.232 -2.736,4.392 -4.823,5.976 -1.08,0.792 -1.944,1.872 -2.88,2.808 -0.216,0.216 -0.432,0.504 -0.648,0.648 -3.456,2.952 -5.976,6.696 -8.855,10.08 -1.872,2.232 -3.744,4.392 -5.616,6.624 -0.36,0.432 -0.648,0.936 -0.936,1.44 -2.52,5.04 -5.184,10.008 -7.199,15.264 -1.152,3.095 -2.304,6.191 -2.592,9.503 -0.072,1.08 -0.144,2.16 0,3.24 0.072,0.432 0.432,0.936 0.864,1.152 0.576,0.288 1.008,-0.144 1.224,-0.648 0.864,-1.728 1.943,-3.312 2.519,-5.256 0.576,-2.016 1.512,-3.96 2.376,-5.832 0.936,-2.015 1.944,-3.959 3.024,-5.903 0.576,-1.08 1.44,-2.016 2.376,-2.88 -0.144,0.36 -0.216,0.72 -0.36,1.008 -2.16,5.112 -4.32,10.151 -6.552,15.191 -0.432,1.08 -0.72,2.088 -0.576,3.24 0.216,1.872 0.144,3.816 0.216,5.688 0,0.792 0,1.656 0.144,2.448 0.216,1.728 1.296,2.376 2.952,1.656 0.144,-0.072 0.288,-0.144 0.648,-0.288 0.288,0.36 0.504,0.792 0.864,1.152 1.296,1.224 2.16,0.36 2.592,-0.648 0.936,-2.16 1.8,-4.392 2.808,-6.552 1.152,-2.448 2.375,-4.824 3.671,-7.2 0.864,-1.584 1.8,-3.096 2.664,-4.68 1.44,-2.736 3.168,-5.327 4.752,-7.919 1.224,-1.944 2.52,-3.888 3.816,-5.832 0.215,-0.288 0.431,-0.504 0.863,-0.648 -0.432,1.224 -0.791,2.448 -1.223,3.6 -1.008,2.592 -2.016,5.184 -3.096,7.775 -0.576,1.368 -0.936,2.736 -1.08,4.176 -0.36,2.592 -0.936,5.184 -1.368,7.776 -0.432,2.304 -0.792,4.68 -1.08,6.984 -0.072,0.72 0,1.584 0.144,2.304 0.072,0.432 0.432,0.936 0.792,1.224 1.08,0.864 1.872,0.72 2.52,-0.504 0.432,-0.792 0.864,-1.656 1.224,-2.52 1.224,-3.312 2.519,-6.624 3.599,-10.008 1.728,-5.184 4.032,-10.152 6.48,-15.047 1.152,-2.376 2.448,-4.752 4.32,-6.912 0.36,2.016 0.144,3.888 -0.432,5.688 -0.792,2.52 -1.008,5.183 -0.936,7.775 0,1.584 0.288,3.168 0.576,4.752 0.288,1.512 2.159,2.592 3.455,2.016 0.504,-0.216 0.864,-0.936 1.08,-1.584 0.216,-0.648 0.144,-1.296 0.144,-2.016 -0.144,-4.032 0.576,-7.919 2.592,-11.447 1.368,-2.52 2.592,-5.04 3.96,-7.56 1.584,-2.88 1.512,-5.832 0.792,-8.856 -0.432,-1.656 -0.792,-3.312 -1.152,-4.968 -0.144,-0.576 -0.072,-1.224 0.072,-1.872 0.432,-2.304 0.648,-4.68 1.44,-6.912 0.144,-0.36 0.072,-0.792 0.144,-1.224 1.8,-0.936 3.311,-2.376 5.687,-3.168 -1.008,1.584 -1.872,2.88 -2.664,4.104 -0.504,0.792 -1.079,1.656 -1.583,2.52 -0.216,0.36 -0.288,0.792 -0.432,1.224 0.72,0.36 0.936,0 1.08,-0.432 0.935,-2.664 2.807,-4.824 4.247,-7.2 0.288,-0.432 0.504,-0.864 0.792,-1.296 0.144,-0.216 0.216,-0.504 0.36,-0.648 2.736,-2.448 4.392,-5.76 6.984,-8.424 3.383,-3.384 7.199,-6.192 11.375,-8.496 0.288,-0.144 0.576,-0.288 0.864,-0.36 2.879,-0.504 5.687,-1.512 8.639,-1.656 3.384,-0.144 6.767,-0.648 10.151,-0.792 2.808,-0.144 5.688,0.072 8.496,0.144 2.015,0.072 4.031,0.072 6.047,0.072 0.792,0 1.368,0.144 1.872,0.792 0.864,1.008 1.872,1.944 2.736,2.952 0.72,0.792 1.368,1.656 2.016,2.592 1.655,2.52 3.311,4.968 4.895,7.488 2.016,3.168 3.168,6.624 3.744,10.224 0.288,1.656 0.504,3.384 0.648,5.04 0.144,1.512 -0.36,2.808 -1.152,4.032 -2.448,3.672 -5.328,6.912 -8.279,10.008 -3.672,3.816 -7.488,7.416 -11.016,11.376 -4.103,4.608 -7.847,9.431 -10.511,15.119 -0.288,0.648 -0.576,1.296 -0.792,2.016 -0.504,1.584 -1.512,2.52 -3.167,2.952 -2.16,0.504 -4.248,1.368 -6.408,1.872 -4.752,1.08 -9.503,2.016 -14.255,2.88 -4.751,0.864 -9.575,1.584 -14.327,2.304 -5.111,0.792 -10.223,1.656 -15.335,2.304 -3.095,0.432 -6.191,0.576 -9.215,0.72 -1.296,0.072 -2.664,-0.216 -4.176,-0.36 -1.439,1.152 -3.455,1.584 -5.543,1.872 -3.528,0.576 -7.128,1.08 -10.727,1.512 -7.488,1.008 -14.831,2.664 -22.031,4.896 -3.455,1.08 -6.839,2.16 -10.295,3.24 -1.152,-1.08 -2.304,-2.16 -3.384,-3.312 -8.063,-8.28 -13.967,-19.728 -12.023,-31.176 0.36,-2.015 0.864,-3.887 1.656,-5.759 1.728,-0.936 3.384,-1.872 5.112,-2.736 1.224,-0.648 2.376,-1.368 3.6,-2.088 v 0 c -0.072,-0.144 -0.144,-0.216 -0.216,-0.36 -0.288,0.144 -0.576,0.216 -0.792,0.36 -2.448,1.368 -4.896,2.664 -7.344,3.96 2.736,-6.336 7.632,-11.808 12.671,-16.848 1.152,-0.504 2.304,-1.008 3.384,-1.656 4.032,-2.304 7.703,-4.968 11.015,-8.208 1.872,-1.872 2.952,-3.96 2.664,-6.48 l 10.295,-9.864 0.072,-0.072 c 0.792,-0.072 1.512,-0.144 2.304,-0.288 3.672,-0.936 7.271,-2.016 10.871,-3.096 2.664,-0.792 5.4,-0.936 8.135,-0.792 1.08,0.072 2.088,0.288 2.088,1.44 -0.936,2.592 -1.8,4.968 -2.663,7.416 -3.456,0.648 -6.984,1.368 -10.512,2.016 -7.127,1.296 -13.751,4.032 -19.87,7.848 -0.288,0.144 -0.504,0.288 -1.008,0.648 0.648,0.216 0.936,0.432 1.08,0.36 0.504,-0.216 1.008,-0.504 1.44,-0.864 3.527,-2.448 7.415,-4.248 11.519,-5.544 4.895,-1.584 9.863,-2.664 14.903,-3.24 1.008,-0.144 1.872,-0.072 2.879,0.36 0.936,0.432 1.944,1.08 3.096,0.648 z m -50.18,77.903 c 1.008,-0.36 1.944,-0.648 2.952,-1.008 5.111,-1.728 10.223,-3.168 15.407,-4.536 7.055,-1.728 14.183,-2.52 21.382,-3.528 2.808,-0.36 5.76,-0.72 8.351,-2.16 0.216,-0.144 0.576,-0.144 0.864,-0.144 3.384,0.504 6.696,0.216 10.008,-0.216 3.671,-0.432 7.343,-1.008 11.015,-1.512 2.664,-0.36 5.327,-0.792 7.919,-1.224 4.68,-0.792 9.359,-1.512 14.039,-2.376 3.96,-0.72 7.919,-1.512 11.807,-2.376 2.448,-0.504 4.824,-1.152 7.2,-1.8 0.216,-0.072 0.504,-0.072 0.936,-0.144 -0.432,0.648 -0.72,1.08 -1.008,1.584 0.792,1.728 2.879,2.16 3.743,3.816 -2.303,1.512 -4.607,3.024 -6.911,4.464 -4.896,3.024 -9.935,5.976 -14.831,9.072 -6.48,4.032 -13.031,8.064 -19.439,12.24 -7.055,4.68 -14.11,9.36 -21.094,14.184 -0.72,-0.216 -1.512,-0.432 -2.232,-0.648 -16.271,-4.608 -32.829,-10.296 -46.076,-20.376 2.016,-0.864 4.031,-1.728 6.047,-2.664 4.968,-2.232 10.08,-4.104 15.191,-5.76 1.512,-0.504 3.024,-1.368 4.752,-0.864 v 0 c -1.224,-0.576 -2.448,-0.576 -3.672,-0.144 -4.464,1.584 -8.999,3.096 -13.391,4.896 -3.24,1.296 -6.407,2.664 -9.575,4.104 -1.152,-0.936 -2.304,-1.872 -3.456,-2.808 z m 53.276,24.552 0.36,-0.288 c 5.04,-3.456 10.151,-6.912 15.263,-10.296 5.543,-3.6 11.087,-7.128 16.703,-10.656 6.119,-3.816 12.311,-7.56 18.502,-11.376 3.312,-2.088 6.696,-4.104 10.007,-6.192 1.44,-0.864 1.512,-1.584 0.288,-2.736 -0.792,-0.792 -1.872,-1.296 -2.303,-2.664 0.935,-1.224 1.943,-2.448 2.879,-3.744 0.504,-0.72 0.576,-1.728 1.008,-2.592 1.08,-2.016 2.088,-4.032 3.312,-5.904 4.248,-6.335 9.287,-12.023 14.687,-17.351 3.888,-3.816 7.775,-7.704 11.015,-12.168 0.792,-1.152 1.584,-2.304 2.448,-3.528 1.656,0.72 3.168,1.44 4.679,2.16 0.288,0.144 0.504,0.36 0.792,0.432 5.184,1.944 9.504,5.4 13.751,8.784 1.152,0.864 2.304,1.8 3.456,2.592 1.728,1.152 3.168,2.592 4.536,4.176 1.512,1.872 3.096,3.528 5.255,4.68 1.728,0.936 2.952,2.376 3.816,4.104 0.864,1.872 2.088,3.455 4.392,3.815 0.288,0.072 0.576,0.144 0.864,0.288 3.239,1.584 6.839,1.8 10.295,2.664 3.168,0.72 6.263,-0.072 9.359,-0.072 0.504,0 1.152,-0.288 1.584,-0.576 1.8,-1.296 3.816,-1.944 5.904,-2.664 1.943,-0.647 3.815,-1.511 5.759,-2.231 0.792,-0.288 1.656,-0.576 2.52,-0.648 0.648,0 1.512,0.144 2.016,0.504 2.88,2.303 5.903,4.463 8.351,7.271 0.288,0.36 0.576,0.792 0.72,1.296 0.792,2.592 2.304,4.176 4.968,4.968 2.016,0.576 4.031,1.152 6.119,1.656 1.296,0.288 2.448,1.008 3.744,1.44 4.608,1.656 8.567,4.248 12.239,7.344 1.368,1.152 2.736,2.376 4.104,3.528 2.664,2.304 4.895,4.896 6.551,7.992 0.288,0.576 0.72,1.08 1.152,1.728 -0.576,0.288 -1.008,-0.144 -1.44,-0.288 -0.936,-0.36 -1.8,-0.864 -2.736,-1.008 -1.439,-0.216 -2.879,-0.144 -4.103,0.864 -1.656,1.368 -3.384,2.52 -5.112,3.816 -0.432,0.288 -0.72,0.72 -1.08,1.152 -1.584,2.304 -1.584,3.528 -0.072,5.76 0.432,0.648 0.936,1.224 1.368,1.872 0.216,0.288 0.432,0.576 0.576,0.936 0.576,1.152 0.36,1.8 -0.792,2.376 -0.72,0.36 -1.44,0.72 -2.16,1.152 -0.936,0.576 -1.656,1.224 -1.296,2.232 -3.311,3.384 -6.551,6.696 -9.647,10.008 -0.864,0.936 -1.512,2.231 -2.16,3.383 -0.576,1.008 -0.792,2.016 -0.36,3.096 0.288,0.648 -0.072,1.224 -0.432,1.728 -1.224,1.584 -2.735,2.88 -4.319,3.96 -1.584,1.08 -3.24,2.088 -4.896,3.024 -39.957,2.232 -80.202,0.144 -119.727,-6.048 1.584,-0.864 3.096,-1.656 4.68,-2.52 4.032,-2.16 7.991,-4.536 11.951,-6.839 0.216,-0.144 0.504,-0.36 0.648,-0.288 0.936,0.36 1.296,-0.36 1.728,-0.864 0.288,-0.432 0.72,-0.792 1.152,-1.08 1.008,-0.792 2.088,-1.44 3.167,-2.232 3.096,-2.232 6.192,-4.464 9.36,-6.624 2.016,-1.368 3.887,-3.168 6.191,-4.032 0.288,-0.072 0.504,-0.36 0.72,-0.576 1.008,-1.008 1.944,-2.016 2.952,-2.952 2.376,-2.16 4.824,-4.248 7.055,-6.48 2.808,-2.808 5.472,-5.76 8.064,-8.784 1.656,-1.944 3.096,-3.96 4.607,-6.048 0.288,-0.432 0.792,-0.864 0.288,-1.584 -0.144,0.144 -0.288,0.288 -0.432,0.432 -4.751,6.84 -10.079,13.104 -16.414,18.504 -2.016,1.728 -4.032,3.384 -5.616,5.544 -0.504,0.648 -1.08,1.08 -1.872,1.296 -1.296,0.36 -2.591,0.792 -3.527,1.8 -0.36,0.432 -0.648,0.936 -1.08,1.296 -1.224,1.008 -2.448,1.944 -3.672,2.88 -0.288,0.216 -0.576,0.288 -0.936,0.432 0.072,-2.376 0.144,-4.68 0.216,-6.912 0,-2.304 0.072,-4.608 -0.792,-6.84 -0.72,0.288 -0.504,0.648 -0.504,1.08 0.216,1.656 0.504,3.24 0.504,4.896 0.072,1.8 -0.144,3.6 -0.144,5.4 0,1.944 -0.36,3.6 -2.304,4.608 -1.872,1.008 -3.599,2.376 -5.327,3.528 0,-0.648 0.216,-1.152 0.432,-1.656 1.296,-2.952 2.807,-5.76 3.815,-8.784 0.936,-2.736 1.44,-5.616 2.088,-8.424 0.072,-0.432 0,-1.08 -0.864,-0.936 -0.144,3.024 -0.72,5.904 -1.728,8.64 -1.296,3.744 -3.023,7.272 -4.895,10.728 -0.648,1.224 -1.512,2.16 -2.736,2.88 -2.52,1.512 -5.04,3.023 -7.631,4.463 -3.456,1.944 -6.984,3.888 -10.512,5.832 -20.806,-3.312 -41.397,-7.848 -61.699,-13.463 z M 58.604,103.75 c 0.935,-0.432 1.943,-0.792 2.951,-1.008 3.312,-0.792 6.624,-1.512 9.936,-2.376 3.671,-0.936 7.271,-1.872 10.727,-3.383 2.088,-0.864 4.247,-1.584 6.335,-2.448 1.728,-0.72 3.384,-1.512 4.896,-2.592 2.592,-1.728 3.816,-4.176 3.384,-7.416 -0.216,-1.656 -0.36,-3.384 -0.504,-5.184 2.016,0.072 3.743,0.864 5.327,1.872 3.096,1.872 6.192,3.744 9.216,5.688 1.367,0.864 2.735,1.872 4.175,2.88 -0.288,0.288 -0.36,0.504 -0.576,0.648 -2.951,1.8 -5.975,3.528 -8.855,5.4 -3.528,2.231 -7.056,4.463 -10.511,6.911 -3.024,2.088 -5.976,4.32 -8.784,6.624 -2.663,2.16 -5.111,4.464 -7.703,6.696 -1.08,0.936 -1.224,2.376 -1.8,3.528 -0.288,0.648 -0.792,1.152 -1.152,1.728 -0.36,-1.08 -1.656,-0.72 -2.304,-1.584 0.072,-2.952 1.512,-5.472 2.808,-8.136 -0.072,-0.072 -0.072,-0.144 -0.144,-0.216 -0.072,-0.072 -0.216,-0.144 -0.216,-0.216 -0.504,-1.296 -1.512,-1.584 -2.736,-1.584 -2.735,-0.072 -5.471,-0.144 -8.135,0.648 -3.096,0.936 -6.263,1.8 -9.359,2.664 -1.008,0.288 -2.088,0.576 -3.168,0.72 2.448,-2.376 4.824,-4.896 5.832,-8.136 0.144,-0.504 0.288,-1.008 0.432,-1.584 z m 212.815,77.615 v 0 c -2.232,0.504 -4.391,0.576 -6.551,0.216 -1.512,-0.216 -3.096,-0.36 -4.608,-0.36 -4.176,-0.072 -8.207,0.72 -12.167,1.944 -2.376,0.792 -4.752,1.512 -6.983,2.448 -1.872,0.792 -3.672,1.656 -5.76,1.728 -0.432,0 -0.792,0.216 -1.368,0.36 0.792,0.936 1.512,0.072 2.376,0.432 -0.432,0.36 -0.792,0.648 -1.152,1.008 -1.152,1.008 -2.448,1.944 -3.456,3.096 -2.519,2.88 -5.471,5.256 -8.639,7.2 -5.544,3.456 -11.015,6.912 -16.991,9.504 -2.879,1.224 -5.687,2.592 -8.855,3.384 4.464,-7.344 7.775,-15.048 9.863,-23.256 -0.432,0.432 -0.72,0.936 -0.936,1.512 -1.512,3.888 -2.807,7.776 -4.463,11.52 -1.08,2.52 -2.016,5.04 -3.816,7.128 -0.144,0 -0.288,0 -0.36,0 -3.96,-0.144 -7.919,-0.072 -11.879,0.936 -1.152,0.288 -1.152,0.288 -1.728,1.296 4.392,-1.584 8.783,-1.728 13.391,-1.512 -0.072,0.36 0,0.576 -0.072,0.72 -0.504,0.792 -1.08,1.512 -1.656,2.232 -0.648,0.72 -0.792,1.08 -0.648,2.376 0.216,-0.144 0.36,-0.36 0.432,-0.576 0.504,-1.008 1.44,-1.44 2.448,-1.728 0.36,-0.144 0.792,-0.288 1.152,-0.432 4.823,-1.656 9.431,-3.672 13.823,-6.192 3.312,-1.872 6.623,-3.888 9.863,-5.904 3.456,-2.088 6.696,-4.464 9.359,-7.56 1.8,-2.088 3.96,-3.744 6.336,-5.112 0.72,-0.432 1.512,-0.72 2.304,-0.864 5.399,-1.008 10.799,-1.512 16.27,-1.296 4.176,0.144 8.352,0.648 12.383,1.8 2.952,0.864 5.904,1.872 8.856,2.88 0.864,0.288 1.728,0.792 2.592,1.224 -0.576,0.432 -1.08,0.648 -1.512,0.648 -1.944,0.216 -3.888,0.36 -5.832,0.504 -0.504,0.072 -1.152,-0.144 -1.512,0.504 0.864,0.864 0.936,0.936 1.944,1.152 1.8,0.36 3.672,0.576 5.472,0.936 0.864,0.144 1.8,0.216 2.52,0.792 -0.144,0.36 -0.288,0.648 -0.36,0.936 0.072,0.072 0.216,0.144 0.288,0.144 0.287,-0.36 0.719,-0.72 0.863,-1.08 0.144,-0.648 -0.576,-0.792 -1.007,-1.008 -0.36,-0.144 -0.648,-0.288 -1.008,-0.288 -1.44,-0.216 -2.952,-0.504 -4.464,-0.72 -0.72,-0.144 -1.368,-0.288 -2.088,-0.36 1.44,-0.36 2.808,-0.36 4.176,-0.576 1.368,-0.216 2.88,-0.072 4.031,-1.224 -0.431,-0.864 -1.295,-1.152 -2.015,-1.512 -12.239,-5.328 -24.91,-6.768 -38.013,-4.536 0.216,-0.216 0.504,-0.432 0.791,-0.504 3.168,-0.936 6.264,-2.016 9.504,-2.808 3.24,-0.792 6.479,-1.008 9.863,-0.72 2.592,0.216 5.256,0.288 7.847,0.36 0.792,0 1.872,0.144 2.088,-0.792 0.216,-1.008 -0.792,-1.512 -1.512,-1.944 -1.584,-1.008 -3.167,-1.944 -4.823,-2.808 -1.296,-0.648 -2.664,-1.08 -4.032,-1.584 -0.36,-0.144 -0.936,-0.36 -1.224,0.504 1.008,0.36 2.016,0.72 3.024,1.08 0.288,0.072 0.576,0.144 0.792,0.36 1.296,0.936 2.52,1.944 3.744,2.808 1.295,-0.432 1.871,-0.216 3.095,1.296 z M 159.468,144.502 v 0 c -0.504,-0.216 -0.864,-0.432 -1.224,-0.504 -3.096,-0.72 -6.192,-1.512 -9.359,-2.088 -2.88,-0.576 -5.832,-0.936 -8.784,-0.648 -3.671,0.36 -7.343,1.152 -10.871,2.232 -0.36,0.144 -0.792,0.216 -1.368,0.36 1.44,-1.656 2.808,-3.096 3.96,-4.68 1.152,-1.584 2.304,-3.168 3.24,-4.896 1.152,-2.016 1.008,-4.176 -0.144,-6.192 -0.216,-0.36 -0.432,-0.72 -1.008,-0.36 0.144,0.288 0.216,0.576 0.36,0.864 1.08,1.8 0.936,3.672 0.072,5.472 -0.36,0.72 -0.72,1.512 -1.224,2.16 -1.728,2.16 -3.528,4.32 -5.328,6.48 -1.08,1.296 -2.376,2.304 -4.031,2.664 -0.576,0.144 -1.224,0.36 -1.728,0.648 -1.224,0.576 -2.376,1.224 -3.528,1.872 -0.36,0.216 -0.648,0.576 -0.072,1.08 2.376,-1.08 4.824,-2.088 7.199,-3.168 0.864,-0.36 1.656,-0.864 2.52,-1.152 2.592,-0.72 5.256,-1.512 7.92,-2.016 2.375,-0.432 4.823,-0.648 7.199,-0.576 4.536,0.144 8.927,1.368 13.319,2.52 0.36,0.072 0.72,0.288 1.08,0.504 0.576,0.36 1.08,0.288 1.728,-0.432 z m -8.064,34.991 v 0 c 0.36,-0.144 0.504,-0.216 0.72,-0.216 6.264,-1.368 12.599,-2.88 18.863,-4.104 4.68,-0.936 9.431,-1.296 14.183,-1.368 5.975,-0.072 11.951,0.576 17.855,1.512 0.935,0.144 1.871,0.144 2.735,0.288 1.152,0.216 2.304,0.504 3.456,0.792 0.648,0.144 1.224,0.288 2.016,0.504 -1.152,0.792 -2.448,0 -3.456,1.008 0.936,0 1.656,0 2.376,0 0.792,-0.072 1.512,-0.144 2.304,-0.216 0.216,0 0.576,-0.288 0.504,-0.432 0,-0.288 -0.216,-0.576 -0.432,-0.72 -0.288,-0.216 -0.648,-0.288 -1.008,-0.36 -1.008,-0.216 -2.016,-0.36 -3.024,-0.576 -6.047,-1.224 -12.095,-1.944 -18.286,-2.232 -3.6,-0.216 -7.2,-0.072 -10.8,0.216 -3.671,0.288 -7.415,0.864 -11.015,1.512 -5.039,0.936 -9.935,2.16 -14.975,3.312 -1.08,0.216 -2.088,0.432 -3.167,0.72 -0.216,0.072 -0.432,0.288 -0.864,0.648 1.511,0.432 2.663,0.72 3.887,1.08 0,-0.072 0.072,-0.144 0.072,-0.216 -0.648,-0.288 -1.224,-0.648 -2.016,-1.008 z m 24.911,-1.872 v 0 c 0.288,0.072 0.504,0.216 0.648,0.216 1.655,0.072 3.311,0.288 4.967,0.216 2.52,-0.144 4.752,0.576 7.056,1.512 4.967,2.016 10.007,3.888 14.974,5.832 0.72,0.288 1.224,0.072 1.512,-0.576 0.144,-0.36 0.216,-0.792 0.36,-1.152 -0.072,0 -0.072,0 -0.144,-0.072 -0.288,0.432 -0.576,0.792 -1.008,1.296 -4.247,-1.656 -8.423,-3.312 -12.599,-4.896 -1.512,-0.576 -3.095,-0.936 -4.463,-1.656 -1.008,-0.504 -1.944,-1.008 -3.024,-1.296 -2.304,-0.504 -4.536,-0.936 -6.912,-0.36 -0.504,0.144 -1.007,0.072 -1.367,0.792 z m 30.885,3.816 v 0 c -0.792,-0.288 -0.936,0 -1.008,0.504 0,0.144 0.072,0.288 0.144,0.504 0.288,-0.288 0.504,-0.576 0.864,-1.008 z"
           inkscape:connector-curvature="0"
           style="fill:#c7eafb" />
        <path
           id="path7199"
           d="m 370.052,126.718 c -0.792,0.432 -1.584,0.864 -2.448,1.368 0.432,-2.232 0.792,-4.32 1.152,-6.48 1.44,-0.072 2.808,-0.648 3.816,-1.8 1.08,-1.224 1.583,-2.664 1.656,-4.248 0.071,-1.728 -0.432,-3.384 -1.224,-4.896 -0.72,-1.368 -1.584,-2.736 -2.664,-3.816 -0.648,-0.648 -1.8,-0.864 -2.808,-1.152 -0.504,-0.144 -1.008,-0.072 -1.368,-0.072 -1.008,-1.8 -1.872,-3.456 -2.808,-5.112 -0.288,-0.504 -0.72,-1.008 -1.224,-1.368 -1.008,-0.792 -1.655,-1.727 -2.231,-2.879 -0.864,-1.728 -1.944,-3.384 -2.88,-5.04 -0.144,0.072 -0.288,0.144 -0.36,0.216 0.576,1.152 1.224,2.304 1.8,3.384 -0.072,0.072 -0.144,0.144 -0.216,0.216 -0.72,-0.72 -1.512,-1.368 -2.16,-2.088 -1.224,-1.368 -2.52,-2.592 -4.32,-3.096 -0.216,-0.072 -0.504,-0.072 -0.792,0.072 1.08,0.648 2.088,1.224 3.168,1.872 -0.072,0.072 -0.072,0.216 -0.144,0.288 -1.08,-0.288 -2.016,-0.648 -2.952,-1.296 -2.952,-2.232 -5.903,-4.392 -9.287,-5.832 -2.304,-0.936 -4.68,-1.584 -7.055,-2.376 -5.688,-1.8 -11.52,-2.304 -17.423,-2.16 -4.248,0.072 -8.424,0.216 -12.599,1.224 -1.008,0.216 -2.016,0.36 -3.024,0.576 -2.448,0.36 -4.752,1.296 -7.055,2.232 -1.584,0.648 -3.024,1.44 -4.536,2.304 -0.864,0.504 -2.088,0.504 -3.168,0.504 -3.96,0.072 -7.775,0.936 -11.303,2.736 -2.016,1.008 -4.176,1.728 -6.12,2.952 -0.431,0.288 -1.223,0.144 -1.799,0.072 -1.728,-0.072 -3.528,-0.216 -5.256,-0.144 -0.936,0 -1.728,-0.216 -2.376,-0.864 -0.576,-0.504 -1.152,-1.008 -1.8,-1.656 0.288,-0.216 0.432,-0.432 0.648,-0.504 2.736,-0.936 5.4,-1.944 8.136,-2.808 2.447,-0.72 4.607,-2.016 6.839,-3.168 6.48,-3.312 13.175,-6.12 19.943,-8.784 2.663,-1.008 5.183,-2.232 7.847,-3.312 1.728,-0.72 3.384,-1.368 5.328,-1.44 0.792,0 1.799,-0.648 2.375,-1.224 1.152,-1.08 2.376,-1.584 4.104,-1.584 1.512,0 3.024,-0.864 4.536,-1.44 1.08,-0.432 2.088,-0.936 3.096,-1.368 0.576,-0.216 1.223,-0.288 1.799,-0.432 0.936,-0.216 1.872,-0.36 2.88,-0.576 0.288,-0.072 0.576,-0.144 0.936,-0.144 1.656,-0.216 1.584,-0.216 2.088,-1.728 0.504,-1.8 1.152,-3.6 1.728,-5.4 0.144,0 0.216,0 0.36,0 0.144,0.504 0.36,1.008 0.36,1.512 0,0.864 0.432,1.44 1.008,1.944 1.08,1.008 2.16,2.088 3.095,3.24 0.792,1.008 1.656,1.512 2.88,1.656 0.504,0.072 1.008,0.072 1.512,0.072 2.808,0.216 5.544,0.288 8.279,0.72 1.584,0.216 3.168,1.008 4.68,1.584 0.72,0.288 1.224,0.792 0.936,1.8 -0.288,1.152 0.432,2.016 1.296,2.664 2.52,1.872 4.68,4.104 6.839,6.264 1.44,1.44 3.168,2.592 4.824,3.816 1.8,1.368 3.6,2.664 5.4,3.96 0.72,0.504 1.512,0.864 2.232,1.368 4.319,2.88 8.711,5.76 12.958,8.784 2.88,2.088 5.544,4.535 8.28,6.767 3.024,2.448 6.191,4.824 9.215,7.344 1.8,1.512 3.528,3.168 5.256,4.824 0.144,0.144 0.216,0.216 0.36,0.288 0.864,9.936 -1.296,19.944 -7.128,28.008 -3.383,4.608 -7.991,8.712 -9.287,14.328 -1.512,6.479 1.728,12.599 4.608,18.863 -2.376,0.864 -4.752,1.8 -7.128,2.664 -7.055,2.592 -14.111,4.968 -21.166,7.488 -2.808,1.008 -5.616,2.16 -8.424,3.168 -2.735,1.008 -5.471,1.944 -8.207,2.808 -4.32,1.44 -8.711,2.952 -13.031,4.392 -4.248,1.368 -8.423,2.736 -12.671,4.104 -2.592,0.864 -5.184,1.8 -7.847,2.448 -3.744,0.936 -7.56,1.728 -11.304,2.52 -0.431,0.072 -0.935,0.144 -1.367,0.288 -1.728,0.576 -3.312,0.72 -4.896,-0.504 -1.008,-0.792 -2.088,-0.216 -2.952,0.504 -0.504,0.504 -1.08,1.008 -1.584,1.512 -1.584,-0.792 -2.735,-1.944 -3.887,-3.096 -0.432,-0.432 -0.936,-0.792 -1.512,-1.008 -1.152,-0.432 -2.016,-1.008 -2.88,-2.088 2.664,-2.592 4.968,-3.096 7.919,-1.728 0.864,0.432 1.8,0.864 2.664,1.224 0.36,0.144 0.864,0.216 1.368,0.144 -2.736,-5.4 -6.335,-10.152 -11.015,-13.896 -4.68,-3.744 -9.287,-7.56 -15.551,-9.36 1.872,-1.296 3.384,-2.376 4.896,-3.528 1.224,-0.864 2.447,-1.728 3.599,-2.664 2.736,-2.16 5.4,-4.464 8.208,-6.624 3.671,-2.879 7.415,-5.831 11.159,-8.639 1.512,-1.152 3.24,-2.088 4.824,-3.024 0.216,-0.144 0.576,-0.144 0.864,-0.216 1.151,-0.144 2.231,-0.288 3.383,-0.288 3.24,0.072 6.336,-0.864 9.504,-1.152 0.575,-0.072 1.223,-0.072 1.871,0 1.368,0.072 2.736,0.144 4.104,-0.36 1.584,-0.648 3.384,-0.936 5.04,-1.512 1.512,-0.504 3.023,-1.08 4.391,-1.8 2.016,-1.008 3.96,-2.232 5.832,-3.24 1.44,0.792 2.808,1.584 4.104,2.304 -1.728,-0.072 -3.456,-0.432 -5.256,-0.144 0.072,0.936 0.72,0.864 1.224,0.864 1.224,0 2.448,-0.072 3.672,0 0.936,0.072 1.799,0.288 2.735,0.432 0.432,0.072 0.864,0.072 1.368,-0.144 -0.72,-0.288 -1.368,-0.504 -1.944,-0.72 0.792,-0.432 1.728,-0.72 2.52,-1.296 1.08,-0.864 2.304,-1.152 3.6,-1.08 2.016,0.072 3.672,-0.432 4.824,-2.16 0.144,-0.288 0.36,-0.504 0.576,-0.864 1.943,1.008 3.815,1.584 5.759,1.08 0.576,-0.144 1.008,-0.72 1.512,-1.224 -2.232,1.08 -4.32,0.648 -6.336,-0.432 0,-0.144 -0.072,-0.288 -0.072,-0.36 0.072,-0.144 0.217,-0.36 0.217,-0.36 1.367,0.36 2.519,0.648 3.815,0.936 0.72,0.144 1.44,-0.072 1.944,-0.72 0.864,-1.152 1.8,-2.304 2.448,-3.528 0.576,-1.08 1.368,-1.728 2.448,-2.16 2.591,-0.936 5.183,-1.224 7.919,-0.936 1.512,0.216 3.096,0.576 4.608,0.648 1.728,0.072 3.527,-0.144 5.255,-0.216 0.648,-0.072 1.296,-0.144 2.016,-0.288 0.216,-0.072 0.432,-0.288 0.576,-0.72 -0.36,0 -0.72,-0.072 -1.08,-0.072 -0.936,0.144 -1.8,0.36 -2.736,0.504 -2.735,0.504 -5.471,-0.072 -8.135,-0.432 -2.88,-0.36 -5.688,-0.216 -8.423,0.792 -0.288,0.072 -0.576,0.144 -0.864,0.216 -0.144,-1.152 0.432,-2.448 -0.864,-3.528 -0.072,0.36 -0.144,0.576 -0.072,0.72 0.432,1.08 0.216,2.088 -0.36,3.096 -0.576,1.08 -1.008,2.16 -1.584,3.168 -0.432,0.792 -1.08,1.512 -1.656,2.232 -0.432,0.504 -1.008,0.72 -1.656,0.432 -0.072,-0.072 -0.216,-0.072 -0.288,-0.144 -0.864,-0.288 -2.376,-0.144 -2.448,-1.224 -0.144,-1.296 0.144,-2.808 1.224,-3.816 1.44,-1.296 1.872,-3.024 2.736,-4.608 0.288,-0.576 0.576,-1.152 0.864,-1.8 0.432,0.216 0.792,0.36 1.08,0.504 0.072,-0.072 0.216,-0.144 0.216,-0.144 -0.216,-0.864 0.576,-1.08 0.936,-1.584 0.288,-0.36 1.08,-0.36 0.936,-1.08 0.576,-0.072 1.08,-0.144 1.656,-0.216 1.368,-0.288 2.663,-0.576 4.031,-0.936 1.368,-0.36 2.736,-0.792 4.32,-1.224 -0.432,-0.144 -0.576,-0.216 -0.648,-0.216 -3.096,0.936 -6.479,0.936 -9.359,2.664 z m -67.675,61.775 v 0 c -0.648,-0.144 -1.296,-0.072 -1.728,-0.36 -1.44,-0.864 -2.448,-1.944 -2.448,-3.816 0,-3.816 -0.144,-7.632 -0.144,-11.448 0,-3.312 -0.504,-6.624 0.216,-9.863 0.072,-0.432 -0.216,-0.792 -1.008,-0.576 0.072,7.631 0.072,15.263 0.288,22.967 -3.383,-1.656 -8.495,-6.48 -9.719,-9 0.288,-0.504 0.648,-1.008 0.936,-1.584 -1.296,-1.512 -2.952,-1.368 -4.536,-1.584 -0.36,-0.072 -0.864,-0.072 -0.864,0.648 1.584,0.072 3.168,0.072 4.608,0.936 -1.008,1.008 -1.008,1.08 -0.432,2.304 0.36,0.72 0.72,1.512 1.296,2.088 1.224,1.296 2.592,2.52 3.96,3.744 1.656,1.44 3.383,2.808 5.111,4.176 0.792,0.576 1.584,1.152 2.448,1.656 0.864,0.504 1.224,0.432 2.016,-0.288 z m 42.405,-22.824 v 0 c -0.144,-0.216 -0.144,-0.432 -0.288,-0.576 -1.296,-1.079 -2.52,-2.375 -4.392,-2.591 -1.224,-0.144 -2.448,-0.576 -3.528,-1.008 -5.327,-2.16 -10.871,-3.24 -16.486,-3.96 -0.72,-0.072 -1.368,-0.432 -2.016,-0.648 -0.216,-0.072 -0.504,-0.144 -0.792,-0.216 0.36,1.152 1.08,1.512 2.088,1.584 2.375,0.288 4.823,0.576 7.199,1.008 4.104,0.72 7.92,2.376 11.807,3.672 0.36,0.144 0.648,0.432 1.008,0.72 1.224,1.007 2.448,2.015 4.104,2.447 0.504,0.144 1.008,0.216 1.44,-0.504 z m -41.613,-6.695 v 0 c -0.072,0.072 -0.144,0.216 -0.216,0.288 0.792,1.512 1.8,3.024 3.096,4.176 2.375,2.159 4.823,4.391 7.271,6.479 2.16,1.872 4.392,3.6 6.624,5.4 0.936,0.72 2.015,1.152 3.527,1.512 -0.432,-0.36 -0.576,-0.504 -0.72,-0.576 -1.151,-0.72 -2.303,-1.368 -3.383,-2.16 -2.52,-2.016 -4.968,-4.176 -7.488,-6.264 -3.024,-2.52 -6.119,-4.967 -8.063,-8.495 -0.072,-0.216 -0.432,-0.216 -0.72,-0.36 z m -1.656,5.687 v 0 c 0.288,0.72 0.504,1.224 0.72,1.728 0.648,1.584 1.44,3.096 2.016,4.68 0.288,1.008 0.36,2.016 -0.216,3.096 -0.432,0.792 -0.432,1.8 0.432,3.024 0.288,-1.44 0.504,-2.592 0.72,-4.032 0.576,1.44 1.008,2.592 1.512,3.672 0.216,-0.288 0.216,-0.576 0.144,-0.792 -0.288,-0.864 -0.576,-1.728 -0.936,-2.592 -0.936,-2.52 -1.872,-5.04 -2.88,-7.488 -0.216,-0.504 -0.432,-1.224 -1.512,-1.296 z m 28.726,-13.247 v 0 c 0,0.216 0.072,0.36 0.072,0.576 4.248,-1.008 8.567,0.288 12.815,-0.144 -3.888,-0.36 -7.704,-1.368 -11.663,-0.792 -0.432,0.072 -0.864,0.216 -1.224,0.36 z m 31.173,1.728 v 0 c 0,-0.144 0,-0.288 0,-0.432 -3.671,-0.72 -7.343,-1.08 -11.087,-0.576 3.528,0.504 7.056,0.864 10.512,1.224 0.143,0 0.36,-0.144 0.503,-0.216 z m -70.266,18.503 v 0 c -0.72,0.216 -0.864,0.792 -0.648,1.296 0.216,0.576 0.648,1.08 1.08,1.44 0.504,0.432 1.008,0.216 1.08,-0.504 0.072,-1.08 0.072,-2.232 0.576,-3.24 0.144,-0.36 -0.288,-1.008 -0.504,-1.512 0,-0.072 -0.36,0 -0.72,0 0,1.44 0,2.808 0,4.248 -1.08,-0.288 -0.288,-1.296 -0.864,-1.728 z m 9.647,-10.511 v 0 c -0.072,0 -0.144,-0.072 -0.216,-0.072 -0.144,0.36 -0.36,0.72 -0.432,1.08 -0.072,0.648 -0.072,1.368 0.072,2.016 0.576,2.447 1.224,4.895 1.872,7.343 0.072,0.216 0.216,0.36 0.36,0.576 0.144,-0.576 0.072,-1.08 -0.072,-1.584 -0.36,-1.656 -0.864,-3.312 -1.224,-4.968 -0.288,-1.44 -0.288,-2.879 -0.432,-4.391 z m 14.975,-4.68 v 0 c -1.008,-0.864 -2.16,-1.296 -3.456,-1.368 -0.648,-0.072 -1.296,-0.144 -1.944,-0.144 -0.36,0 -0.936,0.216 -0.72,0.792 0.072,0.216 0.648,0.36 0.864,0.288 1.44,-0.432 2.736,0 4.104,0.216 0.36,0.072 0.72,0.144 1.152,0.216 z m -12.527,18.503 v 0 c -0.144,-0.072 -0.288,-0.072 -0.36,-0.144 0.288,0.936 0.144,1.584 -0.648,1.728 0.144,0.648 0.216,1.152 0.288,1.656 0.144,0.576 0.288,1.008 1.224,0.576 -0.144,-1.224 -0.288,-2.52 -0.432,-3.816 z m 4.608,3.888 v 0 c -0.144,0.432 -0.216,0.576 -0.216,0.648 0.072,0.936 0.072,1.872 0.216,2.808 0.072,0.504 0.432,0.864 1.295,0.864 -0.36,-1.512 -0.503,-2.88 -1.295,-4.392 z m 40.029,-26.783 v 0 c 0,0.072 0,0.144 0,0.144 0.287,0 0.575,-0.072 0.863,-0.072 -0.288,0 -0.576,-0.072 -0.863,-0.072 z"
           inkscape:connector-curvature="0"
           style="fill:#fce7f0" />
        <path
           id="path7201"
           d="m 74.73,152.422 c -1.224,-0.36 -1.872,0.144 -2.376,0.936 -0.575,0.864 -1.079,1.728 -1.655,2.592 -2.376,3.816 -4.968,7.488 -7.2,11.447 -2.664,4.68 -5.111,9.504 -7.631,14.328 -0.936,1.8 -1.656,3.672 -2.52,5.472 -1.08,-0.504 -1.368,-0.864 -1.296,-1.944 0.216,-2.232 0.648,-4.464 1.224,-6.696 1.368,-5.328 4.032,-10.152 6.263,-15.119 1.08,-2.376 2.304,-4.752 3.456,-7.056 0.432,-0.936 1.008,-1.728 1.512,-2.736 -1.008,-0.216 -1.296,0.36 -1.584,1.008 -0.936,1.944 -1.872,3.888 -2.808,5.832 -2.375,5.111 -4.751,10.223 -7.055,15.335 -0.144,0.288 -0.216,0.648 -0.288,1.008 -0.504,2.52 -1.008,5.04 -1.512,7.56 -0.144,0.648 -0.936,1.584 -1.584,1.656 -0.648,0.072 -1.152,-0.144 -1.224,-0.864 -0.072,-0.648 -0.144,-1.368 -0.144,-2.016 0,-2.016 0.072,-4.032 0.072,-6.048 0,-0.288 0,-0.504 -0.072,-0.792 -0.36,-1.512 -0.072,-2.808 0.864,-4.176 0.936,-1.296 1.368,-2.88 1.944,-4.392 1.944,-4.895 3.888,-9.791 5.832,-14.687 0.144,-0.36 0.216,-0.72 0.072,-1.296 -0.216,0.144 -0.648,0.288 -0.72,0.504 -0.792,2.592 -2.664,4.392 -4.176,6.408 -2.448,3.384 -4.032,7.199 -5.328,11.159 -0.792,2.232 -1.943,4.176 -3.167,6.192 -0.072,0.144 -0.216,0.216 -0.504,0.432 -0.432,-1.44 -0.36,-2.664 -0.144,-3.96 0.648,-4.32 2.304,-8.28 4.031,-12.167 1.656,-3.744 3.6,-7.416 5.472,-11.088 0.864,-1.656 2.016,-3.024 3.24,-4.464 2.592,-2.952 4.967,-6.048 7.487,-9.072 0.504,-0.648 1.152,-1.152 1.728,-1.728 2.88,-2.88 5.832,-5.688 8.711,-8.568 0.36,-0.288 0.576,-0.72 0.864,-1.08 1.08,-1.728 2.52,-3.24 3.168,-5.256 0.576,-1.944 1.944,-3.24 3.384,-4.536 6.335,-5.616 13.031,-10.656 20.086,-15.264 2.448,-1.583 4.968,-2.951 7.416,-4.463 2.232,-1.296 4.391,-2.736 6.623,-4.032 1.224,-0.72 2.52,-1.512 3.816,-2.016 1.44,-0.576 2.952,-1.008 4.392,-1.368 1.439,-0.288 2.951,-0.36 4.463,-0.576 2.952,-0.36 5.832,-0.648 8.784,-0.936 0.576,-0.072 1.152,-0.144 1.727,-0.144 3.024,0 5.76,-0.72 8.568,-1.872 2.016,-0.864 4.032,-1.584 6.119,-2.16 4.248,-1.152 8.352,-2.664 12.743,-3.168 0.936,-0.072 1.944,-0.36 2.808,-0.864 3.96,-2.304 7.848,-4.608 11.663,-7.056 1.368,-0.864 2.592,-2.088 4.032,-2.88 4.752,-2.736 9.431,-5.616 14.471,-7.704 4.32,-1.728 8.855,-2.88 13.463,-3.384 0.936,-0.144 1.944,0.072 2.952,0.144 2.231,0.216 4.535,0.288 6.767,0.72 4.752,0.864 8.423,3.312 11.447,7.128 2.952,3.744 6.408,6.984 10.295,9.792 2.016,1.44 3.744,3.24 5.76,4.968 -2.736,0.864 -5.184,1.656 -7.703,2.448 -3.6,1.08 -7.2,2.232 -10.872,3.168 -3.527,0.936 -7.127,1.224 -10.727,1.296 -4.103,0.072 -8.279,0.144 -12.383,0.288 -1.224,0.072 -2.448,0.36 -3.672,0.504 -0.36,0.072 -0.648,0.072 -1.223,0.144 4.895,-2.952 9.503,-5.832 14.47,-8.064 0,0 0.072,-0.072 0.072,-0.144 0,-0.072 0,-0.216 0,-0.504 -0.432,0.072 -0.791,0 -1.151,0.144 -3.672,1.584 -7.056,3.6 -10.44,5.688 -1.944,1.224 -3.959,2.232 -6.191,2.808 -0.432,0.144 -0.864,0 -1.296,-0.072 -1.008,-0.216 -2.016,-0.576 -3.024,-0.576 -1.368,-0.072 -2.088,0.432 -2.376,1.728 -0.216,0.792 -0.432,1.368 -1.152,1.8 -0.432,0.288 -0.72,0.864 -1.08,1.296 -0.288,0.432 -0.503,0.864 -0.791,1.44 -0.648,-0.216 -1.296,-0.432 -1.872,-0.648 -1.368,-0.432 -1.872,-0.144 -2.448,1.08 -0.288,0.648 -0.576,1.296 -0.936,2.016 -0.648,-0.216 -1.152,-0.432 -1.656,-0.576 -0.936,-0.288 -1.44,-0.216 -2.016,0.648 -0.36,0.504 -0.72,0.936 -1.296,0.936 -0.792,0 -1.008,0.432 -1.296,1.08 -0.504,1.223 -0.792,1.367 -2.015,0.791 -1.224,-0.575 -2.232,-0.647 -3.096,0.72 -0.216,0.288 -0.792,0.36 -1.224,0.432 -0.864,0.216 -1.8,0.288 -2.664,0.72 -0.36,-0.144 -0.72,-0.216 -1.008,-0.36 -1.08,-0.648 -2.016,-0.504 -2.952,0.36 -0.216,0.216 -0.648,0.504 -0.936,0.432 -1.367,-0.432 -2.015,0.216 -2.447,1.584 -0.864,-0.216 -1.656,-0.36 -2.376,-0.576 -0.576,-0.144 -1.152,-0.216 -1.8,-0.072 -1.08,0.288 -2.232,0.36 -3.384,0.36 -3.168,-0.072 -6.263,-0.432 -9.431,-0.432 -3.744,0.072 -7.487,0.432 -11.303,0.72 -2.376,0.216 -4.752,0.432 -7.056,0.792 -1.584,0.216 -3.167,0.648 -4.679,1.152 -1.224,0.432 -2.376,1.152 -3.528,1.872 -1.224,0.792 -2.376,1.872 -3.6,2.664 -3.096,2.016 -5.471,4.752 -7.775,7.56 -1.152,1.44 -2.232,2.952 -3.816,4.032 -0.144,0.072 -0.288,0.144 -0.36,0.288 -0.792,1.584 -2.304,2.448 -3.816,3.312 -1.079,0.648 -2.159,1.368 -3.311,1.944 -1.08,0.504 -1.008,1.512 -1.224,2.376 -0.504,2.16 -0.864,4.32 -1.152,6.48 -0.144,1.008 0.072,2.088 0.288,3.096 0.216,1.152 0.504,2.304 0.72,3.456 0.216,1.44 0.648,2.88 0.576,4.248 0,1.296 -0.36,2.664 -0.792,3.888 -0.36,1.152 -1.08,2.232 -1.656,3.312 -1.296,2.448 -2.592,4.824 -3.816,7.272 -0.288,0.576 -0.432,1.296 -0.576,1.944 -0.432,2.519 -1.08,5.039 -0.864,7.703 0.072,0.864 -0.288,1.8 -0.432,2.664 -2.303,-0.072 -2.519,-0.288 -2.879,-2.16 -0.504,-2.376 -0.432,-4.824 -0.144,-7.271 0.288,-2.16 0.72,-4.248 1.008,-6.408 0.144,-1.008 0.216,-2.088 0.144,-3.096 -0.144,-2.52 1.295,-4.104 3.023,-5.616 0.216,-0.144 0.504,-0.216 0.648,-0.432 0.144,-0.144 0.216,-0.504 0.144,-0.648 -0.072,-0.144 -0.504,-0.288 -0.648,-0.216 -0.576,0.432 -1.224,0.792 -1.656,1.368 -1.367,1.872 -2.591,3.816 -3.887,5.76 -0.72,1.152 -1.44,2.304 -2.232,3.384 -1.728,2.448 -2.592,5.256 -3.888,7.919 -1.872,3.888 -3.384,7.992 -4.823,12.096 -1.08,3.096 -2.304,6.048 -3.528,9.072 -0.216,0.576 -0.432,1.224 -1.224,1.296 -0.576,0 -1.08,-0.72 -1.008,-1.656 0.072,-2.376 0.072,-4.824 0.648,-7.128 0.576,-2.376 1.08,-4.752 1.584,-7.128 0.072,-0.36 0.216,-0.72 0.216,-1.08 -0.288,-2.304 0.792,-4.32 1.584,-6.408 1.368,-3.527 2.807,-6.983 4.247,-10.439 0.144,-0.288 0.144,-0.72 0.216,-1.08 z m -1.296,-6.264 v 0 c 0,0.144 0,0.288 0,0.432 0.288,0.072 0.576,0.144 0.864,0.216 1.368,0.072 2.592,0.648 3.672,1.44 0.576,0.36 1.08,0.72 1.728,1.008 0.216,0.072 0.504,-0.072 0.792,-0.072 -0.144,-0.216 -0.216,-0.576 -0.36,-0.648 -0.936,-0.576 -1.872,-1.08 -2.88,-1.512 -0.72,-0.36 -1.512,-0.72 -2.304,-0.864 -0.504,-0.144 -1.008,0 -1.512,0.072 z m -9.215,-0.936 v 0 c 0.288,0.432 0.648,0.792 1.008,1.296 0.648,-0.288 1.224,-0.648 1.44,-1.656 -0.936,0.432 -1.584,1.008 -2.448,0.36 z m -1.152,-0.288 v 0 c -0.864,0 -1.944,-0.72 -2.808,0.432 1.152,0.432 1.944,-0.072 2.808,-0.432 z"
           inkscape:connector-curvature="0"
           style="fill:#fdddcf" />
        <path
           id="path7203"
           d="m 309.072,96.623 c 3.96,0.216 7.92,0.36 11.88,0.72 1.223,0.144 2.519,0.576 3.671,1.08 1.728,0.719 3.384,1.511 4.968,2.447 2.952,1.872 5.255,4.464 7.127,7.416 1.44,2.304 2.808,4.68 3.6,7.344 0.504,1.728 0.792,3.528 0.792,5.328 0,0.432 -0.216,0.864 -0.36,1.368 -0.144,0.576 -0.504,1.08 -0.504,1.584 0,2.448 -0.792,4.824 -0.288,7.2 0.072,0.432 -0.072,0.936 -0.144,1.368 -0.216,1.224 -0.504,2.448 -0.648,3.672 -0.072,0.792 0,1.656 0.216,2.448 0.288,1.368 0.36,1.584 -0.792,2.304 -0.72,0.504 -1.584,0.792 -2.376,1.08 -0.72,0.288 -1.512,0.504 -2.159,0.864 -0.792,0.504 -1.656,0.504 -2.52,0.36 -3.096,-0.36 -6.12,-0.72 -9.216,-0.936 -4.535,-0.36 -8.999,0.216 -13.391,0.72 -1.655,0.216 -3.239,0.504 -4.895,0.864 -0.936,0.216 -1.872,0.504 -2.808,0.864 -1.296,0.648 -2.664,0.576 -4.032,0.36 -1.368,-0.216 -2.663,-0.648 -4.031,-0.936 -1.44,-0.36 -2.952,-0.648 -4.392,-0.936 -2.808,-0.576 -5.184,-2.016 -7.559,-3.456 -2.736,-1.728 -5.256,-3.6 -7.848,-5.544 -2.016,-1.44 -3.888,-3.024 -5.831,-4.608 -1.584,-1.224 -2.52,-2.808 -2.952,-4.752 -0.36,-1.44 0.144,-2.736 0.432,-4.104 0.576,-2.808 1.944,-5.184 3.672,-7.416 1.295,-1.656 2.375,-3.528 3.527,-5.256 0.576,-0.864 1.152,-1.656 2.376,-1.8 0.576,-0.072 1.152,-0.36 1.728,-0.576 1.296,-0.504 2.592,-0.936 3.888,-1.512 2.375,-1.08 4.751,-2.16 7.199,-3.24 3.096,-1.44 6.408,-2.376 9.719,-3.023 1.584,-0.288 3.24,-0.792 4.824,-1.008 2.376,-0.216 4.752,-0.216 7.055,-0.288 0,-0.072 0,-0.072 0,-0.144 z m -5.759,6.119 v 0 c -0.792,1.44 -1.728,-0.216 -2.736,0.288 0.36,0.36 0.72,0.576 1.008,0.864 0.216,0.216 0.432,0.576 0.36,0.864 -0.144,0.576 -0.648,0.36 -1.008,0.288 -0.432,-0.072 -0.792,-0.144 -1.224,-0.216 0,0.072 -0.072,0.216 -0.072,0.288 0.576,0.36 1.152,0.72 1.944,1.224 -0.36,0.432 -0.576,0.792 -0.936,1.008 -0.36,0.216 -0.864,0.216 -1.512,0.36 2.016,0.576 2.016,0.576 2.016,1.584 -0.648,0.288 -1.296,0.504 -1.944,0.792 0.576,0.288 1.152,0.288 1.656,0.216 0.648,-0.072 1.08,0.216 1.152,0.864 -0.72,0.504 -1.368,0.936 -2.16,1.44 1.224,0.432 2.376,-1.44 3.24,0.216 -0.432,0.72 -0.792,1.44 -1.152,2.16 0.072,0.072 0.144,0.072 0.216,0.144 0.864,-0.72 1.8,-1.512 2.664,-2.232 -0.36,-1.008 -0.864,-1.872 -1.08,-2.88 -0.216,-0.936 -0.216,-1.944 -0.072,-2.88 0.144,-1.008 0.648,-1.944 1.008,-2.952 0.36,-0.936 1.656,-1.152 1.872,-2.376 -0.936,0.072 -1.728,0.144 -2.592,0.216 -0.504,-0.576 -1.008,-1.152 -1.584,-1.728 -0.36,1.08 0.432,1.656 0.792,2.448 z m -0.864,33.48 v 0 c -0.936,0.36 -1.584,0.648 -2.304,0.864 0,0.072 0.072,0.216 0.072,0.288 0.72,0 1.44,0 2.16,0 0.576,1.44 -1.224,1.08 -1.368,2.016 0.648,-0.072 1.224,-0.072 1.944,-0.144 -0.432,0.648 -0.72,1.08 -1.152,1.728 0.72,-0.216 1.152,-0.36 1.944,-0.648 -0.576,1.08 -1.008,1.872 -1.44,2.592 0.936,-0.72 1.728,-1.512 3.024,-1.08 -0.504,-1.152 -1.152,-2.16 -1.296,-3.168 -0.144,-1.08 0,-2.304 0.36,-3.384 0.288,-1.008 0.936,-1.944 1.584,-3.096 -0.648,0 -1.08,0 -1.512,0 -0.648,-0.648 -1.224,-1.224 -1.728,-1.8 -0.072,0.072 -0.144,0.144 -0.216,0.216 0.36,0.864 0.792,1.728 1.224,2.592 -0.936,0.576 -1.656,-0.432 -2.664,-0.288 0.72,0.72 1.296,1.224 1.944,1.872 -1.08,0.504 -2.16,-0.36 -3.096,0.432 0.936,0.288 1.728,0.576 2.736,0.936 z m -15.551,-7.776 v 0 c -0.432,-0.504 -0.792,-1.008 -1.152,-1.368 -0.288,-0.288 -0.72,-0.576 -1.08,-0.792 -0.144,-0.072 -0.432,0.072 -0.504,0.144 -0.072,0.144 -0.072,0.432 0,0.576 0.648,0.72 1.296,1.44 2.016,2.088 0.432,0.36 1.008,0.504 1.728,0.432 2.88,-0.504 5.76,-1.008 8.711,-1.296 3.816,-0.432 7.632,-0.504 11.088,1.656 0.216,0.144 0.575,0 0.863,0 0,-0.072 0.072,-0.216 0.072,-0.288 -0.288,-0.216 -0.575,-0.576 -0.863,-0.72 -1.944,-1.224 -4.176,-1.728 -6.48,-1.8 -1.728,0 -3.528,0.144 -5.256,0.288 -0.936,0.072 -1.871,0.144 -2.735,0.288 -2.16,0.288 -4.248,0.648 -6.336,1.008 z M 310.8,99.79 v 0 c -0.072,0.072 -0.216,0.216 -0.288,0.288 0.432,0.504 0.792,1.08 1.296,1.512 0.648,0.576 0.936,1.368 0.936,2.232 -0.072,1.512 -0.144,3.096 -0.432,4.608 -0.432,1.8 -1.152,3.528 -1.728,5.256 -0.288,0.936 -0.648,1.8 -0.864,2.808 -0.072,0.288 0.216,0.864 0.432,1.008 0.288,0.144 0.792,-0.144 1.008,-0.36 0.216,-0.216 0.36,-0.648 0.432,-0.936 0.504,-1.728 0.936,-3.456 1.368,-5.184 0.576,-2.232 0.72,-4.464 0.864,-6.696 0.072,-1.08 -0.288,-2.088 -1.008,-2.808 -0.648,-0.576 -1.368,-1.08 -2.016,-1.584 z m 1.296,42.12 v 0 c 0.072,0.072 0.216,0.072 0.288,0.144 0.936,-1.008 1.944,-2.088 1.512,-3.744 -0.288,-1.152 -0.432,-2.304 -0.792,-3.456 -0.288,-1.08 -0.792,-2.088 -1.224,-3.096 -0.216,-0.504 -0.792,-0.648 -1.296,-0.288 -0.504,0.288 -0.72,0.72 -0.432,1.296 0.432,0.864 0.864,1.728 1.368,2.592 1.08,1.944 1.872,3.888 0.72,6.12 -0.072,0.144 -0.144,0.36 -0.216,0.576 z m -35.061,-12.6 v 0 c 0.216,1.008 0.432,2.088 0.72,3.168 0.144,0.504 0.504,0.72 0.936,0.432 0.144,-0.144 0.144,-0.648 0.144,-0.936 -0.072,-0.36 -0.36,-0.648 -0.504,-0.936 -0.144,-0.432 -0.432,-0.864 -0.432,-1.296 0.072,-1.872 0.144,-3.816 0.288,-5.688 0.072,-1.152 0.288,-2.376 0.36,-3.528 0,-1.08 -0.288,-2.16 0.288,-3.168 0.072,-0.144 -0.072,-0.576 -0.216,-0.576 -0.144,-0.072 -0.576,0.072 -0.648,0.216 -0.216,0.432 -0.432,0.936 -0.432,1.44 0,0.936 0.504,1.944 0.216,2.736 -0.936,2.664 -0.072,5.4 -0.648,8.208 z m 30.022,4.968 v 0 c -1.152,-0.648 -1.296,0.144 -1.584,0.648 -0.864,1.512 -0.72,3.024 0.144,4.536 -0.216,-1.872 0.288,-3.6 1.44,-5.184 z m -1.944,-24.408 v 0 c 0.216,-0.792 0.432,-1.512 0.576,-2.304 0.144,-0.792 1.08,-1.368 0.864,-2.376 -1.728,0.864 -2.088,2.016 -1.368,4.68 z m -31.39,17.28 v 0 c 0.216,-0.072 0.648,-0.072 0.648,-0.216 0.216,-0.792 0.648,-1.584 0.36,-2.52 -0.144,-0.504 -0.288,-1.008 -1.008,-1.008 0,1.224 0,2.448 0,3.744 z m 7.92,-2.88 v 0 c -1.224,1.08 -1.44,2.016 -0.792,3.24 0.072,0.216 0.432,0.288 0.648,0.432 0.072,-0.288 0.36,-0.576 0.287,-0.792 -0.359,-0.648 -0.215,-1.296 0,-1.944 0.073,-0.216 -0.071,-0.576 -0.143,-1.08 z"
           inkscape:connector-curvature="0"
           style="fill:#fdddcf" />
        <path
           id="path7205"
           d="m 263.356,118.87 c 0.36,-0.072 0.72,-0.216 1.224,-0.288 -0.288,1.224 -0.504,2.376 -0.792,3.6 -0.792,3.312 0.432,5.904 2.88,7.992 1.8,1.512 3.599,2.952 5.399,4.392 0.648,0.504 0.864,1.08 1.152,1.8 1.44,3.816 0.144,7.416 -0.864,11.016 -0.864,3.096 -2.592,5.616 -4.967,7.704 -0.144,0.144 -0.288,0.288 -0.504,0.576 0.792,0.072 1.152,-0.36 1.512,-0.72 2.447,-2.16 3.887,-4.896 4.823,-7.992 0.504,-1.656 0.864,-3.312 1.152,-4.968 0.288,-1.8 0.576,-3.672 -0.36,-5.472 0.072,-0.072 0.216,-0.144 0.288,-0.144 1.224,0.864 2.448,1.656 3.6,2.52 0.288,0.216 0.36,0.648 0.504,0.936 0.576,1.656 0.504,3.384 -0.072,5.04 -1.152,3.672 -2.808,6.984 -5.544,9.72 -0.144,0.144 -0.288,0.36 -0.504,0.576 0,0 0,0.072 0,0.144 1.152,-0.432 2.592,-1.728 3.888,-4.032 1.008,-1.728 1.872,-3.456 2.592,-5.256 0.72,-1.8 0.864,-3.744 0.792,-5.76 0.216,0.072 0.36,0.072 0.432,0.072 1.152,2.448 2.303,4.896 1.944,7.704 -0.432,3.24 -2.016,5.832 -4.968,7.848 0.144,-0.648 0.216,-1.008 0.36,-1.584 -5.328,4.752 -11.735,6.624 -18.791,7.704 2.016,-1.44 3.816,-2.592 5.4,-3.888 1.584,-1.368 3.24,-2.808 3.6,-5.112 -0.216,0.288 -0.432,0.504 -0.648,0.792 -2.304,3.816 -5.832,6.12 -9.648,7.92 -0.432,0.216 -1.008,0.288 -1.511,0.216 -0.792,0 -1.656,-0.144 -2.448,-0.288 -0.576,-0.072 -1.08,-0.216 -1.584,-0.504 -0.864,-0.432 -1.656,-0.504 -2.52,-0.144 -3.744,1.368 -7.559,2.736 -11.303,4.175 -0.648,0.216 -1.224,0.576 -1.728,1.008 -1.368,1.008 -2.952,1.08 -4.896,1.008 2.232,-1.584 4.176,-2.88 6.12,-4.247 0,-0.072 0,-0.144 -0.072,-0.216 -0.288,0.072 -0.576,0.072 -0.864,0.144 -2.232,0.864 -4.176,2.087 -5.904,3.671 -1.151,1.008 -2.375,1.08 -3.743,0.936 -0.864,-0.072 -1.8,-0.432 -2.808,-0.648 0.36,-0.288 0.648,-0.504 0.936,-0.792 -0.504,-0.576 -1.08,-0.288 -1.584,-0.216 -2.088,0.216 -3.672,-0.576 -4.968,-2.159 2.088,0.863 4.104,1.223 6.48,0.144 -1.368,-0.576 -2.52,-0.072 -3.672,-0.144 -1.224,-0.072 -2.088,-0.72 -3.024,-1.224 0,-0.144 0.072,-0.288 0.072,-0.432 0.432,0.072 0.936,0.144 1.368,0.216 1.224,0.144 2.448,0.36 3.672,0.504 0.936,0.144 1.944,0.144 2.736,0.144 0.432,1.079 0.72,1.943 1.152,2.735 0.144,0.216 0.432,0.432 0.72,0.576 0.144,0.072 0.36,0.072 0.72,0.072 -0.432,-0.648 -0.864,-1.08 -1.152,-1.584 -0.648,-1.151 -0.432,-2.447 -0.072,-3.599 0.936,-3.168 2.951,-5.4 6.119,-6.552 0.36,-0.144 0.648,-0.216 1.008,-0.36 0.072,0 0.144,-0.144 0.216,-0.216 -0.936,-0.36 -1.512,-0.144 -3.744,1.224 -1.224,0.792 -2.375,1.728 -3.023,3.024 -0.648,1.296 -1.152,2.592 -1.728,3.888 -0.648,0 -0.792,-0.504 -0.72,-0.936 0.072,-0.72 0.216,-1.44 0.504,-2.088 0.792,-1.872 1.728,-3.744 3.384,-5.112 0.144,-0.072 0.144,-0.288 0.287,-0.576 -2.159,0.504 -4.031,3.6 -5.183,8.208 -1.44,-1.152 -1.44,-3.456 0.072,-6.192 0.072,0.504 0.144,1.008 0.216,1.728 0.288,-0.432 0.432,-0.576 0.504,-0.792 0.936,-2.52 4.032,-4.896 6.767,-4.896 0.72,0 1.512,0.288 2.16,0.576 1.944,0.72 4.032,0.936 6.048,0.936 0.72,0 1.44,0 2.304,0 -0.936,1.224 -2.16,1.008 -3.24,1.368 1.224,0.36 2.232,0.216 3.671,-0.432 1.368,-0.648 2.808,-1.296 4.104,-1.944 0,-0.288 -0.072,-0.648 0.072,-0.864 1.44,-1.512 2.376,-3.384 3.312,-5.184 0.936,-1.728 0.936,-3.6 0.36,-5.4 -0.72,-2.16 -1.584,-4.32 -2.448,-6.48 -0.072,-0.144 -0.072,-0.288 -0.144,-0.576 0.216,-0.144 0.432,-0.36 0.648,-0.576 0.144,0 0.216,0 0.288,0.072 2.016,2.376 3.528,4.968 4.32,7.992 0.504,1.656 0.288,3.24 -0.504,4.824 -1.44,2.88 -3.456,5.4 -5.976,7.416 -0.792,0.648 -1.728,0.864 -2.664,1.08 -3.671,0.936 -7.055,2.664 -10.295,4.536 -1.296,0.792 -2.376,1.944 -3.456,3.096 -1.223,1.296 -1.799,3.455 -1.511,5.183 0.216,-0.504 0.36,-0.792 0.432,-1.152 0.863,-3.959 3.671,-6.047 6.983,-7.775 1.584,-0.792 3.24,-1.512 4.896,-2.232 0.936,-0.432 1.799,-0.936 2.879,-0.504 0.216,0.072 0.504,-0.072 0.72,-0.144 1.44,-0.792 2.88,-1.152 4.536,-1.368 2.304,-0.288 4.464,-1.296 6.335,-2.664 0.864,-0.648 1.728,-1.296 2.448,-2.16 1.8,-2.16 1.728,-4.752 1.368,-7.344 -0.36,-2.448 -0.792,-4.824 -1.152,-7.2 0.072,0 0.216,-0.072 0.288,-0.072 0.36,0.648 0.648,1.296 1.008,1.872 0.216,0.36 0.216,0.36 1.008,0 -2.376,-3.744 -2.448,-7.848 -1.8,-12.024 0.936,-5.76 3.024,-11.016 6.84,-15.552 0.216,-0.288 0.36,-0.576 0.36,-1.008 -0.288,0.144 -0.648,0.36 -1.152,0.648 1.224,-2.016 2.592,-3.6 4.103,-5.112 2.664,-2.592 5.328,-5.183 8.136,-7.631 0.792,-0.72 1.728,-1.296 2.736,-1.656 5.039,-1.944 10.223,-2.952 15.55,-2.808 2.952,0.072 5.904,0.072 8.784,0.288 3.096,0.216 6.119,0.792 9.215,1.152 2.088,0.288 4.176,0.432 6.336,0.72 1.008,0.144 2.015,0.36 3.023,0.504 0.432,0.072 0.864,0.072 1.296,-0.072 -0.72,-0.648 -1.584,-0.864 -2.448,-0.936 -5.903,-0.648 -11.807,-1.44 -17.71,-1.872 -4.032,-0.288 -8.064,-0.432 -12.095,-0.216 -3.672,0.144 -7.344,0.864 -10.871,2.16 -0.288,0.072 -0.576,0.144 -1.08,0.288 0.288,-0.504 0.432,-0.792 0.648,-1.152 -0.792,-0.36 -1.152,0.144 -1.512,0.576 -1.224,1.44 -2.808,2.448 -4.392,3.312 -0.072,-0.072 -0.072,-0.072 -0.144,-0.144 0.504,-0.504 1.008,-0.936 1.512,-1.368 -0.864,0.072 -1.728,0.576 -3.744,2.016 -1.152,0.864 -2.088,2.016 -3.599,2.375 0.719,-1.079 1.799,-1.655 2.807,-2.447 1.008,-0.792 2.088,-1.512 3.168,-2.16 1.008,-0.648 2.088,-1.296 3.168,-1.944 1.008,-0.72 2.448,-0.72 3.528,-1.872 -0.576,0 -0.936,-0.072 -1.224,0 -1.368,0.648 -2.664,1.296 -3.96,2.088 -1.296,0.792 -2.592,1.656 -3.888,2.52 -0.216,0.144 -0.576,0.144 -0.792,0.216 v 0.072 c 0.288,-0.864 -0.576,-1.08 -1.008,-1.512 2.304,-1.944 11.807,-6.192 15.695,-5.184 -0.432,0.792 -1.368,0.936 -1.872,1.44 -0.504,0.504 -1.44,0.792 -1.224,2.088 1.512,-1.656 3.312,-2.52 5.184,-3.312 0.216,-0.072 0.432,-0.216 0.72,-0.288 2.592,-0.576 5.184,-1.44 7.775,-1.728 2.664,-0.288 5.328,0.072 8.064,0.144 0.72,0 1.44,0.072 2.16,-0.072 -4.68,-1.224 -9.36,-1.224 -14.111,-0.36 3.167,-1.512 6.479,-2.808 10.007,-3.312 1.656,-0.216 3.24,-0.72 4.896,-0.936 3.095,-0.288 6.263,-0.576 9.431,-0.648 2.808,-0.072 5.543,0.072 8.351,0.288 1.872,0.144 3.816,0.432 5.616,0.936 4.031,1.008 8.063,1.872 11.735,3.888 2.016,1.08 3.96,2.304 5.759,3.96 -0.792,0 -1.655,0 -2.447,0 0,0.072 0,0.216 0,0.288 0.288,0.072 0.648,0.216 0.936,0.288 0.647,0.144 1.295,0.216 2.015,0.288 1.944,0.216 3.24,1.584 4.392,2.952 2.376,2.808 4.032,6.119 5.328,9.575 0.288,0.864 0.36,1.8 0.504,2.736 0.864,-0.216 0.792,-0.864 0.648,-1.44 -0.432,-1.584 -0.792,-3.24 -1.584,-4.68 -1.224,-2.231 -2.736,-4.391 -4.104,-6.551 -0.144,-0.216 -0.216,-0.432 -0.216,-0.648 2.736,1.368 4.248,3.744 5.256,6.407 1.008,2.664 2.231,5.328 1.655,8.64 0.36,-0.288 0.72,-0.432 0.72,-0.648 0,-1.008 0.144,-2.088 -0.072,-3.096 -0.36,-1.584 -0.936,-3.168 -1.439,-4.752 -0.072,-0.288 -0.216,-0.648 -0.072,-1.08 0.216,0.216 0.575,0.432 0.647,0.648 0.72,2.16 1.512,4.248 2.088,6.408 0.216,0.864 0.216,1.8 -0.36,2.664 -0.144,0.216 0,0.576 0,1.08 1.08,-0.504 1.008,-1.368 1.296,-2.16 0.432,-0.216 0.936,-0.432 1.512,-0.648 0.432,1.44 -0.504,1.8 -1.656,2.16 0.432,0.144 0.648,0.216 0.864,0.288 -0.072,0.216 -0.072,0.432 -0.144,0.792 0.864,-0.288 1.368,0.072 1.8,0.72 1.08,1.512 1.944,3.168 2.376,4.968 0.288,1.08 0.288,2.16 -0.792,2.88 -0.072,0.072 -0.144,0.288 -0.144,0.36 -0.144,0.648 1.152,0.288 0.504,1.296 -0.576,-0.36 -1.152,-0.72 -1.728,-1.08 -0.432,0.576 0.072,0.864 0.36,1.152 0.36,0.36 0.864,0.648 0.504,1.296 -0.072,0.072 -0.072,0.288 0,0.288 1.512,0.792 0.504,2.016 0.432,2.952 -0.36,3.24 -2.16,5.976 -3.6,8.784 -0.432,0.792 -1.296,1.44 -2.16,1.944 -1.368,0.792 -2.807,1.512 -4.247,2.16 -1.728,0.72 -3.6,0.648 -5.04,-0.432 -1.152,-0.864 -2.664,-1.368 -3.6,-3.096 -0.072,0.648 -0.072,0.864 -0.144,1.152 -3.887,-1.584 -7.271,-7.416 -6.839,-11.88 0.792,1.296 1.512,2.448 2.304,3.528 1.584,2.16 3.095,4.32 5.543,5.472 0.792,0.36 1.728,0.576 2.808,0.936 -0.216,-0.36 -0.216,-0.504 -0.288,-0.504 -3.096,-0.864 -5.111,-3.024 -6.911,-5.472 -0.864,-1.224 -1.8,-2.592 -2.376,-3.96 -0.504,-1.08 -0.792,-2.376 -0.792,-3.6 0,-1.944 -0.576,-3.744 -1.224,-5.544 -1.44,-3.744 -3.384,-7.2 -6.12,-10.152 -2.231,-2.448 -4.679,-4.68 -7.919,-5.832 -1.152,-0.431 -2.232,-1.007 -3.384,-1.511 -2.519,-0.936 -5.183,-0.864 -7.775,-0.936 -4.464,-0.144 -8.999,0 -13.463,0.072 -0.288,0 -0.504,0 -0.792,0.072 -4.104,1.008 -8.279,1.656 -12.239,3.167 -0.216,0.072 -0.504,0.072 -0.72,0.144 v 0 c 0.432,-0.288 0.864,-0.72 1.296,-0.864 1.8,-0.719 3.672,-1.367 5.471,-2.015 0.864,-0.288 1.728,-0.576 2.52,-1.152 -0.576,0 -1.152,-0.072 -1.584,0.072 -2.015,0.648 -4.103,1.152 -5.975,2.16 -3.24,1.655 -6.696,2.447 -10.295,2.879 1.656,-1.584 3.383,-3.095 5.255,-4.463 -1.008,-0.144 -1.728,0.216 -2.448,0.792 -1.439,1.152 -2.879,2.303 -4.319,3.455 -0.648,0.504 -1.296,0.72 -2.16,0.72 -0.648,0 -1.368,0.072 -2.016,0.144 -0.432,0.072 -0.864,0.216 -1.296,0.288 0,0.144 0,0.216 0,0.36 1.008,0 2.016,0 3.24,0 -1.224,1.368 -2.232,2.592 -3.384,3.672 -0.432,0.432 -1.152,0.432 -1.944,0.72 0.432,0.216 0.648,0.36 1.152,0.576 -1.8,2.592 -3.599,5.184 -5.399,7.704 -0.216,0.288 -0.504,0.576 -0.648,0.864 -0.432,1.44 -1.512,2.448 -2.664,3.384 -0.36,1.08 -0.864,2.16 -0.936,3.24 -0.216,3.456 -0.504,6.912 0.432,10.296 0.576,2.088 1.152,4.176 1.728,6.264 0.288,0.864 0.576,1.728 0.792,2.664 0.36,1.368 -0.072,2.664 -0.36,3.96 0,0.072 -0.072,0.072 -0.144,0.144 -0.072,-0.432 -0.072,-0.864 -0.144,-1.224 -0.576,1.872 -1.512,3.528 -2.664,5.112 -1.8,2.376 -3.816,4.464 -5.976,6.48 -2.375,2.16 -4.967,4.032 -8.279,4.536 0.72,0.072 1.44,0.144 2.088,-0.072 1.224,-0.432 2.376,-0.936 3.528,-1.584 3.023,-1.8 5.327,-4.392 7.631,-6.984 0.936,-1.008 1.728,-2.16 2.664,-3.168 0.072,0 0.072,0.072 0.144,0.072 -0.144,0.432 -0.288,0.864 -0.432,1.296 2.448,-3.168 3.672,-6.48 2.232,-10.512 -0.792,-2.232 -1.44,-4.536 -2.016,-6.84 -1.008,-4.032 -0.72,-8.064 -0.144,-12.168 0.072,-0.504 0,-1.008 0,-1.512 z m 100.576,1.368 v 0 c 1.152,-0.072 1.296,-0.36 0.936,-1.224 -0.144,-0.288 -0.288,-0.576 -0.432,-0.792 -1.224,-2.088 -3.096,-3.528 -5.111,-4.824 -1.512,-1.008 -3.24,-1.224 -4.968,-1.368 -0.36,0 -0.648,0.216 -1.008,0.36 1.584,0.864 3.312,1.008 4.824,2.016 1.512,1.008 2.807,2.232 4.031,3.6 1.296,1.368 1.44,3.24 1.8,5.184 0.864,-1.08 0.36,-1.944 0,-2.808 v 0 z m -3.887,13.104 v 0 c -0.504,1.008 -1.44,1.08 -2.232,0.72 -1.296,-0.504 -2.592,-1.152 -3.672,-1.944 -2.88,-2.232 -4.752,-5.256 -6.192,-8.568 -0.216,-0.576 -0.431,-1.152 -0.431,-1.8 -0.144,-2.52 -0.216,-5.04 2.951,-6.264 -1.872,-0.072 -2.951,0.576 -3.311,1.944 -0.648,2.088 -0.792,4.32 0.144,6.408 1.583,3.528 3.671,6.696 6.767,9.072 1.224,0.936 2.592,1.728 4.176,1.872 0.72,0.072 1.44,0.072 1.872,-0.504 0.647,-0.864 1.439,-1.008 2.375,-1.152 0.864,-0.144 1.584,-0.72 1.656,-1.656 0.072,-1.296 -0.144,-2.52 -0.36,-3.816 -0.072,-0.432 -0.432,-0.864 -0.864,-0.576 0.216,1.152 0.432,2.232 0.576,3.384 0.144,1.872 -0.432,2.304 -2.376,2.088 -0.431,-0.648 -0.144,-1.728 -1.223,-2.304 0.144,0.792 0.288,1.368 0.432,2.016 -0.864,-0.144 -1.44,-0.432 -1.944,-0.864 -3.24,-2.736 -5.544,-6.12 -6.84,-10.152 -0.648,-2.088 -0.504,-4.32 0.936,-6.48 2.952,3.96 4.968,8.208 6.12,12.888 0.072,-0.864 0.072,-1.8 -0.144,-2.592 -1.08,-3.816 -2.808,-7.344 -5.184,-10.44 -0.36,-0.432 -0.72,-0.936 -1.224,-1.224 -0.504,-0.36 -1.152,-0.864 -1.8,-0.288 0.576,0.36 1.152,0.72 1.728,1.08 -1.872,2.952 -2.016,5.904 -0.576,8.856 2.016,4.176 4.392,8.064 8.856,10.224 z m -11.016,-22.104 v 0 c 0.576,-0.792 0.576,-0.792 0.216,-1.8 -1.08,-2.88 -2.519,-5.616 -4.319,-8.208 -4.032,-5.903 -9.216,-10.151 -16.415,-11.447 -0.072,0 -0.072,-0.144 -0.144,-0.288 0.288,-0.144 0.648,-0.288 1.08,-0.504 -0.36,-0.072 -0.432,-0.144 -0.504,-0.144 -2.808,0.576 -5.616,0.288 -8.423,-0.216 -0.144,0 -0.288,0.072 -0.72,0.216 0.504,0.288 0.864,0.432 1.296,0.648 -1.296,0.288 -2.376,0.504 -3.456,0.792 0.576,0.216 1.152,0.216 1.728,0.216 2.159,-0.072 4.319,-0.36 6.479,-0.216 5.832,0.216 10.727,2.664 14.831,6.768 3.168,3.167 5.4,7.055 7.199,11.087 0.288,0.72 0.792,1.44 0.576,2.448 -0.504,-0.288 -0.935,-0.504 -1.511,-0.792 0.576,0.936 0.576,0.936 2.087,1.512 z m -4.103,3.816 v 0 c 0.144,0 0.288,0.072 0.432,0.072 0.144,-0.288 0.432,-0.576 0.432,-0.792 -0.144,-1.08 -0.288,-2.16 -0.648,-3.168 -1.296,-3.384 -3.312,-6.408 -5.472,-9.288 -2.664,-3.455 -5.831,-6.119 -10.079,-7.415 -1.224,-0.36 -2.52,-0.432 -3.816,-0.504 -0.792,-0.072 -0.864,0.36 -0.36,1.296 1.008,-0.72 2.16,-0.504 3.24,-0.216 2.304,0.648 4.464,1.584 6.335,3.096 3.24,2.663 5.688,5.975 7.704,9.575 1.224,2.232 2.664,4.464 2.232,7.272 z M 279.987,97.415 v 0 c 0.072,0.144 0.144,0.216 0.216,0.36 0.504,-0.288 0.936,-0.504 1.44,-0.792 3.239,-1.944 6.695,-3.456 10.439,-4.104 1.224,-0.216 2.448,-0.36 3.671,-0.432 5.4,-0.576 10.8,-0.288 16.127,0.864 0.432,0.072 0.864,0.144 1.296,0.216 -0.144,-0.36 -0.36,-0.648 -0.648,-0.648 -2.52,-0.432 -5.039,-1.08 -7.631,-1.224 -3.672,-0.216 -7.416,-0.216 -11.159,0.288 -4.824,0.648 -9.216,2.304 -13.175,5.04 -0.216,0.144 -0.432,0.432 -0.648,0.576 z m 62.707,19.511 v 0 c 0.288,-0.144 0.36,-0.144 0.36,-0.216 0.072,-0.216 0.072,-0.36 0.072,-0.576 0,-2.304 -0.936,-4.32 -1.944,-6.336 -1.944,-3.816 -4.536,-7.272 -7.559,-10.368 -1.152,-1.223 -2.592,-2.159 -4.032,-3.095 -0.648,-0.432 -1.512,-0.864 -2.52,-0.36 2.88,0.936 5.112,2.591 6.84,4.895 1.583,2.088 3.239,4.104 4.823,6.264 1.872,2.592 3.24,5.472 3.528,8.784 0,0.36 0.216,0.648 0.36,1.008 z m 9.719,-5.184 v 0 c 1.008,-0.216 1.08,-0.792 0.864,-1.296 -0.432,-1.152 -0.864,-2.304 -1.512,-3.384 -1.728,-2.736 -3.528,-5.328 -5.327,-7.992 -0.144,-0.144 -0.288,-0.288 -0.432,-0.432 0,0.576 0.144,1.008 0.36,1.368 1.008,1.584 2.159,3.168 3.167,4.752 1.368,2.088 3.024,4.104 2.88,6.984 z m 11.375,4.176 v 0 c 0.072,-0.072 0.216,-0.072 0.288,-0.144 -0.504,-0.576 -0.936,-1.224 -1.44,-1.8 -1.512,-1.584 -3.311,-2.664 -5.399,-3.384 -0.648,-0.216 -0.936,0 -1.08,0.648 3.312,0.432 5.471,2.592 7.631,4.68 z m 1.08,-0.648 v 0 c 0.792,-0.864 0.792,-1.08 0.216,-1.944 -1.224,-1.584 -2.808,-2.664 -4.679,-3.384 -0.36,-0.144 -0.72,-0.216 -1.08,-0.144 -0.216,0.072 -0.432,0.36 -0.792,0.648 3.671,0.648 5.975,2.376 6.335,4.752 z m -105.76,40.536 v 0 c 1.584,-1.152 2.664,-2.736 3.384,-4.536 -1.224,1.44 -2.592,2.808 -3.384,4.536 z m -13.247,3.24 v 0 c -1.512,-0.072 -2.808,0.576 -3.887,1.584 1.295,-0.504 2.591,-1.08 3.887,-1.584 z m 24.262,-55.152 v 0 c -0.072,-0.072 -0.144,-0.144 -0.288,-0.216 -0.216,0.36 -0.36,0.72 -0.576,1.008 0.072,0.072 0.144,0.072 0.216,0.144 0.216,-0.288 0.432,-0.576 0.576,-0.936 z m -1.511,1.584 v 0 c -0.072,-0.072 -0.144,-0.144 -0.216,-0.216 -0.216,0.216 -0.432,0.432 -0.72,0.576 0.072,0.072 0.072,0.144 0.144,0.144 0.288,-0.216 0.504,-0.36 0.792,-0.576 z"
           inkscape:connector-curvature="0"
           style="fill:#7a563b" />
        <path
           id="path7207"
           d="m 241.758,127.294 c 0,1.224 -0.072,2.376 0,3.456 0.072,1.08 0.432,2.088 1.367,2.808 0.72,0.504 0.72,1.296 0.216,2.016 -2.735,4.032 -6.119,7.416 -10.295,9.936 -0.792,0.432 -1.584,1.08 -2.52,0.288 -0.432,1.008 -0.432,1.008 -2.879,0.144 0.72,1.008 1.656,1.296 2.591,1.224 1.008,-0.144 1.944,0.072 2.88,0.36 2.376,0.792 4.464,0 6.48,-1.224 3.815,-2.376 5.903,-5.904 7.415,-10.008 0.072,-0.288 0.216,-0.576 0.36,-0.864 0,-0.072 0.072,-0.072 0.288,-0.216 0.216,0.504 0.504,0.936 0.648,1.44 0.36,1.224 0.72,2.448 1.08,3.744 0.072,0.36 0.216,0.72 0.144,1.08 -0.432,2.808 -0.648,5.688 -2.376,8.064 -1.008,1.44 -2.232,2.664 -4.32,2.52 -1.655,-0.072 -3.383,0.144 -5.111,-0.072 -1.368,-0.144 -2.664,-0.72 -3.96,-1.152 -0.36,-0.072 -0.648,-0.216 -1.008,-0.36 -0.504,-0.144 -1.008,-0.216 -1.44,-0.504 -2.087,-1.224 -2.519,-1.152 -4.391,0.36 -0.144,0.144 -0.288,0.216 -0.504,0.36 -0.144,-0.144 -0.288,-0.216 -0.36,-0.288 -1.656,-3.6 -4.608,-6.048 -7.776,-8.28 -1.224,-0.864 -2.447,-1.872 -3.815,-3.024 1.296,-0.936 2.303,-1.728 3.599,-2.664 -1.871,-0.072 -2.951,1.224 -4.391,1.656 0.288,-1.368 0.504,-2.592 0.792,-3.816 0.648,-2.448 0.72,-5.04 0.432,-7.56 -0.504,-4.608 -1.368,-9.144 -2.16,-13.752 -0.216,-1.296 -0.72,-2.592 -1.152,-3.888 -0.432,-1.512 -0.864,-3.096 -1.44,-4.608 -0.72,-1.944 -1.584,-3.888 -2.448,-5.832 -1.224,-2.519 -2.52,-5.039 -3.816,-7.631 2.016,-0.288 3.96,-0.72 5.904,-0.864 3.888,-0.288 7.847,-0.36 11.735,-0.576 1.44,-0.072 2.88,-0.216 4.32,-0.36 3.096,-0.36 6.263,-0.72 9.359,-1.296 4.32,-0.864 8.567,-1.872 12.815,-2.88 1.44,-0.36 2.88,-0.792 4.392,-1.296 1.872,3.24 4.175,6.192 6.911,9 -1.224,0.216 -2.376,0.504 -3.456,0.72 -0.287,0.072 -0.575,0.144 -0.935,0.144 -3.744,0.792 -6.336,3.024 -8.136,6.335 -1.512,2.88 -2.664,5.76 -2.952,9.072 -0.072,0.792 -0.432,1.584 -0.864,2.304 -2.375,3.816 -3.599,7.848 -3.095,12.384 0.072,0.36 0.072,0.72 0.144,1.08 0.144,1.08 0.504,2.016 1.656,2.376 z m -4.752,11.808 v 0 c -2.016,0 -3.168,-1.08 -4.176,-2.592 -0.288,-0.504 -0.576,-0.936 -0.864,-1.44 -0.144,-0.216 -0.288,-0.432 -0.576,-0.792 -0.144,1.512 1.224,3.816 2.736,4.68 0.792,0.504 1.8,1.008 2.808,0.144 z"
           inkscape:connector-curvature="0"
           style="fill:#fdddcf" />
        <path
           id="path7209"
           d="m 173.435,100.222 c 0.216,-0.216 0.432,-0.504 0.576,-0.72 0.432,-0.72 1.008,-0.792 1.728,-0.432 0.072,0.072 0.216,0.072 0.288,0.144 1.511,0.576 2.231,0.432 2.951,-0.935 0.288,-0.576 0.648,-0.792 1.152,-1.08 0.72,-0.36 1.296,-0.936 2.16,-1.584 0.288,0.144 0.792,0.288 1.296,0.504 0.936,0.36 1.44,0.216 1.944,-0.648 0.288,-0.504 0.432,-1.008 0.72,-1.512 0.432,-0.936 0.72,-1.008 1.728,-0.648 0.36,0.144 0.72,0.36 1.08,0.576 0.936,0.36 1.439,0.216 1.799,-0.72 0.36,-0.936 0.936,-1.656 1.8,-2.232 0.432,-0.288 0.648,-0.864 0.792,-1.368 0.648,-1.944 1.008,-2.16 3.024,-1.728 0.504,0.072 1.008,0.288 1.584,0.432 0,0.36 -0.144,0.72 0,1.008 0.432,0.792 0.36,1.512 -0.072,2.304 -0.432,0.864 -0.144,1.44 0.792,2.088 0.36,0.216 0.72,0.432 1.08,0.648 0.288,0.216 0.576,0.432 0.864,0.72 -0.504,1.224 0,2.088 1.008,2.736 0.72,0.504 1.224,1.079 1.296,2.087 0.072,0.576 0.503,1.224 0.935,1.728 1.008,1.008 1.8,2.16 1.728,3.672 0,0.216 0,0.432 0.144,0.576 0.864,1.224 1.224,2.736 1.944,4.104 0.216,0.36 0.36,0.72 0.36,1.152 0,1.08 0.36,2.016 0.792,2.952 0.216,0.36 0.288,0.936 0.144,1.296 -0.36,0.648 -0.072,1.08 0.216,1.584 0.432,0.648 0.792,1.296 1.224,2.088 -0.216,0.216 -0.36,0.36 -0.504,0.576 -0.576,0.792 -0.576,1.08 0.072,1.944 0.648,0.792 1.44,1.512 0.648,2.736 -0.144,0.288 0.216,1.008 0.432,1.44 0.504,1.008 0.864,1.944 -0.216,2.952 -0.216,0.216 -0.216,0.792 -0.072,1.152 0.216,0.648 0.576,1.296 0.936,2.016 -0.072,0.216 -0.144,0.504 -0.288,0.648 -0.936,0.648 -0.72,1.44 -0.504,2.448 0.216,0.864 -0.288,1.872 -0.504,2.808 -0.144,0.432 -0.36,0.864 -0.576,1.224 -0.864,-0.288 -1.8,-0.576 -2.664,-0.864 -1.224,-0.432 -2.304,-0.288 -3.456,0.288 -0.144,0.072 -0.288,0.144 -0.431,0.216 -1.872,1.224 -3.744,1.296 -5.688,0.216 -0.576,-0.288 -1.224,-0.72 -2.16,-0.216 0.288,0.216 0.432,0.432 0.648,0.504 0.792,0.288 1.656,0.576 2.448,0.864 1.008,0.432 2.016,0.504 3.024,0.072 0.792,-0.36 1.656,-0.648 2.447,-1.008 1.44,-0.576 2.808,-0.504 4.176,0.288 0.576,0.36 1.224,0.792 1.8,0.288 1.368,0.936 2.664,1.8 3.96,2.736 0.288,0.216 0.504,0.432 0.648,0.72 0.288,0.432 0.432,1.08 0.792,1.296 1.08,0.576 1.655,1.512 2.087,2.592 0.144,0.288 0.36,0.504 0.648,0.648 0.504,0.288 0.792,0.648 0.936,1.296 0.072,0.504 0.504,1.008 0.936,1.368 1.152,1.008 1.728,2.376 2.232,3.672 -1.368,0.504 -2.736,0.936 -4.104,1.44 -0.504,0.216 -1.08,0.432 -1.583,0.504 -1.008,0.216 -1.368,-0.144 -1.152,-1.152 0.144,-0.648 0.288,-1.296 0.504,-1.944 0.144,-0.576 0.36,-1.152 0.432,-1.8 -1.44,1.296 -1.584,2.952 -1.728,4.824 -0.288,0.072 -0.648,0.216 -1.008,0.288 -2.016,0.36 -2.376,-0.072 -2.304,-2.088 0,-0.648 0.144,-1.224 0.216,-1.872 0.072,-0.576 0.144,-1.08 0.216,-1.728 -0.792,1.008 -1.296,3.6 -0.936,5.472 -1.008,0.36 -1.728,-0.144 -2.808,-0.576 0.072,-2.16 0.216,-4.32 0.288,-6.696 -1.08,1.584 -1.008,3.168 -0.936,4.752 0,0.72 0.288,1.512 -0.432,2.088 0.36,0.432 0.72,0.864 0.936,1.296 1.152,2.16 2.88,3.672 5.112,4.536 1.224,0.504 2.232,1.152 3.168,2.088 0.863,0.863 1.799,1.655 2.879,2.591 -1.296,0.072 -2.304,-0.288 -3.311,-0.648 -0.792,-0.288 -1.584,-0.72 -2.448,-0.936 -1.656,-0.432 -2.592,-1.583 -3.24,-2.879 -0.864,-1.872 -2.232,-3.312 -3.816,-4.392 -2.448,-1.656 -4.607,-3.6 -6.551,-5.832 -1.224,-1.44 -2.952,-2.592 -4.464,-3.816 -2.52,-1.944 -5.039,-3.816 -7.559,-5.688 -3.6,-2.736 -7.632,-4.68 -11.735,-6.48 -1.08,-0.504 -2.16,-1.008 -3.024,-1.44 -0.432,-2.88 -0.72,-5.544 -1.152,-8.136 -0.648,-3.312 -1.8,-6.48 -3.672,-9.288 -1.224,-1.872 -2.592,-3.744 -3.744,-5.688 -1.439,-2.448 -3.167,-4.608 -5.111,-6.624 -0.216,-0.288 -0.432,-0.504 -0.864,-1.008 0.648,0 1.008,0 1.368,0 0.144,0 0.288,0.144 0.432,0.216 1.728,0.576 2.304,0.288 2.952,-1.44 0.288,0 0.648,-0.072 0.792,0.072 2.951,2.52 5.903,5.184 7.631,8.784 0.432,0.936 0.792,1.872 1.224,2.808 0.216,0.432 0.504,0.864 0.792,1.224 0.648,-0.288 0.648,-0.648 0.36,-1.08 -1.656,-3.312 -3.312,-6.696 -6.048,-9.288 -0.864,-0.792 -1.656,-1.728 -2.448,-2.52 1.08,-1.296 1.152,-1.296 2.448,-0.72 0.72,0.36 1.44,0.504 2.16,-0.072 0.36,-0.288 0.936,-0.36 1.44,-0.432 0.576,-0.072 1.152,-0.072 1.656,-0.072 -0.144,0.648 0.216,1.152 0.576,1.656 2.592,3.456 5.255,6.912 7.775,10.44 0.72,1.008 1.296,2.088 1.872,3.096 -1.944,-1.584 -3.744,-3.24 -5.544,-4.896 -0.504,-0.432 -1.079,-0.792 -1.655,-1.08 -0.216,-0.144 -0.648,-0.072 -0.792,0.072 -0.144,0.144 -0.216,0.576 -0.144,0.792 0.288,0.72 0.288,1.656 1.368,2.016 0.504,0.144 0.863,0.72 1.223,1.152 3.384,4.248 6.192,8.784 8.784,13.464 1.872,3.384 3.456,6.912 4.535,10.656 0,0.072 -0.072,0.144 -0.144,0.216 -0.216,-0.144 -0.504,-0.288 -0.791,-0.432 0.575,1.872 0.791,2.16 1.799,2.664 0.432,-0.792 0.36,-0.792 0.216,-1.512 -1.008,-3.816 -2.519,-7.416 -4.391,-10.872 -3.168,-5.976 -6.768,-11.664 -11.159,-16.992 0.216,0.072 0.36,0.072 0.503,0.144 2.808,2.376 5.544,4.824 7.56,7.92 0.288,0.432 0.504,1.08 1.44,0.792 -0.072,-0.432 -0.144,-0.792 -0.288,-1.152 -0.432,-0.936 -0.864,-1.872 -1.44,-2.736 -2.16,-3.312 -4.464,-6.624 -6.696,-9.864 -0.863,-1.296 -1.799,-2.592 -2.735,-3.888 0.576,0.072 1.008,0.288 1.368,0.576 2.015,1.872 4.103,3.672 5.903,5.76 2.376,2.664 4.536,5.472 6.624,8.424 2.303,3.312 4.535,6.696 6.551,10.152 1.656,2.808 2.952,5.832 4.32,8.712 0.216,0.504 0.432,1.08 1.296,0.72 0,-0.576 0.072,-1.224 0,-1.8 -0.792,-5.76 -2.52,-11.304 -5.112,-16.488 -2.304,-4.536 -5.04,-8.784 -8.279,-12.672 -1.44,-1.728 -3.024,-3.456 -4.536,-5.112 -0.792,-0.864 -0.792,-0.936 -0.072,-2.159 0.648,0.431 1.368,0.791 1.872,1.295 2.088,2.232 4.32,4.464 6.191,6.912 3.24,4.176 6.048,8.712 8.064,13.68 1.224,3.024 2.592,5.976 2.808,9.288 0,0.216 0.072,0.432 0.144,0.576 0.144,-0.072 0.288,-0.216 0.432,-0.288 0,-0.72 0.072,-1.44 0,-2.088 -0.144,-0.792 -0.36,-1.584 -0.648,-2.376 -3.096,-8.784 -7.632,-16.704 -13.895,-23.616 -1.224,-1.368 -2.592,-2.52 -3.96,-3.671 -1.08,-0.864 -1.8,-0.576 -2.376,0.719 -0.288,0.72 -0.072,1.368 0.36,1.872 0.648,0.72 1.296,1.296 1.944,2.016 3.6,3.672 6.623,7.776 9.215,12.168 3.168,5.328 5.4,11.016 6.48,17.136 0.072,0.504 0.144,1.008 0.144,1.512 -1.008,-1.368 -1.8,-2.808 -2.52,-4.248 -2.88,-5.544 -6.408,-10.728 -10.223,-15.696 -2.376,-3.024 -4.896,-5.904 -7.488,-8.64 -1.368,-1.512 -3.167,-2.664 -4.751,-3.96 -0.504,-0.432 -1.152,-0.792 -1.872,-0.432 z"
           inkscape:connector-curvature="0"
           style="fill:#f9c1bf" />
        <path
           id="path7211"
           d="m 261.556,168.981 c 2.088,-0.936 4.32,-1.8 6.408,-2.808 3.383,-1.728 6.767,-3.527 10.079,-5.399 2.52,-1.368 4.967,-2.88 7.415,-4.392 2.016,-1.296 4.032,-2.664 5.976,-4.104 0.936,-0.648 1.656,-1.584 2.52,-2.304 3.959,-3.312 8.567,-5.04 13.607,-5.76 4.535,-0.72 9.143,-1.08 13.679,-0.936 3.527,0.144 6.983,0.576 10.511,0.936 1.224,0.144 2.448,0.216 3.671,0.36 0.288,0 0.576,-0.072 1.224,-0.144 -0.504,-0.504 -0.792,-0.72 -1.008,-1.008 1.44,-0.792 2.952,-1.584 4.464,-2.376 0.504,0.792 1.152,1.728 1.728,2.664 -3.6,2.88 -7.631,4.536 -11.951,5.832 -2.376,0.72 -4.68,1.08 -7.128,1.008 -1.08,-0.072 -2.159,0.144 -3.239,0.36 -3.6,0.864 -7.272,1.008 -10.872,1.44 -0.791,0.072 -1.583,0.432 -2.303,0.792 -3.168,1.584 -5.904,3.744 -8.64,5.904 -4.319,3.384 -8.567,6.767 -12.887,10.151 -1.224,1.008 -2.376,2.16 -3.671,3.096 -1.944,1.44 -3.96,2.808 -5.904,4.176 -0.72,0.504 -1.296,0.648 -2.16,0.288 -0.792,-0.36 -1.728,-0.36 -2.52,-0.648 -1.871,-0.504 -3.815,-0.936 -5.615,-1.656 -1.584,-0.648 -2.664,-1.872 -2.952,-3.672 -0.072,-0.504 -0.288,-1.008 -0.504,-1.8 z"
           inkscape:connector-curvature="0"
           style="fill:#fdddcf" />
        <path
           id="path7213"
           d="m 215.84,141.262 c -1.08,0.288 -1.872,-0.288 -2.664,-0.936 -1.944,-1.512 -2.016,-1.512 -1.296,-3.888 0.36,-1.08 0.432,-1.944 -0.36,-3.096 0.288,-0.216 0.576,-0.288 0.864,-0.504 0.576,-0.576 0.72,-1.224 0.288,-1.944 -0.576,-1.008 -1.008,-1.944 0.072,-2.88 0.144,-0.144 0.144,-0.648 0.072,-1.008 -0.144,-0.648 -0.432,-1.224 -0.648,-1.872 -0.072,-0.36 -0.288,-0.792 -0.144,-1.008 0.576,-1.08 0.072,-1.872 -0.576,-2.664 -0.216,-0.288 -0.432,-0.648 -0.864,-1.296 0.432,-0.216 0.864,-0.432 1.296,-0.648 -0.432,-0.936 -0.72,-1.656 -1.08,-2.376 -0.36,-0.72 -0.72,-1.296 -0.36,-2.16 0.144,-0.36 -0.216,-0.936 -0.432,-1.44 -0.432,-0.864 -0.936,-1.728 -0.72,-2.808 0.072,-0.288 0,-0.648 -0.144,-0.864 -0.36,-0.576 -0.936,-1.08 -0.576,-1.944 0.072,-0.216 -0.36,-0.648 -0.648,-0.936 -0.792,-0.72 -1.152,-1.512 -1.152,-2.592 0.072,-1.296 -0.792,-2.232 -1.584,-3.096 -0.576,-0.648 -1.296,-1.224 -1.08,-2.304 0.072,-0.36 -0.36,-0.791 -0.648,-1.151 -0.359,-0.432 -0.863,-0.792 -1.295,-1.152 -0.36,-0.288 -0.72,-0.648 -0.504,-1.224 0.36,-0.792 -0.144,-1.296 -0.648,-1.728 -0.432,-0.36 -0.936,-0.576 -1.44,-0.936 -0.648,-0.36 -0.936,-0.936 -0.36,-1.512 0.504,-0.576 0.504,-1.224 0.288,-1.728 -0.504,-1.008 0,-1.296 0.792,-1.584 2.232,2.592 4.103,5.472 5.471,8.568 0.576,1.296 1.224,2.519 1.872,3.743 1.44,2.52 1.944,5.328 2.808,7.992 0.792,2.52 1.584,5.04 2.016,7.632 0.864,5.256 2.16,10.584 1.44,15.984 -0.288,2.016 -0.72,4.032 -1.152,6.048 -0.072,0.288 -0.072,0.576 -0.144,0.936 1.08,0.72 2.16,1.512 3.24,2.232 v 0 z"
           inkscape:connector-curvature="0"
           style="fill:#ffffff" />
        <path
           id="path7215"
           d="m 281.499,141.118 c 1.871,0.936 3.599,1.728 5.255,2.664 0.36,0.216 0.648,0.72 0.648,1.08 0.288,3.24 -0.216,6.408 -1.944,9.216 -0.288,0.432 -0.36,1.008 -0.648,1.44 -0.072,0.216 -0.36,0.36 -0.504,0.504 -2.735,2.088 -5.831,3.528 -8.783,5.184 -0.936,0.504 -1.872,1.152 -2.808,1.656 -2.664,1.296 -5.327,2.519 -7.919,3.815 -1.152,0.504 -2.232,1.08 -3.384,1.512 -0.216,0.072 -0.504,0.072 -1.152,0.072 0.936,-0.864 1.944,-1.224 2.448,-1.944 -0.072,-0.072 -0.144,-0.216 -0.216,-0.288 -0.576,0.288 -1.224,0.648 -1.8,0.936 -1.152,0.576 -1.152,0.576 -2.232,-0.72 0.432,-0.072 0.864,-0.144 1.224,-0.216 1.44,-0.36 2.88,-0.72 4.32,-1.152 2.232,-0.719 4.536,-1.439 6.695,-2.303 3.168,-1.152 5.832,-3.096 7.776,-5.904 1.152,-1.728 2.304,-3.456 3.312,-5.184 0.575,-0.936 0.719,-1.944 0.791,-3.096 0.144,-2.448 -0.504,-4.752 -1.151,-7.272 z"
           inkscape:connector-curvature="0"
           style="fill:#7a563b" />
        <path
           id="path7217"
           d="m 201.801,88.559 c 4.607,-1.08 9.215,-1.008 13.751,-1.08 4.751,-0.072 9.503,-0.216 14.182,-1.008 2.088,-0.36 4.032,-1.152 6.048,-1.8 4.32,-1.296 8.711,-2.664 13.031,-4.032 1.584,-0.504 2.016,-0.072 2.52,1.152 0.144,0.36 0.288,0.792 0.432,1.224 -2.376,1.152 -4.896,1.656 -7.416,2.304 -5.759,1.512 -11.591,2.304 -17.494,3.096 -4.392,0.648 -8.784,0.432 -13.103,0.648 -2.376,0.144 -4.68,0.576 -7.056,0.864 -1.08,0.144 -2.16,0.288 -3.24,0.288 -1.007,0 -1.079,-1.008 -1.655,-1.656 z"
           inkscape:connector-curvature="0"
           style="fill:#ffffff" />
        <path
           id="path7219"
           d="m 274.803,95.543 c -0.072,1.152 -0.792,1.872 -1.584,2.664 -3.312,3.095 -6.551,6.191 -9.071,9.935 -1.656,2.52 -3.024,5.184 -3.816,8.064 -0.72,2.664 -1.44,5.256 -2.016,7.92 -0.504,2.448 -0.432,4.896 0,7.416 0,0.216 0,0.432 -0.144,0.72 -0.144,-0.36 -0.36,-0.72 -0.432,-1.08 -0.648,-2.736 -1.224,-5.544 -1.944,-8.28 -0.287,-1.296 -0.071,-2.448 0.72,-3.528 0.576,-0.792 1.152,-1.584 1.728,-2.376 0.144,-0.216 0.216,-0.432 0.072,-0.792 -0.36,0.36 -0.792,0.72 -1.152,1.08 -0.36,0.432 -0.648,0.936 -1.08,1.584 -0.288,-0.792 -0.144,-1.512 -0.072,-2.16 0.072,-0.648 0.216,-1.368 0.144,-2.016 -0.072,-1.296 0.648,-2.16 1.584,-2.88 0.072,-0.072 0.144,0 0.36,0 -0.072,0.36 -0.144,0.648 -0.288,1.008 0.144,-0.072 0.288,-0.072 0.36,-0.144 0.504,-0.36 0.504,-1.44 1.512,-1.152 0.36,-0.576 0.792,-1.08 1.008,-1.728 0.648,-1.584 1.512,-2.88 2.592,-4.176 0.576,-0.72 1.152,-1.44 2.016,-1.512 0.144,-0.504 0.216,-0.936 0.432,-1.224 0.576,-0.72 1.224,-1.368 1.944,-1.944 2.159,-1.728 4.319,-3.455 6.551,-5.183 0.144,-0.144 0.36,-0.144 0.576,-0.216 0.072,0.072 0.072,0.072 0.144,0.144 z"
           inkscape:connector-curvature="0"
           style="fill:#7a563b" />
        <path
           id="path7221"
           d="m 257.452,106.342 c -0.144,0.504 -0.216,0.72 -0.288,1.008 -0.504,1.512 -0.936,3.024 -1.511,4.536 -0.216,0.504 -0.504,1.008 -0.792,1.44 -0.792,1.224 -1.8,2.448 -2.448,3.744 -1.656,3.456 -3.096,6.912 -4.68,10.44 -0.432,1.008 -1.08,1.944 -1.728,3.24 -0.72,-2.448 -0.864,-4.608 -0.576,-6.768 0.36,-2.952 1.44,-5.688 2.808,-8.28 1.224,-2.304 2.448,-4.536 4.464,-6.264 1.368,-1.224 2.736,-2.448 4.751,-3.096 z"
           inkscape:connector-curvature="0"
           style="fill:#fdddcf" />
        <path
           id="path7223"
           d="m 254.789,122.83 c 0.648,2.664 1.295,5.4 1.943,8.064 0.072,0.36 0.144,0.72 0.288,1.008 0.864,1.8 0.864,3.672 1.152,5.616 0.144,1.152 0.216,2.304 0.504,3.384 0.432,1.512 0.36,3.096 0.144,4.608 -0.288,2.376 -1.656,3.96 -3.599,5.184 -1.368,0.864 -2.808,1.512 -4.248,2.16 -0.864,0.432 -1.728,0.504 -2.952,0.144 0.576,-0.432 1.008,-0.72 1.44,-1.008 2.808,-1.728 4.824,-4.176 6.264,-7.128 1.007,-2.016 0.791,-4.104 0.143,-6.192 -1.007,-3.024 -2.087,-6.048 -2.447,-9.288 -0.144,-1.152 -0.432,-2.304 -0.288,-3.384 0.144,-1.152 0.792,-2.16 1.224,-3.312 0.144,0 0.288,0 0.432,0 z"
           inkscape:connector-curvature="0"
           style="fill:#7a563b" />
        <path
           id="path7225"
           d="m 341.038,127.078 c 0.792,2.592 2.304,4.752 4.104,6.696 0.432,0.432 0.792,1.008 1.368,1.296 2.303,1.224 4.607,2.52 6.983,3.6 1.512,0.72 3.168,0.432 4.68,-0.144 0.504,-0.216 1.08,-0.36 1.656,-0.576 0.288,0.576 0.576,1.08 0.864,1.584 -0.216,0.144 -0.432,0.216 -0.72,0.432 -0.144,-0.504 -0.216,-0.864 -0.288,-1.296 -0.648,0.072 -0.792,0.504 -0.648,0.936 0.288,0.936 -0.36,1.224 -0.936,1.512 -1.08,0.504 -2.232,0.648 -3.456,0.576 -2.16,-0.216 -4.248,-0.792 -6.12,-2.16 0.072,0.216 0.072,0.576 0.216,0.72 1.08,0.936 2.232,1.656 3.672,1.944 2.088,0.432 4.176,0.576 6.264,-0.288 0.288,-0.144 0.648,-0.144 1.224,-0.288 -1.08,1.512 -2.304,2.376 -3.96,2.448 -1.296,0.072 -2.592,0.216 -3.816,0 -1.944,-0.288 -3.528,-1.296 -4.392,-3.312 -1.007,0.432 -0.143,1.152 -0.143,2.016 -0.936,-1.08 -1.656,-1.872 -2.376,-2.664 0.072,-0.072 0.072,-0.144 0.144,-0.216 0.36,0.216 0.72,0.504 1.008,0.72 -2.664,-4.104 -5.544,-8.064 -5.04,-13.392 z"
           inkscape:connector-curvature="0"
           style="fill:#7a563b" />
        <path
           id="path7227"
           d="m 244.565,115.27 c 0.216,-0.864 0.504,-1.656 0.576,-2.52 0.288,-2.808 1.728,-4.68 4.104,-6.192 3.456,-2.16 7.055,-4.032 10.943,-5.328 0.216,-0.072 0.504,-0.072 1.008,-0.216 -1.224,1.584 -2.016,3.168 -3.744,4.032 -1.871,0.936 -3.671,2.16 -5.327,3.384 -3.744,2.736 -6.624,6.264 -8.208,10.656 -0.72,1.944 -1.151,3.96 -1.727,5.904 -0.144,0.36 -0.216,0.792 -0.432,1.512 -0.36,-0.72 -0.72,-1.08 -0.792,-1.584 -0.792,-4.104 0.072,-7.92 2.231,-11.52 0,1.584 0,3.168 0,4.968 0.936,-0.792 0.432,-1.656 0.576,-2.448 0.144,-0.792 0.216,-1.512 0.288,-2.304 0.072,-0.792 0.216,-1.584 0.432,-2.376 0.072,1.296 -0.36,2.592 -0.36,3.96 0.144,0 0.288,0 0.432,0 z"
           inkscape:connector-curvature="0"
           style="fill:#7a563b" />
        <path
           id="path7229"
           d="m 247.373,106.702 c 1.872,-3.312 4.176,-5.904 7.56,-7.488 3.167,-1.511 6.479,-2.375 9.863,-3.023 0.144,0 0.288,0.072 0.648,0.144 -1.44,1.584 -2.448,3.383 -4.608,4.031 -4.68,1.44 -8.999,3.528 -13.031,6.264 -0.072,0.072 -0.216,0 -0.432,0.072 z"
           inkscape:connector-curvature="0"
           style="fill:#7a563b" />
        <path
           id="path7231"
           d="m 267.604,93.959 c -0.576,1.08 -1.152,1.44 -2.016,1.512 -3.168,0.36 -6.264,1.224 -9.288,2.376 -4.751,1.727 -8.063,5.039 -10.223,9.575 -0.288,0.576 -0.576,1.152 -0.936,1.656 -0.144,-0.072 -0.216,-0.072 -0.36,-0.144 0.288,-1.152 0.432,-2.304 0.792,-3.384 0.288,-0.936 0.648,-1.872 0.936,-2.808 0.864,-2.808 2.952,-4.535 5.544,-5.327 3.168,-1.008 6.479,-1.728 9.719,-2.52 1.8,-0.432 3.6,-0.648 5.76,-1.008 z"
           inkscape:connector-curvature="0"
           style="fill:#7a563b" />
        <path
           id="path7233"
           d="m 245.645,133.342 c 0.864,1.44 0.72,2.664 0.072,4.104 -0.936,1.944 -1.728,3.96 -3.311,5.544 -1.728,1.656 -3.384,3.312 -5.76,3.96 -1.368,0.36 -2.592,0.288 -4.032,-0.288 5.616,-3.168 9.936,-7.488 13.031,-13.248 z"
           inkscape:connector-curvature="0"
           style="fill:#7a563b" />
        <path
           id="path7235"
           d="m 285.746,155.374 c 2.52,-5.328 2.664,-7.416 2.448,-11.088 1.8,0 7.487,1.224 9.359,1.944 -1.872,1.512 -3.815,3.024 -5.759,4.536 -1.944,1.512 -3.888,2.952 -6.048,4.68 z m 4.68,-10.512 v 0 c -0.072,1.08 0,2.16 -0.288,3.168 -0.288,1.008 -0.936,1.872 -1.512,2.736 1.584,-0.936 2.52,-2.376 2.592,-4.176 0.072,-0.648 0.144,-1.44 -0.792,-1.728 z"
           inkscape:connector-curvature="0"
           style="fill:#7a563b" />
        <path
           id="path7237"
           d="m 277.755,156.238 c -1.224,1.872 -2.52,3.24 -4.32,3.96 -4.176,1.656 -8.351,3.24 -12.599,4.751 -0.504,0.144 -1.008,0.144 -1.512,0.36 -1.512,0.576 -2.52,0 -3.527,-1.368 2.591,-0.647 5.111,-0.935 7.775,-1.079 -0.144,-0.504 -0.216,-0.792 -0.288,-1.224 5.04,-0.936 9.359,-3.672 14.471,-5.544 z"
           inkscape:connector-curvature="0"
           style="fill:#7a563b" />
        <path
           id="path7239"
           d="m 249.317,132.046 c 1.08,-1.8 2.088,-3.528 3.096,-5.256 0.072,0.072 0.216,0.072 0.216,0.144 0,3.312 0.792,6.408 1.8,9.504 0.432,1.368 0.72,2.808 1.08,4.176 0.359,1.512 0.144,2.88 -0.576,4.176 -0.792,1.584 -1.8,3.024 -3.312,4.104 0.216,-0.36 0.432,-0.72 0.648,-1.08 1.728,-2.448 2.592,-5.112 1.368,-7.992 -0.792,-2.016 -1.944,-3.888 -2.952,-5.76 -0.432,-0.792 -1.008,-1.44 -1.512,-2.088 z"
           inkscape:connector-curvature="0"
           style="fill:#fdddcf" />
        <path
           id="path7241"
           d="m 249.173,112.39 c -0.432,0.792 -0.864,1.584 -1.296,2.304 -1.296,2.52 -2.52,5.112 -3.024,7.92 -0.432,2.808 -0.432,5.616 0.288,8.424 0.216,0.72 0.288,1.296 -0.288,1.872 -1.656,0 -1.943,0 -2.159,-1.656 -0.216,-1.584 -0.36,-3.24 -0.072,-4.752 0.791,-5.112 2.519,-9.864 5.975,-13.896 0.144,-0.144 0.288,-0.288 0.432,-0.432 0.072,0.072 0.144,0.072 0.216,0.144 z"
           inkscape:connector-curvature="0"
           style="fill:#7a563b" />
        <path
           id="path7243"
           d="m 365.732,108.574 c 0.216,-0.504 0.36,-1.368 0.72,-1.44 0.864,-0.144 1.872,-0.144 2.736,0.072 0.576,0.144 1.08,0.648 1.44,1.08 1.8,2.16 3.024,4.536 2.88,7.488 -0.144,1.944 -1.008,3.456 -2.592,4.464 -0.576,0.36 -1.224,0.576 -1.944,0.288 0.072,-0.864 0.576,-1.368 1.296,-1.8 2.808,-1.8 3.096,-3.96 0.72,-6.336 -1.44,-1.512 -3.096,-2.88 -5.184,-3.816 z"
           inkscape:connector-curvature="0"
           style="fill:#7a563b" />
        <path
           id="path7245"
           d="m 248.669,131.326 c 0.288,-1.08 0.576,-2.16 0.864,-3.24 0.432,-1.656 1.008,-3.24 1.44,-4.896 0.36,-1.224 0.936,-2.376 1.224,-3.672 0.288,-1.296 1.08,-2.448 1.656,-3.672 0.216,-0.504 0.648,-0.936 1.08,-1.368 0.144,0.936 0.072,1.872 0,2.808 -0.072,0.936 -0.072,1.944 -0.288,2.88 -0.144,0.648 -0.432,1.296 -0.72,1.872 -1.584,2.952 -3.168,5.904 -4.752,8.856 -0.072,0.144 -0.216,0.288 -0.36,0.504 -0.072,0 -0.072,-0.072 -0.144,-0.072 z"
           inkscape:connector-curvature="0"
           style="fill:#7a563b" />
        <path
           id="path7247"
           d="m 343.63,143.134 c 0.144,0.36 0.36,0.792 0.504,1.224 -2.304,-1.224 -4.176,-4.824 -3.888,-7.704 0.216,0.432 0.432,0.72 0.504,1.008 0.864,1.872 1.944,3.528 3.456,4.896 0.72,0.648 1.512,1.296 2.664,1.08 -3.816,-2.808 -6.192,-6.624 -5.904,-9.432 0.72,1.512 1.44,2.88 2.16,4.32 0.936,1.872 2.304,3.24 3.888,4.536 0.504,0.36 0.935,0.504 1.655,0.504 0.792,0 1.656,0.72 2.448,1.152 -1.512,1.656 -2.808,1.872 -4.535,0.648 -0.936,-0.72 -1.8,-1.512 -2.664,-2.232 -0.072,0 -0.144,0.072 -0.216,0.072 z"
           inkscape:connector-curvature="0"
           style="fill:#7a563b" />
        <path
           id="path7249"
           d="m 215.84,141.262 c 0.288,0.288 0.576,0.648 0.935,0.936 1.872,1.584 3.888,3.024 5.76,4.68 1.296,1.152 2.304,2.592 2.808,4.392 -0.72,0.576 -1.368,1.08 -2.088,1.656 -0.36,-0.792 -0.576,-1.512 -1.008,-2.16 -0.432,-0.648 -1.08,-1.08 -1.512,-1.728 -0.288,-0.432 -0.36,-1.008 -0.576,-1.656 -0.936,-0.504 -1.872,-1.224 -2.232,-2.52 -0.072,-0.288 -0.36,-0.648 -0.648,-0.792 -1.223,-0.576 -1.583,-1.512 -1.367,-2.736 v 0 z"
           inkscape:connector-curvature="0"
           style="fill:#ffffff" />
        <path
           id="path7251"
           d="m 221.887,161.854 c -2.952,-0.216 -5.256,-2.232 -5.903,-5.112 1.799,-0.648 3.671,-1.296 5.543,-1.944 -0.288,1.296 -0.72,2.448 -0.72,3.6 0.072,1.152 0.648,2.304 1.008,3.456 z"
           inkscape:connector-curvature="0"
           style="fill:#f9c1bf" />
        <path
           id="path7253"
           d="m 288.338,99.502 c -0.504,0.216 -1.008,0.504 -1.44,0.72 -3.816,1.728 -7.631,3.384 -11.375,5.04 -0.288,0.144 -0.576,0.216 -0.936,0.144 1.296,-1.656 2.376,-3.312 4.68,-3.816 2.879,-0.576 5.687,-1.368 8.495,-2.088 0.216,-0.072 0.432,0 0.576,0 0,0 0,0 0,0 z"
           inkscape:connector-curvature="0"
           style="fill:#7a563b" />
        <path
           id="path7255"
           d="m 262.348,104.542 c -1.44,2.88 -2.664,5.616 -5.616,7.2 0,-0.432 0,-0.792 0.072,-1.08 0.432,-1.224 0.936,-2.376 1.368,-3.6 0.432,-1.152 1.224,-1.872 2.448,-2.088 0.432,-0.072 0.864,-0.216 1.656,-0.432 z"
           inkscape:connector-curvature="0"
           style="fill:#7a563b" />
        <path
           id="path7257"
           d="m 264.364,93.311 c -4.824,1.584 -9.863,2.232 -14.831,4.464 1.152,-1.512 2.376,-2.304 3.816,-2.664 2.232,-0.576 4.463,-1.08 6.767,-1.44 1.368,-0.216 2.88,-0.216 4.248,-0.36 z"
           inkscape:connector-curvature="0"
           style="fill:#7a563b" />
        <path
           id="path7259"
           d="m 225.199,153.862 c 0.288,-0.648 0.576,-1.152 0.864,-1.656 -0.144,-0.072 -0.216,-0.072 -0.36,-0.144 -2.592,2.088 -3.312,5.04 -3.24,8.208 -0.864,-0.792 -1.224,-1.8 -0.72,-3.24 0.288,-0.936 0.72,-1.8 1.296,-2.592 1.224,-1.8 2.952,-3.168 4.896,-4.104 0.576,-0.288 1.296,-0.216 1.943,-0.36 0,0.072 0.072,0.216 0.072,0.288 -0.863,0.504 -1.727,1.008 -2.447,1.584 -0.792,0.576 -1.44,1.224 -2.232,1.944 z"
           inkscape:connector-curvature="0"
           style="fill:#7a563b" />
        <path
           id="path7261"
           d="m 217.783,161.35 c -0.432,-0.072 -1.008,0 -1.295,-0.216 -1.512,-1.152 -2.88,-2.448 -4.032,-4.32 1.008,-0.072 1.8,-0.144 2.304,-0.144 1.08,1.656 2.015,3.168 3.023,4.752 z"
           inkscape:connector-curvature="0"
           style="fill:#f9c1bf" />
        <path
           id="path7263"
           d="m 368.828,111.382 c 0.792,0.792 1.656,1.512 2.304,2.376 1.152,1.44 0.792,2.808 -1.008,3.96 -0.072,-1.152 0,-2.232 -0.288,-3.312 -0.216,-1.008 -0.72,-1.944 -1.152,-2.952 0.072,-0.072 0.072,-0.072 0.144,-0.144 z"
           inkscape:connector-curvature="0"
           style="fill:#ffffff" />
        <path
           id="path7265"
           d="m 265.66,99.862 c -0.648,0.936 -1.224,1.8 -1.872,2.592 -0.144,0.216 -0.432,0.432 -0.72,0.504 -0.792,0.216 -1.584,0.36 -2.592,0.576 1.368,-1.944 2.448,-3.888 5.112,-3.672 z"
           inkscape:connector-curvature="0"
           style="fill:#7a563b" />
        <path
           id="path7267"
           d="m 363.716,106.342 c -0.648,-2.16 -1.296,-4.248 -2.088,-6.624 1.8,1.8 2.952,3.6 3.456,5.976 -0.288,0.144 -0.432,0.288 -0.72,0.36 -0.216,0.072 -0.504,0.144 -0.72,0.216 z"
           inkscape:connector-curvature="0"
           style="fill:#7a563b" />
        <path
           id="path7269"
           d="m 264.148,99.142 c 0.936,-1.007 1.728,-1.799 2.52,-2.591 0.864,-0.864 1.944,-0.36 3.167,-0.432 -1.511,1.872 -3.167,2.879 -5.687,3.023 z"
           inkscape:connector-curvature="0"
           style="fill:#7a563b" />
        <path
           id="path7271"
           d="m 213.176,159.91 c -1.8,-0.792 -3.24,-1.8 -4.248,-3.672 1.152,0.144 2.016,0.288 2.664,1.296 0.504,0.792 1.08,1.584 1.656,2.376 z"
           inkscape:connector-curvature="0"
           style="fill:#f9c1bf" />
        <path
           id="path7273"
           d="m 247.157,132.838 c -0.648,-1.008 -0.432,-1.872 0.144,-2.808 0.576,-0.936 1.008,-2.016 1.584,-2.952 -0.648,1.872 -0.864,3.888 -1.8,5.688 z"
           inkscape:connector-curvature="0"
           style="fill:#7a563b" />
        <path
           id="path7275"
           d="m 271.563,94.823 c -0.216,0.36 -0.504,0.648 -0.72,1.008 -0.504,-0.288 -0.792,-0.504 -1.152,-0.648 -0.36,-0.144 -0.72,-0.144 -1.151,-0.216 0.216,-0.864 0.719,-0.792 1.367,-0.648 0.576,0.144 1.152,0.288 1.728,0.504 0,0 -0.072,-0.072 -0.072,-0.072 z"
           inkscape:connector-curvature="0"
           style="fill:#7a563b" />
        <path
           id="path7277"
           d="m 267.892,99.646 c -1.08,1.08 -2.088,2.088 -3.168,3.096 0.648,-1.656 2.016,-3.024 3.168,-3.096 z"
           inkscape:connector-curvature="0"
           style="fill:#7a563b" />
        <path
           id="path7279"
           d="m 259.108,162.646 c -1.224,0.144 -2.376,0.36 -3.599,0.504 0,-0.073 -0.072,-0.216 -0.072,-0.288 0.576,-0.144 1.151,-0.288 1.799,-0.36 0.648,-0.072 1.296,0 1.944,0 0,0.072 -0.072,0.072 -0.072,0.144 z"
           inkscape:connector-curvature="0"
           style="fill:#7a563b" />
        <path
           id="path7281"
           d="m 367.604,111.814 c 1.008,1.008 1.512,2.16 1.584,3.744 -0.576,-1.368 -1.08,-2.592 -1.584,-3.744 z"
           inkscape:connector-curvature="0"
           style="fill:#7a563b" />
        <path
           id="path7283"
           d="m 361.7,137.014 c -0.216,0.648 -0.36,1.08 -0.504,1.512 -0.791,-0.864 -0.791,-0.864 0.504,-1.512 z"
           inkscape:connector-curvature="0"
           style="fill:#7a563b" />
        <path
           id="path7285"
           d="m 247.085,132.766 c 0,0.36 -0.072,0.792 -0.072,1.152 -0.072,0 -0.144,0 -0.216,0.072 -0.144,-0.216 -0.288,-0.504 -0.36,-0.72 -0.072,-0.216 -0.072,-0.504 -0.144,-0.864 0.36,0.216 0.576,0.288 0.792,0.432 0,0 -0.072,-0.072 -0.072,-0.072 z"
           inkscape:connector-curvature="0"
           style="fill:#7a563b" />
        <path
           id="path7287"
           d="m 254.501,162.646 c -0.144,0 -0.36,0 -0.504,0 0.072,-0.144 0.144,-0.216 0.216,-0.36 0.072,-0.072 0.144,0.072 0.288,0.072 0,0.072 0,0.144 0,0.216 z"
           inkscape:connector-curvature="0"
           style="fill:#7a563b" />
        <!-- DELETED -->
        <!-- DELETED -->
        <!-- DELETED -->
        <!-- DELETED -->
        <!-- DELETED -->
        <!-- DELETED -->
        <!-- DELETED -->
        <!-- DELETED -->
        <!-- DELETED -->
        <!-- DELETED -->
        <!-- DELETED -->
        <!-- DELETED -->
        <!-- DELETED -->
        <!-- DELETED -->
        <!-- DELETED -->
        <!-- DELETED -->
        <!-- DELETED -->
        <!-- DELETED -->
        <!-- DELETED -->
        <!-- DELETED -->
        <!-- DELETED -->
        <!-- DELETED -->
        <!-- DELETED -->
        <!-- DELETED -->
        <!-- DELETED -->
        <!-- DELETED -->
        <!-- DELETED -->
        <!-- DELETED -->
        <!-- DELETED -->
        <!-- DELETED -->
        <!-- DELETED -->
        <!-- DELETED -->
        <!-- DELETED -->
        <!-- DELETED -->
        <!-- DELETED -->
        <!-- DELETED -->
        <!-- DELETED -->
        <!-- DELETED -->
        <!-- DELETED -->
        <!-- DELETED -->
        <!-- DELETED -->
        <!-- DELETED -->
        <!-- DELETED -->
        <!-- DELETED -->
        <!-- DELETED -->
        <!-- DELETED -->
        <path
           id="path7383"
           d="m 40.389,124.846 c -0.072,1.872 -0.72,3.528 -2.232,5.112 -3.24,3.24 -6.911,5.832 -10.871,8.208 -0.576,0.36 -1.08,0.648 -1.656,0.936 0.648,-0.576 1.224,-1.224 1.872,-1.8 l 12.887,-12.384 z"
           inkscape:connector-curvature="0"
           style="fill:#c7eafb" />
        <path
           id="path7385"
           d="m 343.054,165.381 c -0.648,-0.288 -1.296,-0.648 -2.016,-0.936 0.072,-0.144 0.072,-0.216 0.144,-0.36 0.648,0.289 1.296,0.648 2.016,0.936 -0.072,0.144 -0.144,0.216 -0.144,0.36 z"
           inkscape:connector-curvature="0"
           style="fill:#ffffff" />
        <path
           id="path7387"
           d="m 363.86,120.238 c -0.288,-0.648 -0.576,-1.296 -0.936,-1.872 -0.288,-0.576 -0.72,-1.08 -1.08,-1.584 1.44,0.864 2.088,2.088 1.944,3.528 v 0 z"
           inkscape:connector-curvature="0"
           style="fill:#7a563b" />
      </g>
      <path
         id="path7391"
         d="m 301.873,140.038 c 0.144,2.808 -2.16,5.112 -4.896,4.896 -2.303,-0.144 -4.175,-2.016 -4.319,-4.32 -0.144,-2.808 2.16,-5.112 4.895,-4.896 2.304,0.144 4.176,2.016 4.32,4.32 z"
         inkscape:connector-curvature="0"
         style="fill:url(#Gradient_2)" />
      <path
         id="path7393"
         d="m 301.873,104.326 c 0.144,2.808 -2.16,5.112 -4.896,4.896 -2.303,-0.144 -4.175,-2.016 -4.319,-4.32 -0.144,-2.808 2.16,-5.112 4.895,-4.896 2.304,0.144 4.176,2.016 4.32,4.32 z"
         inkscape:connector-curvature="0"
         style="fill:url(#Gradient_3)" />
      <!-- DELETED -->
      <!-- DELETED -->
      <!-- DELETED -->
      <!-- DELETED -->
      <!-- DELETED -->
    </g>
  </g>
</svg>
