<?xml version="1.0"?>
<svg xmlns:rdf="http://www.w3.org/1999/02/22-rdf-syntax-ns#" xmlns="http://www.w3.org/2000/svg" xmlns:cc="http://web.resource.org/cc/" xmlns:dc="http://purl.org/dc/elements/1.1/" xmlns:svg="http://www.w3.org/2000/svg" viewBox="0 0 999 904">
  <path d="m153 821l4 2 4 1 4 2 5 1 5 1 5 1h6l5 1h6l6 1h6l6 1h5l6 1h6l5 1h7l10-2 13-2 15-4 17-5 18-5 19-6 19-6 19-5 19-7 18-5 16-5 14-3 12-3 10-2 6-1 5 3 2 4-3 7-4 7-6 7-5 6-5 5-2 1h1l4 1h5l7 1h9l10 1 10 2h11l12 1 12 1 11 1 11 1 11 1 10 1h8l7 1h20l15-1 18-1 19-1 21-1 21-1 21-2 22-2 20-1 19-1 17-2 13-1 11-1h9l45 42h3l3-1 4-1 5-2 6-1 7-2 7-2 8-2 9-3 8-2 9-3 10-2 9-3 10-2 10-3 10-103-2-4-4-8-6-14-6-16-7-17-6-17-5-15-3-12v-5l1-5 2-7 2-7 3-7 4-7 4-7 4-7-5-2-3-3-4-2-4-2-4-2-4-3-4-2-4-2-11-8-9-8-6-9-4-9-3-8-3-7-4-6-5-5-4-2-3-2-5-1-4-1-6-1-5-1-5-1h-6l-6-1h-6l-5-1-6-1h-6l-6-1h-5l-6-1h-7l-10 2-13 3-14 4-17 4-18 5-19 6-20 6-18 6-19 6-18 5-16 5-14 4-13 3-9 2h-6l-6-2-1-4 2-7 5-7 6-7 5-6 5-5 1-2h-4l-5-1h-8l-8-1-10-1-10-1-11-1-12-1-12-1h-11l-11-1-11-1-10-1-8-1h-42l-18 1-19 1-21 1-21 2-22 1-22 2-20 1-19 1-16 2-14 1-11 1h-9l-45-42h-1l-2 1-4 1-5 2-7 1-7 2-8 2-9 3-10 2-10 3-11 3-10 3-11 3-11 3-11 3-11 3-5 3-5 2-5 3-4 3-5 3-5 2-4 3-4 2-3 31 32 152-3 24 6 3 7 4 8 6 9 5 10 6 11 6 11 7 10 6 12 7 8 9 6 9 4 8 3 8 3 7 4 7 5 5z" fill="#8c0000"/>
  <path d="m224 216h2l7-2 9-2 12-2 15-3 16-4 18-4 19-4 19-4 18-4 19-4 17-3 15-3 13-2 11-2 7-1h14l9-1h20l10-1h21l10-1h26l6-1h9l-1 2-4 5-4 7-4 8-3 8-1 8 2 4 5 2 5-1 9-3 10-5 12-6 14-7 15-7 16-9 15-8 17-9 16-8 15-7 14-7 13-6 11-4 8-2 7-1h9l11-1h31l9 1 9 1 7 3 5 5 4 6 4 7 4 8 5 9 6 8 9 7 11 8 7 3 8 3 7 4 7 4 7 3 7 4 6 3 6 3 6-10 7-10 6-9 6-9 5-8 4-5 2-4 1-2v-4l-2-10-2-15-3-18-3-17-4-16-5-12-4-5-3-1-4-2-5-3-6-4-7-5-6-5-8-5-7-5-7-6-6-4-7-5-5-4-4-3-4-3-2-2h-2l-5 2-6 2-8 2-11 3-11 4-12 3-12 4-13 5-12 3-12 3-11 3-9 3-7 2-6 1h-3l-2-1h-4l-6-1h-7l-9-1h-9l-10-1h-9l-10-1h-10l-8-1h-15l-4-1h-6l-2 1h-11l-6 1h-8l-8 1-8 1h-9l-9 1h-8l-7 1h-7l-5 1h-8l-2 1-4 1-5 1-6 2-7 2-8 2-8 3-9 3-9 3-9 2-9 3-9 3-9 3-8 2-7 2-7 2-7 2-7 1-8 1-9 1h-8l-9 1-9-1h-10l-9-1-9-1-9-2-8-3-8-3-7-4-6-4-6-4-7-5-9-3-12-3-13-3-15-2-16-1-16-1h-77l-10 1h-16l-81 48 32 117-9 42 7-3 9-4 11-5 11-5 13-6 12-6 14-6 13-6 12-6 12-5 10-5 10-5 8-3 6-3 3-2 2-1 45 39z" fill="#a01e21"/>
  <path d="m141 434l57 28 2-1 7-2 10-4 13-5 15-5 18-7 19-6 20-8 20-7 21-6 19-8 18-6 17-5 14-4 11-4 8-2 8-2 8-1 10-2 10-2 11-2 11-2 12-2 11-2 12-2 10-2 9-2 9-1 7-2h5l3-1h2l-2 2-2 5-4 7-3 8-2 9v6l3 4 6 1 6-2 8-4 11-6 12-8 15-9 14-10 17-10 16-11 16-11 17-10 15-10 14-8 14-8 11-6 9-4 7-2h5l6-1 5-1 6-1 6-2 6-1 6-1 5-1 6-1 6-1 5-1h15l4 1 4 1 6 3 6 5 6 6 5 7 7 7 9 6 10 6 14 4 8 2 7 2 9 2 7 2 7 2 8 2 7 2 6 1 2-13 1-10 1-7v-2l-4-2-7-6-10-8-13-8-11-9-10-7-6-5-1-1-1-2v-3l1-4 2-5 3-5 3-7 4-7 5-8-6-3-6-3-7-4-7-3-7-4-7-4-8-3-7-3-11-8-9-7-6-8-5-9-4-8-4-7-4-6-5-5-7-3-9-1-9-1h-31l-11 1h-9l-7 1-8 2-11 4-13 6-14 7-15 7-16 8-17 9-15 8-16 9-15 7-14 7-12 6-10 5-9 3-5 1-5-2-2-4 1-8 3-8 4-8 4-7 4-5 1-2h-9l-6 1h-26l-10 1h-21l-10 1h-20l-9 1h-14l-7 1-11 2-13 2-15 3-17 3-19 4-18 4-19 4-19 4-18 4-16 4-15 3-12 2-9 2-7 2h-2l-45-39-2 1-3 2-6 3-8 3-10 5-10 5-12 5-12 6-13 6-14 6-12 6-13 6-11 5-11 5-9 4-7 3-26 113 20 38-9 100 4-1 4-1 5-1 4-1 5-2 4-1 5-1 5-1 9-5 8-5 9-6 8-5 8-4 8-5 7-4 7-5 7-3 5-4 5-3 5-2 4-2 2-2 2-1z" fill="#c94749"/>
  <path d="m851 271l-4-1-4-1h-15l-5 1-6 1-6 1-5 1-6 1-6 1-6 2-6 1-5 1-6 1h-5l-7 2-9 4-11 6-14 8-14 8-15 10-17 10-16 11-16 11-17 10-14 10-15 9-12 8-11 6-8 4-6 2-6-1-3-4v-6l2-9 3-8 4-7 2-5 2-2h-2l-3 1h-5l-7 2-9 1-9 2-10 2-12 2-11 2-12 2-11 2-11 2-10 2-10 2-8 1-8 2-8 2-11 4-14 4-17 5-18 6-19 8-21 6-20 7-20 8-19 6-18 7-15 5-13 5-10 4-7 2-2 1-57-28-2 1-2 2-4 2-5 2-5 3-5 4-7 3-7 5-7 4-8 5-8 4-8 5-9 6-8 5-9 5 11-3 11-3 11-3 11-3 10-3 11-3 10-3 10-2 9-3 8-2 7-2 7-1 5-2 4-1 2-1h1l45 42h9l11-1 14-1 16-2 19-1 20-1 22-2 22-1 21-2 21-1 19-1 18-1h42l8 1 10 1 11 1 11 1h11l12 1 12 1 11 1 10 1 10 1 8 1h8l5 1h4l-1 2-5 5-5 6-6 7-5 7-2 7 1 4 6 2h6l9-2 13-3 14-4 16-5 18-5 19-6 18-6 20-6 19-6 18-5 17-4 14-4 13-3 10-2h7l6 1h5l6 1h6l6 1 5 1h6l6 1h6l5 1 5 1 6 1 4 1 5 1 3 2 4 2 5 5 4 6 3 7 3 8 4 9 6 9 9 8 11 8 4 2 4 2 4 3 4 2 4 2 4 2 3 3 5 2 4-7 3-6 2-3 1-2-1-5-4-11-5-17-6-19-5-20-5-17-3-13v-7l3-14 3-27 4-34 2-33-6-1-7-2-8-2-7-2-7-2-9-2-7-2-8-2-14-4-10-6-9-6-7-7-5-7-6-6-6-5-6-3z" fill="#d69e9e"/>
  <path d="m881 852l-45-42h-9l-11 1-13 1-17 2-19 1-20 1-22 2-21 2-21 1-21 1-19 1-18 1-15 1h-20l-7-1h-8l-10-1-11-1-11-1-11-1-12-1-12-1h-11l-10-2-10-1h-9l-7-1h-5l-4-1h-1l2-1 5-5 5-6 6-7 4-7 3-7-2-4-5-3-6 1-10 2-12 3-14 3-16 5-18 5-19 7-19 5-19 6-19 6-18 5-17 5-15 4-13 2-10 2h-7l-5-1h-6l-6-1h-5l-6-1h-6l-6-1h-6l-5-1h-6l-5-1-5-1-5-1-4-2-4-1-4-2-5-5-4-7-3-7-3-8-4-8-6-9-8-9-12-7-10-6-11-7-11-6-10-6-9-5-8-6-7-4-6-3-12 108 46 74 97 4 163-24 141 13 85-9 144-40 244 25 43-27 2-19-10 3-10 2-9 3-10 2-9 3-8 2-9 3-8 2-7 2-7 2-6 1-5 2-4 1-3 1h-3z" fill="#600000"/>
  <path d="m11 499l-1 12 4-2 4-3 5-2 5-3 4-3 5-3 5-2 5-3-5 1-5 1-4 1-5 2-4 1-5 1-4 1-4 1z" fill="#a01e21"/>
  <path d="m235 382l-46 24-12 29 9 23 161 2-34-38-78-40z"/>
  <path d="m306 446l-13-19-26-11-26-17-17 10-10 1-18 9v21l1 2 3 3 5 4 6 2h5l9-1h23l12-1h20l26-3z" fill="#a36b6b"/>
  <path d="m38 698l165-13 141 41 1-1 2-1 4-1 5-2 7-2 7-3 9-2 9-3 9-3 10-3 11-3 10-3 11-2 11-3 10-1 10-1 10-1 11-1 12-2 11-1 13-1 12-2 12-1 12-2 12-2 10-1 9-1 8-1 7-1 6-1h4l167 18 121 7 41 94-232-35-139 83-114 15-318-24-112-65 5-69z" fill="#b75638"/>
  <path d="m130 707l-4 8 7 4 4-6-2-8-5 2z" fill="#753500"/>
  <path d="m585 730l-9-12 3-5 9 3-3 14z" fill="#723300"/>
  <path d="m725 731l-4 8 8 4 4-6-2-8-6 2z" fill="#753500"/>
  <path d="m806 719l-9-11 3-5 9 3-3 13z" fill="#723300"/>
  <path d="m211 777v9l8 1 1-7-4-7-5 4z" fill="#753500"/>
  <path d="m852 724l-13-7 1-6 9-1 3 14z" fill="#723300"/>
  <path d="m152 730l6-8-2-3-6 2 2 9z" fill="#723300"/>
  <path d="m119 737l-7-8 2-4 6 3-1 9z" fill="#723300"/>
  <path d="m254 781l-4 8 8 4 3-6-2-8-5 2z" fill="#753500"/>
  <path d="m622 724l6-8-1-4-7 2 2 10z" fill="#723300"/>
  <path d="m247 815l-7-8 2-3 6 2-1 9z" fill="#723300"/>
  <path d="m603 706l6-9-2-3-6 2 2 10z" fill="#723300"/>
  <path d="m214 735l7-8-2-4-6 2 1 10z" fill="#723300"/>
  <path d="m571 786l-7-8 2-3 6 2-1 9z" fill="#723300"/>
  <path d="m346 827l-5 9 9 5 4-7-1-8-7 1z" fill="#600000"/>
  <path d="m109 767l-5 9 9 5 5-6-2-9-7 1z" fill="#753500"/>
  <path d="m166 213l-5-34-23-7-26 41 8 21 26 364-8 157h28l21-170 656-18 36 203 16-3-21-203 10-288 16-31-21-26-42 10-5 39 29 13-24 250h-28l-14 1h-18l-20 1h-22l-23 1-26 1h-27l-28 1-29 1h-30l-31 1-30 1h-31l-30 1h-30l-29 1h-29l-27 1h-50l-22 1h-37l-15-1h-21l-6-1h-2l-2-15-4-34-5-47-5-52-6-53-5-46-3-32-1-12 15-37z"/>
  <path d="m218 447l-39 16-7 26 10 52 94 8 151 5h16l8-1h19l10-1h20l9-1h9l8-1h6l4-1h3l2-1h4l5-1 6-1 6-1 8-1 8-1 8-1h9l8-1 8-1 8-1h12l5-1h95l44-2 62-5 14-37-3-39-31-10h-38l-14 1h-64l-16 1h-58l-7 1h-8l-10 1-10 2-11 2-12 2-12 2-11 2-12 2-11 2-10 2-9 2-7 2-6 1h-3l-1 1-115-16-154-8z"/>
  <path d="m237 465l-35 15-7 23 10 47 84 7 136 4h22l8-1h27l9-1h16l7-1h5l4-1h3l2-1h3l4-1 6-1h6l7-1 7-1 8-1h7l8-1 7-1h7l6-1h94l40-3 57-5 11-32-2-36-28-9h-14l-9 1h-67l-15 1h-72l-7 1-9 1-9 2-11 1-10 2-11 2-11 2-10 2-10 2-9 2-8 1-6 2-5 1-3 1h-1l-103-15-139-7z" fill="#d69e9e"/>
  <path d="m222 352l-25 35 26-4-4 42-8 39 2-1 3-3 5-4 7-6 5-5 6-6 4-4 2-4v21l-2 18v9l27-47 16 48 7-53 18 7 45 35 172 124 51-12 86-163-321-42 9-17-28-23-17-25-46-4-40 45z"/>
  <path d="m318 408l208 164 44-13 50-125-288-39-14 13z" fill="#dd9e5e"/>
  <path d="m250 351l16 38 27 10 31-21 7-20-29-23v-11l-42 3-10 24z" fill="#b75638"/>
  <path d="m376 446l163 34 23 30 13-35 1-7 2-18-1-23-6-23-3-3-5-1h-6l-6 1-6 1-5 2-3 1h-2l-110 27-49 14z" fill="#b75638"/>
  <path d="m275 360l6-28-5 2v10l-1 16z" fill="#723300"/>
  <path d="m382 354h68l11 1 10-1h29l2-1 5-1 8-2 9-3 11-3 11-3 9-3 8-3 5-2 2-1h34l8 1h7l7 1h6l7 1h8l2 1h3l4 2 6 2 7 3 8 3 7 3 6 3 4 2 2 1 4 1 5 2 6 2 6 1 7 3 8 2 7 2 7 1 8 2 6 2 6 1 4 1 5 1 2 1h1l62 34 1 28 3 63 2 63v33l-1 3-1 3-2 4-2 4-4 5-5 4-7 5-10 6-7 2-12 3-15 2-18 1h-20l-22 1h-68l-21-1h-20l-18-1h-15l-12-1h-215l16-227 15-57z"/>
  <path d="m407 383h1l3-1h11l8-1h8l9-1 10-1h9l10-1 9-1 8-1h7l6-1h4l2-1 4-1h8l9-1 10-1 10-1 9-1 7-1 5-2 5-1h35l12 1 12 1 7 1h5l3 1 6 2 7 3 6 2 6 3 6 2 4 2 5 2 9 3 13 3 13 3 13 3 11 3 8 2h3l56 28 1 24 2 52 2 54v27l-1 2-1 3-1 3-2 3-4 4-4 4-7 4-8 5-7 2-11 2-13 1-17 1-17 1h-81l-19-1h-18l-16-1h-24l-6-1h-188l14-189 14-47z" fill="#b75638"/>
  <path d="m432 432l94 75 1 1 3 2 5 4 6 4 8 6 9 5 10 7 9 6 10 7 10 6 9 6 8 5 8 5 6 3 4 2 2 1h14l7-1h9l9-1 10-1 10-1h11l9-1 9-1h8l7-1h9l37-63-7-44-35-37-107-28-64-19-26 16-60 5-57-2 5 34z" fill="#993819"/>
  <path d="m799 580l-11-10 3-5 10 2-2 13z" fill="#723300"/>
  <path d="m492 554l-10-10 2-5 10 2-2 13z" fill="#723300"/>
  <path d="m760 609l8-11-3-5-9 3 4 13z" fill="#723300"/>
  <path d="m426 539l9-11-3-4-10 3 4 12z" fill="#723300"/>
  <path d="m450 591l9-12-3-4-9 3 3 13z" fill="#723300"/>
  <path d="m333 380l28-36 76 10-41 303-89-5 26-272z"/>
  <path d="m351 397l25-33 42 2-37 263-54 2 24-234z" fill="#d69e9e"/>
  <path d="m155 188l-2 21-6 20-24-5 16-5 4-10 12-21z" fill="#600000"/>
  <path d="m882 234l2 12-7 14-10 7-18-2-5-9 13 4 14-8 11-18z" fill="#600000"/>
  <path d="m143 359l18 251 19-58-37-193z" fill="#600000"/>
  <path d="m869 353l-2 33-3 66-2 65-1 29 2 41-16-43 22-191z" fill="#600000"/>
  <path d="m430 92l135-22 10 135 2 94-158 4 11-211z"/>
  <path d="m490 131l19 35 3 43-19 10-46-5 17 33 42 8 38-31 3-33-17-46-40-14z" fill="#d69e9e"/>
  <path d="m515 245l-10-9 2-5 9 1-1 13z" fill="#723300"/>
  <path d="m527 194l9-13-3-5-9 5 3 13z" fill="#723300"/>
  <path d="m528 224l8-12-3-5-9 5 4 12z" fill="#723300"/>
  <path d="m419 93l-34 169-17 49 22-4 9 11 19-5 20 4-10-36 3-120-1-69-11 1z" fill="#d69e9e"/>
  <path d="m556 69l22 192-3 52 21-12 12 7 17-11 20-4-19-29-30-112-30-82-10-1z" fill="#d69e9e"/>
  <path d="m623 529l-10-13 4-5 10 3-4 15z" fill="#600000"/>
  <path d="m546 487l-11-12 3-6 12 4-4 14z" fill="#600000"/>
  <metadata>
    <rdf:RDF>
      <cc:Work>
        <dc:format>image/svg+xml</dc:format>
        <dc:type rdf:resource="http://purl.org/dc/dcmitype/StillImage"/>
        <cc:license rdf:resource="http://creativecommons.org/licenses/publicdomain/"/>
        <dc:publisher>
          <cc:Agent rdf:about="http://openclipart.org/">
            <dc:title>Openclipart</dc:title>
          </cc:Agent>
        </dc:publisher>
        <dc:title>A person sleeping</dc:title>
        <dc:date>2006-12-29T10:52:25</dc:date>
        <dc:description>Converted to SVG from clipart on &#x201C;PC f&#xF6;r alla&#x201D; CD 3-2003.</dc:description>
        <dc:source>http://openclipart.org/detail/2423/a-person-sleeping-by-liftarn</dc:source>
        <dc:creator>
          <cc:Agent>
            <dc:title>liftarn</dc:title>
          </cc:Agent>
        </dc:creator>
        <dc:subject>
          <rdf:Bag>
            <rdf:li>bed</rdf:li>
            <rdf:li>clip art</rdf:li>
            <rdf:li>clipart</rdf:li>
            <rdf:li>externalsource</rdf:li>
            <rdf:li>image</rdf:li>
            <rdf:li>media</rdf:li>
            <rdf:li>night</rdf:li>
            <rdf:li>pc for alla</rdf:li>
            <rdf:li>people</rdf:li>
            <rdf:li>png</rdf:li>
            <rdf:li>public domain</rdf:li>
            <rdf:li>sleeping</rdf:li>
            <rdf:li>svg</rdf:li>
          </rdf:Bag>
        </dc:subject>
      </cc:Work>
      <cc:License rdf:about="http://creativecommons.org/licenses/publicdomain/">
        <cc:permits rdf:resource="http://creativecommons.org/ns#Reproduction"/>
        <cc:permits rdf:resource="http://creativecommons.org/ns#Distribution"/>
        <cc:permits rdf:resource="http://creativecommons.org/ns#DerivativeWorks"/>
      </cc:License>
    </rdf:RDF>
  </metadata>
</svg>
