<svg version="1.1" id="Layer_1" xmlns="http://www.w3.org/2000/svg" xmlns:xlink="http://www.w3.org/1999/xlink" x="0px" y="0px"
	 width="100%" viewBox="0 0 1280 1280"  xml:space="preserve">

<path fill="#FFFFFF" opacity="1.000000" stroke="none" 
	d="
M590.600830,500.527374 
	C588.969727,504.951843 586.997498,509.506042 586.579834,514.198608 
	C586.180298,518.687195 583.038513,522.315186 582.566895,525.761108 
	C581.273865,535.208374 575.746216,542.145508 571.004333,549.291138 
	C558.861694,567.588989 542.753357,582.172485 524.200562,593.829407 
	C518.448120,597.443665 511.353455,598.889771 505.493378,602.372009 
	C496.285309,607.843689 486.148895,610.046997 476.017090,612.521912 
	C475.228058,612.714661 474.427704,612.947327 473.624695,612.983154 
	C465.542908,613.343628 457.449463,614.090088 449.378815,613.900146 
	C437.535980,613.621460 425.679108,612.968567 413.895020,611.800842 
	C410.647034,611.479065 407.772858,608.372314 404.489624,607.220276 
	C396.973114,604.582764 389.185394,602.685120 381.768036,599.814636 
	C378.807465,598.668823 376.665314,595.549744 373.893372,593.718323 
	C372.400024,592.731689 370.097168,592.955078 368.629974,591.947510 
	C366.059021,590.181946 363.879333,587.854675 361.484039,585.823730 
	C354.760315,580.122681 347.518860,574.933594 341.382294,568.661377 
	C331.410004,558.468750 322.890045,547.048706 317.356598,533.732849 
	C315.601959,529.510376 315.444946,524.225708 312.746887,520.891846 
	C309.172333,516.474854 309.117126,511.934784 308.970062,507.028931 
	C302.000458,504.031097 307.022949,496.462402 303.286407,491.874390 
	C301.989441,490.281891 303.858093,486.266052 303.957428,483.346039 
	C304.114624,478.725250 303.999359,474.095245 303.999359,469.242859 
	C338.997345,469.242859 373.572357,469.242859 408.452972,469.242859 
	C410.680206,480.127441 416.196503,488.963806 425.314545,495.359131 
	C432.206421,500.193054 440.061310,502.653687 448.357544,502.378723 
	C465.865112,501.798401 482.050018,491.776611 487.619293,469.218201 
	C522.499451,469.218201 557.432190,469.218201 593.019592,469.218201 
	C592.504272,480.377960 591.993591,491.436798 591.482971,502.495667 
	C591.351746,502.507080 591.220581,502.518494 591.089355,502.529907 
	C591.039307,501.925812 590.989258,501.321716 590.600830,500.527374 
z"/>
<path fill="#FFFFFF" opacity="1.000000" stroke="none" 
	d="
M921.000244,489.763428 
	C919.986084,494.271606 918.894836,498.290070 917.988647,502.349823 
	C917.496582,504.554047 917.514893,506.879395 916.948303,509.057861 
	C916.309814,511.512573 915.253418,513.856873 914.413269,516.261292 
	C913.258484,519.566223 912.552490,523.105713 910.919922,526.151062 
	C906.415039,534.554504 901.637878,542.818726 896.745483,551.004761 
	C894.368713,554.981567 891.744873,558.872192 888.765259,562.407837 
	C886.365784,565.254944 883.124573,567.373718 880.498535,570.052551 
	C871.424377,579.309387 861.106812,586.609741 849.956848,593.396973 
	C836.163391,601.793335 821.360229,606.533508 806.202087,610.825684 
	C802.490967,611.876526 798.422852,611.820190 794.507324,611.966797 
	C783.096191,612.394287 771.679138,612.898193 760.264648,612.890686 
	C755.442932,612.887512 750.089111,612.797668 745.904114,610.802673 
	C734.862549,605.538940 721.802246,606.493530 711.582031,599.157776 
	C710.200134,598.165894 709.166870,596.700806 707.884094,595.553284 
	C707.188599,594.931091 706.352295,594.175720 705.502380,594.063110 
	C699.161987,593.223267 694.538391,589.944824 690.844727,584.804138 
	C689.907288,583.499512 687.323303,583.508545 685.945190,582.369995 
	C672.546997,571.301270 660.033508,559.420410 651.971191,543.663391 
	C648.134827,536.165588 643.568665,528.902649 640.899353,521.004089 
	C639.544006,516.993530 637.545898,513.302063 636.301819,509.286835 
	C636.762146,509.719513 637.222473,510.152161 638.339722,511.202362 
	C637.649170,508.718536 637.190002,507.067108 636.573364,504.849274 
	C636.130737,506.106110 635.867432,506.853821 635.604126,507.601532 
	C635.244324,507.595520 634.884583,507.589478 634.524780,507.583466 
	C633.756042,494.558594 632.987305,481.533752 632.192993,468.075714 
	C667.082275,468.075714 701.623474,468.075714 736.596375,468.075714 
	C739.027893,479.156372 744.795288,488.370789 754.672058,494.700470 
	C761.597168,499.138519 769.293518,501.412933 777.438110,500.875793 
	C797.190430,499.573029 811.307617,487.288879 815.523926,467.780212 
	C850.781128,467.780212 886.185181,467.780212 921.000244,467.780212 
	C921.000244,474.532623 921.000244,481.911743 921.000244,489.763428 
z"/>
</svg>