<?xml version="1.0" encoding="UTF-8"?>
<!DOCTYPE svg PUBLIC "-//W3C//DTD SVG 1.1//EN" "http://www.w3.org/Graphics/SVG/1.1/DTD/svg11.dtd">
<svg version="1.1" xmlns="http://www.w3.org/2000/svg" xmlns:xlink="http://www.w3.org/1999/xlink" x="0" y="0" width="400" height="522" viewBox="0, 0, 400, 522">
  <g id="Layer_1">
    <path d="M38.987,45.613 C38.987,45.614 11.214,34.25 4.905,46.875 C-1.403,59.492 17.53,73.379 17.53,73.379 C17.53,73.379 -0.142,136.494 14.999,178.153 C14.999,178.153 -1.403,195.824 7.429,204.656 C16.261,213.488 51.611,192.032 51.611,192.032 L358.335,204.656 C358.335,204.657 365.905,229.898 386.108,223.59 C406.303,217.273 383.584,188.247 383.584,188.247 C383.584,188.247 397.463,97.366 367.167,64.547 C367.167,64.547 388.631,43.09 372.222,30.465 C361.178,21.967 335.617,44.351 335.617,44.351 C335.617,44.351 185.405,20.371 38.987,45.613" fill="#FFFFFE"/>
    <path d="M38.987,45.613 C38.987,45.614 11.214,34.25 4.905,46.875 C-1.403,59.492 17.53,73.379 17.53,73.379 C17.53,73.379 -0.142,136.494 14.999,178.153 C14.999,178.153 -1.403,195.824 7.429,204.656 C16.261,213.488 51.611,192.032 51.611,192.032 L358.335,204.656 C358.335,204.657 365.905,229.898 386.108,223.59 C406.303,217.273 383.584,188.247 383.584,188.247 C383.584,188.247 397.463,97.366 367.167,64.547 C367.167,64.547 388.631,43.09 372.222,30.465 C361.178,21.967 335.617,44.351 335.617,44.351 C335.617,44.351 185.405,20.371 38.987,45.613 z" fill-opacity="0" stroke="#503422" stroke-width="9.5" stroke-linecap="round" stroke-linejoin="round"/>
    <path d="M83.83,103.927 C83.83,103.927 54.513,142.031 63.308,169.395 C72.103,196.745 117.532,212.865 176.663,214.342 C235.77,215.805 283.166,191.379 283.166,191.379 C283.166,191.379 320.773,180.127 316.869,161.572 C312.965,143.01 296.348,120.529 270.95,137.63 L253.85,161.083 L251.898,120.529 L239.689,88.771 C239.689,88.772 222.092,100.98 208.903,102.947 C195.714,104.899 170.792,97.076 170.792,97.076 C170.792,97.076 85.782,107.348 83.83,103.927" fill="#F8DBB4"/>
    <path d="M109.228,161.572 C109.228,177.225 96.543,189.917 80.891,189.917 C65.238,189.917 52.546,177.225 52.546,161.572 C52.546,145.92 65.238,133.228 80.891,133.228 C96.543,133.228 109.228,145.92 109.228,161.572" fill="#E98C8D"/>
    <path d="M268.011,169.878 C268.011,185.523 255.334,198.215 239.689,198.215 C224.029,198.215 211.345,185.523 211.345,169.878 C211.345,154.224 224.029,141.541 239.689,141.541 C255.334,141.541 268.011,154.224 268.011,169.878" fill="#E98C8D"/>
    <path d="M102.384,203.587 C102.384,203.587 62.329,238.767 42.29,210.921 C42.29,210.921 54.996,204.07 52.546,194.31 C50.112,184.529 31.06,152.777 39.358,132.746 C47.67,112.707 62.811,108.313 62.811,108.313 C62.811,108.313 66.729,45.784 96.046,31.126 C96.046,31.126 133.371,-4.574 226.686,8.133 C320.009,20.846 324.21,68.732 324.21,68.732 L332.032,113.694 C332.032,113.694 360.844,123.967 364.748,135.188 C368.659,146.424 360.347,174.271 352.056,183.564 C343.751,192.841 337.88,201.643 341.784,203.105 C345.696,204.568 359.382,209.443 359.382,209.443 C359.382,209.443 330.065,221.17 315.415,218.246 C300.741,215.314 286.588,206.52 283.166,191.379 C283.166,191.379 309.544,185.998 311.993,176.223 C314.435,166.463 318.339,149.845 308.082,141.051 C297.817,132.255 284.139,127.38 270.46,139.597 L253.85,161.083 L251.898,120.529 L237.225,88.281 C237.225,88.282 212.807,113.694 170.792,97.076 C170.792,97.076 93.107,104.899 83.83,103.927 L69.164,131.773 C69.164,131.773 57.927,148.385 65.26,172.313 C72.593,196.256 102.384,203.587 102.384,203.587" fill="#93724A"/>
    <path d="M121.125,67.716 C112.107,81.156 98.71,87.977 91.2,82.945 C83.696,77.906 84.921,62.914 93.939,49.472 C102.948,36.039 116.353,29.211 123.856,34.25 C131.359,39.283 130.135,54.275 121.125,67.716" fill="#B7985C"/>
    <path d="M157.477,76.191 C152.668,83.376 145.409,86.916 141.26,84.155 C137.119,81.372 137.653,73.289 142.462,66.135 C147.272,58.965 154.53,55.402 158.679,58.178 C162.828,60.962 162.286,69.021 157.477,76.191" fill="#B7985C"/>
    <path d="M86.079,143.351 C86.769,146.654 83.362,150.15 78.486,151.181 C73.603,152.199 69.075,150.358 68.377,147.055 C67.694,143.753 71.086,140.25 75.978,139.225 C80.861,138.201 85.388,140.056 86.079,143.351" fill="#FFFFFE"/>
    <path d="M246.324,151.664 C247.007,154.96 243.608,158.463 238.731,159.494 C233.848,160.504 229.321,158.656 228.63,155.368 C227.933,152.051 231.339,148.554 236.223,147.538 C241.106,146.513 245.634,148.361 246.324,151.664" fill="#FFFFFE"/>
    <path d="M269.473,140.568 C269.473,140.569 296.348,117.598 311.993,149.363 C327.616,181.122 287.07,189.181 287.07,189.181 C204.249,228.028 105.316,214.832 73.068,186.985 C40.82,159.131 83.83,104.402 83.83,104.402 M76.007,103.935 C76.007,103.935 178.607,108.328 219.167,76.554 M168.335,97.566 C168.335,97.566 209.378,114.666 238.22,87.316 L251.898,119.075 L254.34,161.572 L276.806,126.392 M65.245,132.746 C65.245,132.746 32.04,-29.444 250.421,11.599 C377.461,43.832 315.415,164.504 315.415,164.504 M331.038,115.164 C331.037,115.164 362.313,117.598 365.237,143.508 C368.177,169.395 336.426,198.712 340.812,203.603 C345.213,208.471 359.872,209.941 359.872,209.941 C359.871,209.942 298.79,235.844 282.677,192.344 M61.831,108.802 C61.831,108.802 18.836,117.115 48.16,177.211 C57.927,203.603 46.201,207.507 40.82,210.438 C60.376,234.863 101.405,204.07 101.405,204.07 M162.479,135.188 C162.479,135.188 148.808,135.693 147.346,143.01 C145.876,150.336 161.01,153.267 161.01,153.267 M100.106,127.61 C100.106,127.61 102.629,142.127 112.73,142.758 C122.832,143.388 129.771,132.657 129.771,132.657 M190.356,133.288 C190.356,133.288 192.879,145.281 204.242,146.543 C215.605,147.804 221.283,137.08 221.283,137.08 M140.503,170.523 C140.503,170.524 143.657,181.263 156.905,183.787 C170.161,186.31 184.047,171.785 184.047,171.785" fill-opacity="0" stroke="#503422" stroke-width="9.5" stroke-linecap="round" stroke-linejoin="round"/>
    <path d="M81.9,197.086 C81.9,197.086 38.987,198.347 33.94,205.918 C13.737,236.207 -0.142,500.018 42.772,508.865 C85.692,517.697 350.765,521.482 360.858,501.279 C370.96,481.084 363.382,207.18 330.57,200.871 C297.75,194.556 81.9,197.086 81.9,197.086" fill="#EFABAC"/>
    <path d="M50.35,294.275 C40.248,309.424 28.893,479.822 62.974,488.662 C97.056,497.494 321.73,497.494 336.878,483.615 C352.026,469.728 350.765,311.947 329.308,299.322 C307.844,286.705 60.443,279.128 50.35,294.275" fill="#FFFFFE"/>
    <path d="M81.9,197.086 C81.9,197.086 38.987,198.347 33.94,205.918 C13.737,236.207 -0.142,500.018 42.772,508.865 C85.692,517.697 350.765,521.482 360.858,501.279 C370.96,481.084 363.382,207.18 330.57,200.871 C297.75,194.556 81.9,197.086 81.9,197.086 z M50.35,294.275 C40.248,309.424 28.893,479.822 62.974,488.662 C97.056,497.494 321.73,497.494 336.878,483.615 C352.026,469.728 350.765,311.947 329.308,299.322 C307.844,286.705 60.443,279.128 50.35,294.275 z" fill-opacity="0" stroke="#503422" stroke-width="9.5" stroke-linecap="round" stroke-linejoin="round"/>
    <path d="M136.08,202.074 C136.08,214.632 121.251,224.806 102.948,224.806 C84.661,224.806 69.817,214.632 69.817,202.074 C69.817,189.531 84.661,179.355 102.948,179.355 C121.251,179.355 136.08,189.531 136.08,202.074" fill="#F8DBB4"/>
    <path d="M136.08,202.074 C136.08,214.632 121.251,224.806 102.948,224.806 C84.661,224.806 69.817,214.632 69.817,202.074 C69.817,189.531 84.661,179.355 102.948,179.355 C121.251,179.355 136.08,189.531 136.08,202.074 z" fill-opacity="0" stroke="#503422" stroke-width="9.5" stroke-linecap="round" stroke-linejoin="round"/>
    <path d="M278.713,202.074 C278.713,214.632 263.884,224.806 245.582,224.806 C227.294,224.806 212.451,214.632 212.451,202.074 C212.451,189.531 227.294,179.355 245.582,179.355 C263.884,179.355 278.713,189.531 278.713,202.074" fill="#F8DBB4"/>
    <path d="M278.713,202.074 C278.713,214.632 263.884,224.806 245.582,224.806 C227.294,224.806 212.451,214.632 212.451,202.074 C212.451,189.531 227.294,179.355 245.582,179.355 C263.884,179.355 278.713,189.531 278.713,202.074 z" fill-opacity="0" stroke="#503422" stroke-width="9.5" stroke-linecap="round" stroke-linejoin="round"/>
  </g>
</svg>
