<svg viewBox="0 -32.42 430.474 430.474" xmlns="http://www.w3.org/2000/svg" fill="#000000"><g id="SVGRepo_bgCarrier" stroke-width="0"></g><g id="SVGRepo_tracerCarrier" stroke-linecap="round" stroke-linejoin="round"></g><g id="SVGRepo_iconCarrier"><defs><style>.a{fill:#ffffff;}.b{fill:#7a7473;}.c{fill:#211715;}.d{fill:#d8e8f5;}.e{fill:#e2e2e2;}.f{fill:#7abee6;}.g{fill:#fec578;}.h{fill:none;}.i{fill:#73ca6e;}</style></defs><path class="a" d="M390.516,291.4a5.8,5.8,0,0,1,4.2-.871,5.236,5.236,0,0,1,4.311,3.052c1.231,2.806.54,7.581-.906,10.408a15.185,15.185,0,0,1-5.821,6.683,11.163,11.163,0,0,1-5.532,1.2c-.2.451-.346.785-.346.785-.715,1.446-2.4,3.972-2.4,3.972a52.193,52.193,0,0,1-5.452,6.721q.772,2.247,1.547,4.494a20.4,20.4,0,0,0,1.688,3.966c2.008,3.32,6.285,5.074,9.77,6.778.6.292,1.26.587,1.955.883l-1.8,1.322a57.315,57.315,0,0,1-33.761,11.385,32.476,32.476,0,0,1-13.421-2.486,21.093,21.093,0,0,1-9.758-8.749c2.1-.7,4.13-1.4,5.579-2.017a8.1,8.1,0,0,0,4.7-4.168,29.61,29.61,0,0,1-15.293-7.081c-6.337-5.317-9.021-13.611-9.912-22.757-.514-5.273-.946-11-1.631-16.734,0,0-6.73-26.337,27.9-28.767C388.277,256.464,390.516,291.4,390.516,291.4Z"></path><path class="b" d="M354.3,235.224q2-.244,4.081-.349a39.945,39.945,0,0,1,26.539,7.761l5.784,4.1,1.1,1.018c5.561,5.135,8.282,11,10.066,18.165a35.956,35.956,0,0,1,1,11.028c-.263,3.919-.566,13.057-3.4,18.113a7.07,7.07,0,0,0-.447-1.476,5.236,5.236,0,0,0-4.311-3.052,5.8,5.8,0,0,0-4.2.871,11.955,11.955,0,0,1-4.877.357.848.848,0,0,1-.549-.287,8.077,8.077,0,0,1-.775-1.171c-.767-1.315-1.44-2.7-2.206-4.015a44.385,44.385,0,0,0-9.8-11.967c-13.934,0-32.352.013-43.746.023-4.619,4.25-9.566,11.905-10.08,15.019,0,0-.084.51-.212,1.259a66.932,66.932,0,0,1-.353-22.364,43.95,43.95,0,0,1,6.176-15.668,31.225,31.225,0,0,1,2.3-3.09C333,241.714,342.53,236.665,354.3,235.224Z"></path><path class="c" d="M376.647,323.882a70.887,70.887,0,0,0,2.919,7.991,13.481,13.481,0,0,0,4.946,5.27c4.042,2.647,8.723,4.347,13.171,6.16a2.014,2.014,0,0,0,2.461-1.4,2.05,2.05,0,0,0-1.4-2.46A78.383,78.383,0,0,1,387.025,334a9.99,9.99,0,0,1-3.925-3.987,57.931,57.931,0,0,1-2.6-7.2,2.048,2.048,0,0,0-2.46-1.4,2.02,2.02,0,0,0-1.4,2.461Z"></path><path class="c" d="M328.413,345.237c3.211-1.209,6.5-2.187,9.737-3.332a28.962,28.962,0,0,0,4.637-1.874,9.9,9.9,0,0,0,4.012-4.264,2.057,2.057,0,0,0-.717-2.737,2.019,2.019,0,0,0-2.737.718c-1.336,2.83-4.217,3.594-6.96,4.546-3.006,1.043-6.057,1.965-9.035,3.086a2.055,2.055,0,0,0-1.4,2.46,2.015,2.015,0,0,0,2.46,1.4Z"></path><path class="c" d="M390.39,249.169c4.884,4.563,7.742,10.286,9.4,16.7,1.619,6.254,1.239,12.813.412,19.17a25.077,25.077,0,0,1-2.6,9.253c-1.285,2.236,2.17,4.253,3.454,2.019,3.076-5.354,3.363-12.1,3.731-18.116a43.976,43.976,0,0,0-4.3-22.135,33.586,33.586,0,0,0-7.269-9.72c-1.879-1.756-4.714,1.067-2.828,2.829Z"></path><path class="c" d="M342.1,319.46a12.688,12.688,0,0,0,6.067,1.319,12.389,12.389,0,0,0,3.049-.4,22.758,22.758,0,0,0,3.269-1.416,2.007,2.007,0,0,0,.718-2.736,2.061,2.061,0,0,0-2.737-.718c-.448.2-.886.425-1.329.639-.107.052-.214.1-.322.153-.489.231.213-.06-.068.029-.176.056-.349.122-.528.173s-.365.1-.549.134c-.1.02-.191.038-.286.055-.055.009-.389.063-.1.02s-.054,0-.109.009c-.1.011-.2.019-.306.027q-.349.025-.7.03c-.421.007-.843-.008-1.262-.042l-.315-.03c-.286-.026-.031.048.065.013-.133.048-.47-.076-.61-.1a10.477,10.477,0,0,1-1.222-.314c-.09-.03-.179-.06-.267-.093-.06-.021-.36-.1-.082-.024s0,0-.067-.034c-.1-.049-.193-.095-.288-.146a2,2,0,0,0-2.019,3.454Z"></path><path class="c" d="M354.963,297.748c-.48-1.871.089-6.1,3.6-6.292,4.616.245,4.621,5.385,2.953,7.723C360.15,301.093,356.369,301.738,354.963,297.748Z"></path><path class="c" d="M327.511,297.319c-.438-1.876.09-6.115,3.3-6.317,4.227.24,4.224,5.4,2.694,7.744C332.256,300.668,328.793,301.32,327.511,297.319Z"></path><path class="c" d="M341.553,301.736c-.606.991-1.19,2-1.707,3.042a4.677,4.677,0,0,0-.561,1.778,2.627,2.627,0,0,0,.836,2.069,4.029,4.029,0,0,0,1.6.953,6.709,6.709,0,0,0,1.207.178l-.532-.071c.031,0,.061.008.091.013a2.176,2.176,0,0,0,1.541-.2,2,2,0,0,0,.718-2.736,1.936,1.936,0,0,0-1.195-.919c-.322-.051-.645-.082-.968-.122l.532.071a2.021,2.021,0,0,1-.507-.135l.478.2a2.191,2.191,0,0,1-.377-.229l.4.313a2.326,2.326,0,0,1-.313-.3l.313.4a.545.545,0,0,1-.065-.112l.2.478a.864.864,0,0,1-.045-.187l.071.532a1.36,1.36,0,0,1,.006-.2l-.072.532a2.039,2.039,0,0,1,.121-.418l-.2.478a27.15,27.15,0,0,1,1.875-3.393,2.019,2.019,0,0,0-.717-2.736,2.04,2.04,0,0,0-2.737.717Z"></path><path class="c" d="M376.158,328.291a50.055,50.055,0,0,0,7.887-8.3,41.067,41.067,0,0,0,4.1-6.325,2.049,2.049,0,0,0-.718-2.736,2.019,2.019,0,0,0-2.736.717,40.646,40.646,0,0,1-3.963,6.14,47.4,47.4,0,0,1-7.4,7.673,2.015,2.015,0,0,0,0,2.829,2.045,2.045,0,0,0,2.828,0Z"></path><path class="c" d="M385.928,240.909a43.123,43.123,0,0,0-21.734-7.983,52.062,52.062,0,0,0-21.318,2.941,42.857,42.857,0,0,0-16.512,10.665,41.865,41.865,0,0,0-10.111,19.849,63.072,63.072,0,0,0,.2,25.341c.508,2.522,4.364,1.455,3.858-1.063-2.648-13.15-1.577-28.9,7.366-39.6,8.3-9.93,21.18-14.418,33.888-14.249a39.4,39.4,0,0,1,22.345,7.549c2.111,1.482,4.112-1.984,2.019-3.454Z"></path><path class="c" d="M366.144,329.1c-9,3.992-19.583,5.815-28.742,1.247a26.134,26.134,0,0,1-10.537-9.022,34.668,34.668,0,0,1-4.6-13.3c-1.039-6.551-1.242-13.249-2.021-19.837a2.061,2.061,0,0,0-2-2,2.013,2.013,0,0,0-2,2c.754,6.376,1.07,12.807,1.915,19.169a40.256,40.256,0,0,0,4.775,15.206c5.41,9.2,16.211,14.572,26.73,14.482a46.575,46.575,0,0,0,18.5-4.493,2.015,2.015,0,0,0,.717-2.737,2.049,2.049,0,0,0-2.736-.717Z"></path><path class="c" d="M391.526,293.131a4.224,4.224,0,0,1,3.944-.345,2.724,2.724,0,0,1,1.713,1.561c.079.169.083.169.011,0q.093.24.166.487a6.856,6.856,0,0,1,.238,1.058,10.662,10.662,0,0,1,.056,1.813,14.467,14.467,0,0,1-.871,4.377,13.825,13.825,0,0,1-4.456,6.186,6.929,6.929,0,0,1-3.195,1.419,6.1,6.1,0,0,1-3.809-.164,2.056,2.056,0,0,0-2.737.718,2.018,2.018,0,0,0,.718,2.736,11.112,11.112,0,0,0,8.891-.06,14.726,14.726,0,0,0,6.67-6.132,18.87,18.87,0,0,0,2.741-8.314c.226-2.635-.154-5.506-1.955-7.556a8.179,8.179,0,0,0-10.144-1.24c-2.153,1.394-.15,4.859,2.019,3.454Z"></path><path class="a" d="M385.128,281.356l16.949-4.469a34.495,34.495,0,0,1,.516,8.861c-.25,5.656-1.6,8.51-1.6,8.51l-15.217,4.013"></path><path class="c" d="M385.66,283.284l16.949-4.469-2.461-1.4c.044.182.078.366.112.55.041.225.076.451.11.678.026.182.023.186,0,0q.039.312.072.626a43.553,43.553,0,0,1,.159,6.266,28.718,28.718,0,0,1-.8,5.947c-.14.548-.3,1.093-.49,1.624-.024.067-.178.347-.152.4.055.11.232-.524.109-.261l1.2-.919-15.218,4.013c-2.487.655-1.432,4.515,1.064,3.857l12.749-3.362c1.023-.27,2.577-.392,3.35-1.165a2.74,2.74,0,0,0,.594-1.066,16.728,16.728,0,0,0,.682-2.165,38.318,38.318,0,0,0,.935-10.581,27.689,27.689,0,0,0-.611-5.506,2.029,2.029,0,0,0-2.46-1.4L384.6,279.427c-2.487.656-1.432,4.516,1.064,3.857Z"></path><path class="a" d="M376.91,274.329c-17.574-.019-46.172.014-55.678.021a19.193,19.193,0,0,0-6.431,1.1q-1.635.584-3.252,1.213a8.827,8.827,0,0,0-5.589,8.371c.073,4.781.175,9.252.19,15.867a8.822,8.822,0,0,0,8.818,8.805l53.713,0a31.9,31.9,0,0,0,11.459-2.125l.124-.047a8.82,8.82,0,0,0,5.657-8.323c-.055-5.143-.135-11.29-.2-16.185A8.818,8.818,0,0,0,376.91,274.329Z"></path><path class="c" d="M376.91,272.329q-21.087-.022-42.172.009l-8.493.008a60.689,60.689,0,0,0-7.583.177,28.189,28.189,0,0,0-6.429,1.751,13.752,13.752,0,0,0-5,2.846c-2.8,2.719-3.3,6.165-3.239,9.88.064,3.84.127,7.68.15,11.521a17.389,17.389,0,0,0,.6,5.887,10.829,10.829,0,0,0,7.2,6.871,19.522,19.522,0,0,0,5.585.432H364.7a55.266,55.266,0,0,0,10.574-.65c3.837-.74,7.921-1.956,10.4-5.173,2.534-3.29,2.251-7.089,2.2-11.018q-.041-3.379-.085-6.758a60.372,60.372,0,0,0-.144-6.123,10.882,10.882,0,0,0-5.649-8.383,11.364,11.364,0,0,0-5.084-1.275c-2.575-.053-2.575,3.947,0,4a6.918,6.918,0,0,1,6.311,4.224,13.378,13.378,0,0,1,.531,4.946q.041,2.991.078,5.982.039,3.017.072,6.033a10.444,10.444,0,0,1-.557,4.555c-1.456,3.271-5.012,4.225-8.221,4.942a44.032,44.032,0,0,1-9.727.7H316.881a11.665,11.665,0,0,1-4.482-.483,6.982,6.982,0,0,1-4.249-6.569c-.034-3.718-.055-7.435-.117-11.154-.049-2.965-.6-6.281,1.334-8.8a7.957,7.957,0,0,1,3.726-2.495,27.015,27.015,0,0,1,5.8-1.716,51.613,51.613,0,0,1,6.982-.146l7.589-.007q19.559-.017,39.117-.013,2.164,0,4.328,0C379.484,276.332,379.488,272.332,376.91,272.329Z"></path><path class="c" d="M369.025,287.114c.068,5,.013,10,.013,15,0,2.574,4,2.578,4,0,0-5,.055-10-.013-15-.035-2.572-4.035-2.579-4,0Z"></path><path class="c" d="M323.409,284.176c12.2,0,24.409-.035,36.614,0,1.517,0,3.04-.025,4.556.035,2.574.1,2.569-3.9,0-4-3.811-.15-7.646-.043-11.458-.045q-10.135-.006-20.271,0-4.721,0-9.441,0c-2.574,0-2.578,4,0,4Z"></path><path class="a" d="M428.469,362.911a50.523,50.523,0,0,0-9.858-11.6c-6.016-5.041-14.548-9.177-24.209-12.618l-.8.633-1.861,1.466a57.315,57.315,0,0,1-33.761,11.385,32.476,32.476,0,0,1-13.421-2.486,20.856,20.856,0,0,1-10.258-9.722c-1.074.273-2.812.72-3.549.937-7.825,2.3-18.475,6.3-23.947,11.782a40.032,40.032,0,0,0-7.245,8.836"></path><path class="c" d="M334.672,337.814a107.638,107.638,0,0,0-16.155,5.345c-5.569,2.383-10.727,5.4-14.835,9.9a52.935,52.935,0,0,0-6.94,9.578c-1.271,2.243,2.184,4.261,3.454,2.019,2.693-4.756,6.24-9.637,10.746-12.857,5.275-3.768,11.5-6.169,17.637-8.134,2.362-.757,4.751-1.391,7.156-1.995,2.5-.627,1.438-4.486-1.063-3.858Z"></path><path class="c" d="M332.523,340.907c4.4,8.853,13.789,12.8,23.245,13.225a57.907,57.907,0,0,0,28.58-6.429,64.346,64.346,0,0,0,10.666-6.96,2.013,2.013,0,0,0,0-2.829,2.051,2.051,0,0,0-2.829,0,57.648,57.648,0,0,1-20.428,10.4,52.738,52.738,0,0,1-12.93,1.859c-4.534.078-9.259-.37-13.428-2.281a19.391,19.391,0,0,1-9.423-9c-1.146-2.3-4.6-.281-3.453,2.019Z"></path><path class="c" d="M389.19,339.034c14.324,4.653,29.726,11.152,37.552,24.886,1.274,2.237,4.731.224,3.454-2.018-8.362-14.675-24.611-21.744-39.943-26.725-2.454-.8-3.5,3.064-1.063,3.857Z"></path><path class="d" d="M168.506.284,100.9,39.3Q68.448,58.024,36,76.756,18.509,86.848,1.024,96.943C-1.2,98.229.808,101.687,3.043,100.4q31.59-18.237,63.183-36.47Q99.3,44.837,132.381,25.748L170.524,3.737c2.229-1.286.217-4.744-2.018-3.453Z"></path><path class="d" d="M337.989,96.95q-31.2-18.014-62.4-36.023Q242.51,41.832,209.431,22.74L170.524.284c-2.233-1.29-4.25,2.166-2.018,3.453L237.043,43.3q32.22,18.6,64.439,37.2L335.97,100.4c2.234,1.29,4.25-2.165,2.019-3.454Z"></path><path class="d" d="M1.022,217.773q32.192,18.593,64.386,37.182Q98.87,274.278,132.329,293.6q18.079,10.442,36.156,20.885c2.233,1.29,4.249-2.166,2.019-3.454q-32.716-18.9-65.436-37.8L38.44,234.762q-17.7-10.221-35.4-20.443c-2.234-1.289-4.25,2.166-2.019,3.454Z"></path><path class="d" d="M170.5,314.488l64.663-37.339L302.39,238.33l35.6-20.557c2.228-1.287.216-4.745-2.019-3.454l-64.892,37.475-67.159,38.78-35.432,20.46c-2.229,1.287-.217,4.744,2.019,3.454Z"></path><path class="d" d="M4.034,213.2V101.148c0-2.574-4-2.578-4,0V213.2c0,2.573,4,2.578,4,0Z"></path><path class="d" d="M338.98,215.485V98.677c0-2.573-4-2.578-4,0V215.485c0,2.574,4,2.578,4,0Z"></path><path class="d" d="M74.841,138.769,18.091,106l-15.1-8.72c-2.233-1.29-4.25,2.165-2.019,3.453l55.456,32.021,16.4,9.467c2.233,1.289,4.25-2.166,2.019-3.454Z"></path><path class="d" d="M335.916,97.282l-50.023,28.882-14.67,8.471c-2.229,1.287-.217,4.745,2.019,3.454q25.591-14.778,51.183-29.553l13.51-7.8c2.229-1.286.217-4.744-2.019-3.453Z"></path><path class="d" d="M171.515,310.448V240.917c0-2.573-4-2.578-4,0v69.531c0,2.573,4,2.578,4,0Z"></path><path class="d" d="M69.724,174.737q-26.9,15.526-53.789,31.054L1.024,214.4c-2.228,1.287-.216,4.745,2.019,3.454q26.634-15.379,53.27-30.756l15.43-8.908c2.228-1.287.216-4.745-2.019-3.454Z"></path><path class="d" d="M171.441,119.5V38.687c0-2.573-4-2.578-4,0V119.5c0,2.574,4,2.578,4,0Z"></path><path class="d" d="M336.186,213.446Q305.4,195.668,274.6,177.894l-65.7-37.922-38.454-22.2c-2.233-1.289-4.25,2.166-2.019,3.454l67.65,39.047,64,36.944q17.043,9.838,34.085,19.678c2.234,1.289,4.25-2.166,2.019-3.454Z"></path><path class="d" d="M100.687,125.268l26.135-15.089c1.493-.863,2.931-1.554,3.038-3.574.065-1.23,0-2.482,0-3.713V67.342c0-1.315.06-2.646,0-3.959-.126-2.726-2.692-3.751-4.9-2.526-8.669,4.812-17.187,9.923-25.774,14.88L73.066,90.818l-.455.263c-2.229,1.287-.217,4.745,2.019,3.454L96.047,82.17l28.918-16.7a11.013,11.013,0,0,0,2.328-1.344c.423-.441-1.274-1.343-1.433-.859a1.817,1.817,0,0,0,0,.338,15.523,15.523,0,0,0,0,1.657v40.026a4.931,4.931,0,0,0,0,1.273c.154.49-.781-.671.469-.722-.1,0-.257.159-.349.2-1.652.769-3.221,1.86-4.8,2.771l-8.028,4.634-13.648,7.88-.838.484c-2.229,1.286-.217,4.744,2.019,3.454Z"></path><path class="a" d="M155.763,152.837V121.293L181.9,106.377a1.483,1.483,0,0,1,1.474,0l67.812,39.154v33.738a.734.734,0,0,1-.367.639l-26.494,15.3a.73.73,0,0,1-.734,0L156.13,156.259a.734.734,0,0,1-.367-.639Z"></path><path class="e" d="M200.721,140.457l20.613,11.9a.32.32,0,0,0,.322,0l14.054-8.114a.323.323,0,0,0,0-.558l-20.613-11.9a.325.325,0,0,0-.322,0L200.721,139.9A.322.322,0,0,0,200.721,140.457Z"></path><path class="f" d="M170.072,122.763l18.519,10.693a1.61,1.61,0,0,0,1.611,0l11.961-6.906a1.288,1.288,0,0,0,0-2.231l-18.519-10.694a1.613,1.613,0,0,0-1.61,0l-11.962,6.906A1.289,1.289,0,0,0,170.072,122.763Z"></path><path class="c" d="M221.959,168.342v26.965c0,2.574,4,2.578,4,0V168.342c0-2.574-4-2.578-4,0Z"></path><path class="c" d="M157.763,152.837V124.272q0-1.49,0-2.979l-.991,1.727,21.687-12.375,3.6-2.052c.164-.094.636-.257.744-.425.139-.216-.368-.008-.374-.025.067.186.827.477,1,.577l2.238,1.292L227.375,134.1l22.8,13.166-.991-1.727v32.753c0,.125-.095.863,0,.949-.248-.224,1.121-1.162.286-.857a5.9,5.9,0,0,0-.839.484l-12.691,7.327-7.842,4.528-2.942,1.7a13.988,13.988,0,0,1-1.732.961h1.064c.145.039-.232-.095-.375-.177l-.673-.389-1.871-1.08-5.563-3.212-15.938-9.2-34.5-19.921-5.928-3.422-1.832-1.058a2.352,2.352,0,0,0-.586-.338c-.43-.069.4,1.434.542.939a2.164,2.164,0,0,0,0-.515v-2.166c0-2.573-4-2.578-4,0,0,1.306-.288,3.095.443,4.266a4.051,4.051,0,0,0,1.551,1.25l2.674,1.544,9.379,5.415,27.02,15.6,23.291,13.447,3.147,1.817c1.385.8,2.595,1.524,4.243.657,3.768-1.983,7.405-4.275,11.092-6.4l13.239-7.643c1.514-.874,3.227-1.558,3.345-3.572.06-1.019,0-2.059,0-3.078V147.418c0-.622.041-1.261,0-1.883-.1-1.514-1.574-2.063-2.721-2.726l-5.592-3.228-14.082-8.131-30.355-17.527-11.09-6.4c-1.629-.941-3.234-1.983-4.911-2.836a4.215,4.215,0,0,0-4.306.4l-4.7,2.685-14.912,8.509-5.759,3.287a2.008,2.008,0,0,0-.991,1.727q.011,12.18,0,24.359v7.185C153.763,155.411,157.763,155.415,157.763,152.837Z"></path><path class="c" d="M161.285,127.849l43.606,25.177,15.331,8.852c.612.353,1.215.744,1.845,1.065a3.892,3.892,0,0,0,3.875-.14c1.815-.994,3.59-2.073,5.383-3.108l13.491-7.789c2.228-1.287.216-4.745-2.019-3.454l-11.208,6.471-6.574,3.8a9.1,9.1,0,0,0-1.373.792c-.026-.2.715.169.056-.246-.3-.19-.622-.359-.932-.537l-35.784-20.662L163.3,124.4c-2.233-1.29-4.25,2.166-2.019,3.454Z"></path><path class="c" d="M169.062,124.49l15.177,8.763c2.047,1.182,4.423,3.22,6.856,2,2.643-1.329,5.166-2.983,7.727-4.461,2.288-1.321,6.906-2.962,5.811-6.395a4.455,4.455,0,0,0-2.435-2.365l-3.427-1.979-9.689-5.595-3.509-2.026a5.075,5.075,0,0,0-3.065-1.026c-1.244.1-2.5,1.083-3.552,1.689l-5.333,3.08c-1.39.8-2.8,1.583-4.173,2.409-2.339,1.4-2.706,4.213-.388,5.909a2.015,2.015,0,0,0,2.737-.718,2.045,2.045,0,0,0-.718-2.736c1,.732-.617,1.44.349,1.021a12.807,12.807,0,0,0,1.232-.711l4.156-2.4,4.242-2.449c.31-.179,2.029-.869,2.131-1.23-.137.484-1.038-.308-.461.14a8.239,8.239,0,0,0,.934.54l3.212,1.854,8.718,5.034,3.617,2.089c.444.256,1.34,1.041,1.862,1.075.014,0,.067.052.081.047-.488.187-.3-1.234-.045-1.2-.171-.024-.709.409-.853.493l-3.662,2.114-4.42,2.552a21.228,21.228,0,0,0-2.9,1.676c-.509.419.295-.272.462.121-.052-.121-.459-.265-.574-.331l-2.729-1.576-15.348-8.862C168.848,119.746,166.831,123.2,169.062,124.49Z"></path><path class="c" d="M199.711,142.184l16.143,9.32,3.573,2.063c1.038.6,2.01,1.13,3.256.508,2.619-1.309,5.118-2.955,7.654-4.419l4.723-2.727c.982-.567,2.391-1.124,2.721-2.325.455-1.658-.816-2.5-2.008-3.191l-3.616-2.088-10.351-5.976-4.091-2.362a13.585,13.585,0,0,0-1.848-1.029c-1.408-.539-2.538.352-3.69,1.017l-4.687,2.707c-2.566,1.481-5.282,2.834-7.751,4.474a2.384,2.384,0,0,0-.432,3.715c1.647,1.982,4.463-.861,2.828-2.828l-.143-.172.586,1.414v-.213l-.586,1.414c-.211.254-.337.147-.11.053a4.531,4.531,0,0,0,.477-.275l1.568-.906,4.83-2.789,7.027-4.057-1.009.273h.322l-1.01-.273,18.053,10.423L233.984,145c.168.1.339.191.506.292.263.158.137.207-.051-.019l-.586-1.415v.214l.586-1.414c.211-.254.337-.147.11-.053a4.183,4.183,0,0,0-.477.275l-1.568.905-4.831,2.789-7.027,4.057,1.01-.273h-.322l1.009.273-18.052-10.422-2.561-1.479C199.5,137.441,197.48,140.9,199.711,142.184Z"></path><ellipse class="c" cx="214.596" cy="138.779" rx="4.187" ry="2.417"></ellipse><ellipse class="c" cx="223.407" cy="143.866" rx="4.187" ry="2.417"></ellipse><path class="g" d="M113.418,159.518c0-2.393,0-5.111-.007-8.853V139.593a1.226,1.226,0,0,0-1.816-1.074c-4.4,2.451-13.018,7.439-17.725,10.257a3.7,3.7,0,0,0-1.8,2.944c.008,10.568.008,24.062.008,24.062a3.663,3.663,0,0,0,1.838,3.186c5.161,2.977,14.25,8.231,18.186,10.5a4.115,4.115,0,0,0,3.726,0c2.783-1.607,12.232-7.042,16.543-9.515a1.439,1.439,0,0,0-.008-2.494c-3.439-1.982-10.621-6.129-18.943-10.931C113.418,164.041,113.419,161.947,113.418,159.518Z"></path><path class="c" d="M131.068,178.592q0,9.354-.012,18.706c0,2.574,4,2.579,4,0q0-9.353.012-18.706c0-2.573-4-2.578-4,0Z"></path><path class="c" d="M111.429,189.916q0,9.354-.011,18.706c0,2.574,4,2.578,4,0q0-9.353.011-18.706c0-2.574-4-2.578-4,0Z"></path><path class="c" d="M90.073,175.44q0,10.434-.012,20.869c0,2.574,4,2.578,4,0q0-10.434.012-20.869c0-2.574-4-2.578-4,0Z"></path><path class="c" d="M115.418,166.284q0-9.228-.007-18.456v-5.069a20.433,20.433,0,0,0-.071-3.728,3.207,3.207,0,0,0-3.716-2.592,13.036,13.036,0,0,0-3.554,1.768q-3.952,2.243-7.878,4.53c-2.487,1.446-5.092,2.8-7.478,4.41-2.735,1.844-2.653,4.642-2.653,7.577V184.9c0,2.574,4,2.578,4,0v-25.37c0-2.446-.126-4.932,0-7.375.058-1.127.629-1.535,1.553-2.085q1.7-1.011,3.4-2.009,3.712-2.178,7.446-4.323,1.671-.96,3.346-1.912.678-.386,1.357-.768l.748-.421.468-.261q.4-.526-.97-.778c-.123.17,0,.925,0,1.162v6.62q0,9.454.007,18.909c0,2.574,4,2.578,4,0Z"></path><path class="c" d="M90.076,175.782a5.96,5.96,0,0,0,1.592,3.946,14.7,14.7,0,0,0,3.374,2.2l7.253,4.189q3.409,1.97,6.82,3.939c2.278,1.316,4.508,2.539,7.188,1.39a48.285,48.285,0,0,0,4.833-2.727q3.327-1.915,6.656-3.828a65.6,65.6,0,0,0,5.854-3.407,3.407,3.407,0,0,0,1.1-4.221,5.792,5.792,0,0,0-2.668-2.275q-8.821-5.088-17.641-10.181c-2.234-1.289-4.251,2.166-2.019,3.454L127,176.68l2.487,1.435,1.1.633a2.184,2.184,0,0,0,.4.228l.369.212.007-.96c-.346-.1-1.936,1.112-2.272,1.3l-2.733,1.57q-5.223,3-10.441,6.007a4.448,4.448,0,0,1-1.766.8,4.019,4.019,0,0,1-2.3-.894l-5.453-3.15-7.088-4.094-3.224-1.862c-.922-.532-1.953-.918-2.011-2.13-.122-2.563-4.123-2.578-4,0Z"></path><path class="g" d="M144.5,138.683c0-2.392,0-5.111-.006-8.853V118.759a1.227,1.227,0,0,0-1.817-1.074c-4.4,2.45-13.017,7.438-17.724,10.257a3.7,3.7,0,0,0-1.8,2.944c.008,10.568.008,24.061.008,24.061A3.662,3.662,0,0,0,125,158.133c5.161,2.977,14.25,8.232,18.186,10.5a4.112,4.112,0,0,0,3.726,0c2.782-1.607,12.232-7.042,16.542-9.514a1.438,1.438,0,0,0-.007-2.494c-3.439-1.983-10.622-6.129-18.943-10.932C144.5,143.207,144.5,141.113,144.5,138.683Z"></path><path class="c" d="M162.153,157.758q0,9.352-.011,18.706c0,2.574,4,2.578,4,0q0-9.352.011-18.706c0-2.574-4-2.578-4,0Z"></path><path class="c" d="M142.515,169.082q0,9.353-.012,18.706c0,2.574,4,2.578,4,0q0-9.354.012-18.706c0-2.574-4-2.578-4,0Z"></path><path class="c" d="M121.158,154.606q0,10.434-.011,20.868c0,2.574,4,2.578,4,0q0-10.434.011-20.868c0-2.574-4-2.578-4,0Z"></path><path class="c" d="M146.5,145.45q0-9.228-.007-18.457v-5.069a20.434,20.434,0,0,0-.071-3.728,3.208,3.208,0,0,0-3.717-2.592,13.062,13.062,0,0,0-3.553,1.769q-3.953,2.241-7.878,4.529c-2.487,1.446-5.092,2.8-7.478,4.41-2.735,1.845-2.653,4.642-2.653,7.578v30.171c0,2.574,4,2.578,4,0V138.69c0-2.445-.126-4.932,0-7.375.058-1.126.629-1.534,1.553-2.085q1.7-1.011,3.4-2.008,3.714-2.179,7.447-4.323,1.669-.96,3.345-1.913l1.358-.768.748-.42.467-.262q.4-.526-.969-.777c-.123.169,0,.925,0,1.162v6.62q0,9.454.007,18.909c0,2.574,4,2.578,4,0Z"></path><path class="c" d="M121.162,154.947a5.958,5.958,0,0,0,1.592,3.946,14.686,14.686,0,0,0,3.374,2.2q3.627,2.093,7.252,4.188l6.82,3.94c2.279,1.315,4.509,2.539,7.188,1.389a48.214,48.214,0,0,0,4.834-2.727l6.656-3.828a65.712,65.712,0,0,0,5.853-3.406,3.408,3.408,0,0,0,1.1-4.221,5.786,5.786,0,0,0-2.668-2.275q-8.823-5.088-17.642-10.181c-2.233-1.289-4.25,2.166-2.019,3.454l14.588,8.419,2.487,1.435,1.1.632a2.151,2.151,0,0,0,.395.228l.369.213.007-.96c-.346-.1-1.937,1.111-2.272,1.3l-2.734,1.571q-5.221,3-10.44,6.007a4.461,4.461,0,0,1-1.766.8,4.021,4.021,0,0,1-2.3-.9l-5.453-3.149-7.088-4.095-3.224-1.861c-.923-.533-1.954-.919-2.011-2.131-.122-2.562-4.123-2.577-4,0Z"></path><path class="a" d="M196.267,170.527v-4.262a1.443,1.443,0,0,0-.721-1.249l-30.963-17.878a1.431,1.431,0,0,0-1.437,0c-6.585,3.8-56.544,32.648-63.143,36.469a1.442,1.442,0,0,0-.719,1.247v4.573a1.431,1.431,0,0,0,.716,1.242l30.693,17.721a1.423,1.423,0,0,0,1.429,0c6.361-3.671,53.359-30.8,63.428-36.616A1.435,1.435,0,0,0,196.267,170.527Z"></path><path class="h" d="M196.267,170.962V201.8"></path><path class="a" d="M99.284,189.42v30.446a1.437,1.437,0,0,0,.719,1.247c8.66,5,23.752,13.706,29.343,16.931a1.44,1.44,0,0,0,2.161-1.246c0-7.308,0-24.711,0-28.219"></path><path class="c" d="M97.284,189.42v29.529a8.47,8.47,0,0,0,.068,1.485c.414,2.359,3.266,3.344,5.124,4.416q6.406,3.7,12.815,7.4l11.2,6.463c1.753,1.012,3.566,2.234,5.539.894,1.923-1.307,1.474-3.92,1.474-5.938q0-12.541,0-25.085c0-2.574-4-2.578-4,0v20.83q0,2.776,0,5.553v1.071a2.177,2.177,0,0,0,0,.553c.126.4-.433.157.27-.268.856-.517.661.225.416-.094a2.157,2.157,0,0,0-.517-.3l-.958-.552-10.464-6.037-12-6.926-2.741-1.582-1.218-.7-.65-.375c-.194-.112-.821-.667-.494-.124.3.5.136-.393.136-.677V189.42c0-2.573-4-2.578-4,0Z"></path><path class="c" d="M98.274,191.98l17.185,9.921,11.026,6.366,3.172,1.831c.9.519,1.723.947,2.772.423,1.34-.67,2.62-1.512,3.917-2.261l9.376-5.412,26.442-15.265,22.257-12.85c.934-.54,1.921-1.034,2.821-1.63,1.09-.722,1.025-1.74,1.025-2.864q0-1.742,0-3.485c0-1.159.121-2.3-.992-3.05-.123-.083-.26-.147-.387-.223-.939-.563-1.9-1.1-2.846-1.644l-23.057-13.313c-2.017-1.165-4.007-2.468-6.089-3.516-1.571-.79-3.442.795-4.768,1.561l-20.592,11.89q-13.145,7.59-26.286,15.18l-9.91,5.725-3.2,1.852c-1.567.906-2.786,1.828-2.852,3.854-.056,1.724,0,3.458,0,5.183,0,2.573,4,2.578,4,0v-3.779a5.9,5.9,0,0,0,0-1.566c-.048-.039-.482.372-.161.359.094,0,.3-.171.38-.22l4.324-2.5q7.639-4.414,15.281-8.827,17.708-10.227,35.417-20.452l8.346-4.819h-2.018q14.2,8.175,28.387,16.391l4.015,2.318-.991-1.727c.03,1.974,0,3.951,0,5.925l.991-1.727q-12.9,7.455-25.806,14.9l-32.076,18.516-6.976,4.027h2.019q-16.065-9.272-32.126-18.547c-2.233-1.29-4.249,2.165-2.019,3.454Z"></path><path class="g" d="M199.938,199.172c0-4.154,0-9.5-.007-14.85V167.083a1.111,1.111,0,0,0-1.646-.973c-3.99,2.22-11.794,6.74-16.058,9.293a3.351,3.351,0,0,0-1.639,2.873v9.961c-1.717.945-7.614,4.354-18.088,10.4a2.025,2.025,0,0,0,0,3.51c5.72,3.29,12.868,7.4,17.394,10a2.014,2.014,0,0,0,2,0c6-3.465,13.1-7.561,17.055-9.842a1.961,1.961,0,0,0,.985-1.7Z"></path><path class="c" d="M197.938,201.1q0,9.99-.012,19.978c0,2.574,4,2.578,4,0q0-9.988.012-19.978c0-2.573-4-2.578-4,0Z"></path><path class="c" d="M159.678,201.1q0,9.99-.012,19.978c0,2.574,4,2.578,4,0q0-9.988.012-19.978c0-2.573-4-2.578-4,0Z"></path><path class="c" d="M178.588,212.108q0,9.147-.012,18.293c0,2.574,4,2.578,4,0q0-9.147.012-18.293c0-2.574-4-2.578-4,0Z"></path><path class="c" d="M182.588,204.776V180.041a11.92,11.92,0,0,1,0-1.927c.145-.854.96-1.173,1.63-1.571q1.341-.8,2.688-1.586,3.35-1.965,6.716-3.9,1.578-.907,3.16-1.807.666-.378,1.334-.754a3.3,3.3,0,0,0,.609-.342l.347-.194q-.768-.69-.91-.168l-.273-1.009a39.919,39.919,0,0,1,.04,5.189v8.116q0,9.98.007,19.961c0,.662,0,.525-.611.878l-1.948,1.124-4.117,2.376L181.614,210c-.712.411-.59.487-1.266.1l-1.961-1.126-4.455-2.56-9.379-5.392c-.359-.206-.714-.427-1.076-.627-.078-.044.012-.277-.017-.026-.018.158.167-.053.381-.195.378-.251.795-.458,1.188-.685l5.205-3q4.823-2.786,9.647-5.569c2.229-1.286.217-4.743-2.019-3.454l-8.189,4.727-4.367,2.522a26.514,26.514,0,0,0-4.474,2.686,4.058,4.058,0,0,0-1.235,3.939c.438,1.755,1.837,2.508,3.291,3.345l9.206,5.292,4.115,2.364c1.32.758,2.79,1.925,4.345,2.047,1.72.136,3.136-.961,4.555-1.78L190,209.778l8.135-4.695c1.177-.68,2.558-1.271,3.271-2.494.853-1.465.537-3.469.537-5.095q0-9.554-.007-19.106v-7.66c0-1.666.435-4.28-.738-5.623-2.217-2.541-5.4.1-7.584,1.35q-3.833,2.187-7.64,4.416-1.756,1.026-3.506,2.063a7.472,7.472,0,0,0-3.317,2.986,9.453,9.453,0,0,0-.558,4.273v24.583c0,2.573,4,2.578,4,0Z"></path><path class="a" d="M256.135,225.144l-.9-12.321c0-4.884,6.857-8.843,15.316-8.843s15.316,3.959,15.316,8.843L285.14,225c0,4.884-6.129,8.843-14.588,8.843S256.135,230.027,256.135,225.144Z"></path><path class="c" d="M258.135,225.144c-.3-4.051-.782-8.132-.89-12.192-.069-2.574,2.73-4.445,4.987-5.418a22.29,22.29,0,0,1,13.469-1c2.932.677,7.067,2.2,8.031,5.36.441,1.444-.03,3.7-.126,5.306-.146,2.449-.306,4.9-.439,7.348a6.2,6.2,0,0,1-3.562,5.211c-4.1,2.338-9.562,2.6-14.075,1.542-3.133-.736-7.323-2.646-7.395-6.16-.054-2.571-4.054-2.58-4,0,.086,4.18,3.214,7.261,6.86,8.847a25.3,25.3,0,0,0,15.666,1.149c4.077-.972,8.455-3.307,9.993-7.452.786-2.118.614-4.84.748-7.071.153-2.556.411-5.13.46-7.691.073-3.792-2.9-6.757-6.049-8.4a25.7,25.7,0,0,0-15.533-2.21c-4.4.657-9.331,2.518-11.829,6.436-1.675,2.627-1.111,5.5-.9,8.407l.583,7.984C254.321,227.7,258.322,227.716,258.135,225.144Z"></path><path class="i" d="M265.9,211.759c-1.646-7.092-3.867-19.511-5.959-27.114a13.951,13.951,0,0,1,9.934,5.184c1.677-6.378,3.786-10.494,7.825-16.5a7.22,7.22,0,0,1,.456,4.054c-.783,10.108-2.044,24.282-3.152,34.376"></path><path class="c" d="M270.9,194.23a54.615,54.615,0,0,1,3.136-10.473,61.049,61.049,0,0,1,5.4-9.418h-3.454c.59,1.16.2,2.874.1,4.116q-.178,2.272-.366,4.545-.4,4.837-.833,9.672c-.57,6.367-1.174,12.732-1.869,19.087a2.013,2.013,0,0,0,2,2,2.046,2.046,0,0,0,2-2c.726-6.636,1.354-13.282,1.945-19.932q.444-5,.853-10c.249-3.053,1.074-6.661-.375-9.509a2.021,2.021,0,0,0-3.454,0,61.176,61.176,0,0,0-5.536,9.728,59.251,59.251,0,0,0-3.4,11.119c-.539,2.51,3.316,3.583,3.857,1.063Z"></path><path class="c" d="M278.828,215.736a18.641,18.641,0,0,1-16.554,0c-2.272-1.208-4.3,2.244-2.019,3.454a22.8,22.8,0,0,0,20.592,0c2.274-1.209.255-4.663-2.019-3.454Z"></path><path class="c" d="M267.833,211.228c-2.081-9.014-3.52-18.183-5.959-27.114l-1.928,2.531a11.918,11.918,0,0,1,7.08,3.082c1.916,1.708,4.755-1.111,2.828-2.828a16.389,16.389,0,0,0-9.908-4.254,2.017,2.017,0,0,0-1.929,2.532c2.439,8.931,3.878,18.1,5.959,27.114.579,2.507,4.437,1.446,3.857-1.063Z"></path></g></svg>