<?xml version="1.0" encoding="utf-8"?>
<!-- Generator: Adobe Illustrator 27.5.0, SVG Export Plug-In . SVG Version: 6.00 Build 0)  -->
<svg version="1.1" xmlns="http://www.w3.org/2000/svg" xmlns:xlink="http://www.w3.org/1999/xlink" x="0px" y="0px"
	 viewBox="0 0 500 500" style="enable-background:new 0 0 500 500;" xml:space="preserve">
<g id="BACKGROUND">
	<rect style="fill:inherit" width="500" height="500"/>
</g>
<g id="OBJECTS">
	<g >
		<polygon style="fill:#A4BED5;" points="0,186.531 0,500 315.115,500 368.491,446.624 138.063,48.469 		"/>
		<path style="fill:#87A6C1;" d="M368.491,446.624L138.063,48.469l-19.61,19.61v376.969c0,14.057,11.396,25.453,25.453,25.453
			h200.709L368.491,446.624z"/>
		<g>
			<path style="fill:#789DC1;" d="M353.667,42.333H154.202c-13.439,0-24.333,10.894-24.333,24.333v360.667
				c0,13.439,10.894,24.333,24.333,24.333h199.464c13.439,0,24.333-10.894,24.333-24.333V66.667
				C378,53.228,367.106,42.333,353.667,42.333z"/>
			<path style="fill:#658AAD;" d="M298.717,67.764h-73.645c-8.28,0-14.993,6.713-14.993,14.993v30.99
				c0,8.28,6.713,14.993,14.993,14.993h73.645c8.28,0,14.993-6.713,14.993-14.993v-30.99
				C313.71,74.477,306.997,67.764,298.717,67.764z"/>
			<path style="fill:#D2E5F5;" d="M290.757,67.764h-73.645c-8.28,0-14.993,6.713-14.993,14.993v30.99
				c0,8.28,6.713,14.993,14.993,14.993h73.645c8.28,0,14.993-6.713,14.993-14.993v-30.99
				C305.75,74.477,299.037,67.764,290.757,67.764z"/>
			<path style="fill:#BDD5EA;" d="M285.729,128.74V67.764h-55.128c-2.945,3.067-9.106,11.628-9.106,29.611
				c0,16.923,0,27.005,0,31.365H285.729z"/>
			<g>
				<g>
					<path style="fill:#ACC5E2;" d="M282.158,163.353l-14.583-7.842l21.576-40.126l-33.781-4.87l2.362-16.388l45.498,6.558
						c2.675,0.386,4.994,2.053,6.211,4.466c1.217,2.413,1.18,5.269-0.101,7.649L282.158,163.353z"/>
				</g>
				<path style="fill:#8FAFD4;" d="M265.184,111.93l19.148,2.76c3.324-6.327,3.526-13.012,3.379-16.242l-22.527-3.247V111.93z"/>
				<rect x="224.672" y="145.874" style="fill:#ACC5E2;" width="58.525" height="77.39"/>
				<path style="fill:#8FAFD4;" d="M224.672,175.763v15.43l57.626,0.875c0,0,0.347-0.051,0.899-0.182v-15.792
					C254.896,183.112,230.439,177.346,224.672,175.763z"/>
				<polygon style="fill:#8FAFD4;" points="250.43,154.414 231.934,145.874 252.272,145.874 				"/>
				<path style="fill:#DF7C68;" d="M245.975,136.515v10.758c0,4.396,3.564,7.96,7.96,7.96h0c4.396,0,7.96-3.564,7.96-7.96v-10.758
					H245.975z"/>
				<g>
					<path style="fill:#DF7C68;" d="M231.676,98.252h-2.299c-3.411,0-5.686,3.52-4.286,6.63l6.585,14.625
						C231.676,119.507,234.902,98.826,231.676,98.252z"/>
					<path style="fill:#DF7C68;" d="M276.193,98.252h2.299c3.411,0,5.686,3.52,4.286,6.63l-6.585,14.625
						C276.193,119.507,272.967,98.826,276.193,98.252z"/>
					<path style="fill:#F69D8C;" d="M230.601,89.25v27.891c0,12.887,10.447,23.333,23.333,23.333h0
						c12.887,0,23.333-10.447,23.333-23.333V89.25H230.601z"/>
					<path style="fill:#172930;" d="M277.268,91.299h-46.667v-2.621c0-10.885,8.824-19.708,19.708-19.708h26.959V91.299z"/>
					<path style="fill:#172930;" d="M235.404,88.861v5.372c0,5.463-1.676,10.794-4.803,15.274l0,0V90.563L235.404,88.861z"/>
					<path style="fill:#172930;" d="M272.465,88.861v5.372c0,5.463,1.676,10.794,4.803,15.274h0V86.997L272.465,88.861z"/>
					<path style="fill:#172930;" d="M276.264,94.939c5.859-7.382,9.232-16.702,9.455-26.124c0.096-4.056-0.521-8.449-3.34-11.366
						c-0.959-0.992-2.337-1.804-3.669-1.444c-1.077,0.291-1.841,1.3-2.152,2.372c-0.311,1.072-0.249,2.211-0.184,3.325
						c-1.672-3.653-4.802-6.538-8.544-7.999c-1.224-0.478-2.534-0.804-3.845-0.719c-1.312,0.085-2.631,0.619-3.476,1.626
						c-1.072,1.278-1.233,3.129-0.826,4.746c0.408,1.617,1.309,3.058,2.198,4.469c-4.242-2.901-9.619-4.134-14.726-3.559
						c-2.127,0.239-4.282,0.828-5.957,2.161c-2.763,2.199-3.723,6.2-2.795,9.607s3.498,6.208,6.545,7.993
						c3.047,1.785,6.549,2.65,10.044,3.158c4.432,0.644,9.069,0.789,13.066,2.808C271.543,87.753,275.006,91.244,276.264,94.939z"/>
					<g>
						<g>
							<path style="fill:#A65241;" d="M243.327,109.557c-2.636,0-5.134-1.153-6.854-3.163c-0.305-0.356-0.263-0.892,0.093-1.197
								c0.356-0.304,0.891-0.263,1.197,0.093c1.398,1.633,3.426,2.569,5.565,2.569c2.139,0,4.167-0.936,5.565-2.569
								c0.306-0.356,0.841-0.397,1.197-0.093c0.356,0.305,0.398,0.841,0.093,1.197C248.461,108.404,245.962,109.557,243.327,109.557
								z"/>
						</g>
						<g>
							<path style="fill:#A65241;" d="M264.543,109.557c-2.636,0-5.134-1.153-6.855-3.163c-0.305-0.356-0.263-0.892,0.093-1.197
								c0.356-0.304,0.892-0.263,1.197,0.093c1.398,1.633,3.426,2.569,5.565,2.569c2.139,0,4.167-0.936,5.564-2.569
								c0.306-0.356,0.84-0.397,1.197-0.093c0.356,0.305,0.397,0.841,0.093,1.197C269.676,108.404,267.178,109.557,264.543,109.557z
								"/>
						</g>
					</g>
					<g>
						<path style="fill:#172930;" d="M271.179,102.321c-0.529,0-1.036-0.298-1.279-0.807c-0.852-1.791-2.433-3.114-4.338-3.63
							c-1.905-0.514-3.937-0.169-5.576,0.949c-0.646,0.44-1.526,0.273-1.966-0.371c-0.44-0.645-0.274-1.525,0.371-1.966
							c2.322-1.585,5.204-2.075,7.909-1.343c2.704,0.732,4.947,2.607,6.155,5.146c0.335,0.706,0.036,1.549-0.67,1.885
							C271.59,102.277,271.383,102.321,271.179,102.321z"/>
					</g>
					<g>
						<path style="fill:#172930;" d="M236.69,102.321c-0.203,0-0.41-0.044-0.606-0.137c-0.706-0.335-1.006-1.179-0.67-1.885
							c1.207-2.539,3.45-4.414,6.154-5.146c2.705-0.731,5.587-0.242,7.909,1.343c0.645,0.44,0.811,1.32,0.371,1.966
							c-0.441,0.645-1.32,0.811-1.966,0.371c-1.638-1.118-3.671-1.464-5.576-0.949c-1.905,0.515-3.486,1.838-4.338,3.629
							C237.726,102.023,237.219,102.321,236.69,102.321z"/>
					</g>
					<path style="fill:#DF7C68;" d="M253.935,110.982l-2.519,9.062c-0.463,1.666,0.79,3.315,2.519,3.315h0l0,0
						c1.729,0,2.982-1.649,2.519-3.315L253.935,110.982z"/>
					<path style="fill:#172930;" d="M253.935,126.375c-3.51,0-6.355,2.845-6.355,6.355h12.71
						C260.289,129.221,257.444,126.375,253.935,126.375z"/>
					<path style="fill:#B56555;" d="M258.562,132.73c-0.85-1.697-2.6-2.864-4.627-2.864c-2.027,0-3.777,1.167-4.627,2.864H258.562z"
						/>
				</g>
			</g>
			<path style="fill:#172930;" d="M129.869,182.708v244.625c0,13.439,10.894,24.333,24.333,24.333h199.464
				c13.439,0,24.333-10.894,24.333-24.333V182.708H129.869z"/>
			<path style="fill:#213A45;" d="M214.495,182.708V329.56c0,21.782,17.658,39.44,39.44,39.44h0c21.782,0,39.44-17.658,39.44-39.44
				V182.708H214.495z"/>
			<polygon style="fill:#172930;" points="244.103,203.12 218.375,194.75 225.625,182.708 212.625,182.708 205.715,197.625 			"/>
			<path style="fill:#172930;" d="M266.82,214.655c0,0-36.581,5.845-52.326,33.095c-15.995-4.5-5.245-39.25-5.245-39.25
				S261.89,209.81,266.82,214.655z"/>
			<g>
				<path style="fill:#DF7C68;" d="M244.974,204.507l7.952-4.858c0.611-0.373,1.41-0.084,1.641,0.593l0,0
					c0.137,0.404,0.034,0.85-0.268,1.151l-3.827,3.827L244.974,204.507z"/>
				<path style="fill:#F69D8C;" d="M242.943,205.086l12.137-3.461c1.827-0.521,3.767-0.494,5.579,0.078l6.879,2.482
					c0.797,0.252,1.339,0.991,1.339,1.827v6.732c0,1.114-0.946,1.993-2.057,1.911l-5.761-0.133c-1.227-0.091-2.46,0.053-3.634,0.423
					l-9.294,2.933c-1.584,0.5-3.279,0.525-4.877,0.072l-4.33-1.226L242.943,205.086z"/>
				<path style="fill:#DF7C68;" d="M242.943,205.086l-4.02,11.638l4.33,1.226c0.081,0.023,0.162,0.039,0.243,0.059l1.477-13.503
					L242.943,205.086z"/>
				<path style="fill:#ACC5E2;" d="M244.103,203.12l-33.053-6.868l20.528-38.178c2.166-4.027,0.656-9.047-3.371-11.212
					c-4.028-2.166-9.047-0.656-11.212,3.371l-25.781,47.947c-1.237,2.301-1.316,5.051-0.212,7.419
					c1.104,2.368,3.261,4.076,5.819,4.608l42.905,8.916L244.103,203.12z"/>
			</g>
			<path style="fill:#85AFD6;" d="M364,62.667c-4.786,0-8.667,3.88-8.667,8.667v95.763c0,4.786,3.88,8.667,8.667,8.667
				s8.667-3.88,8.667-8.667V71.333C372.667,66.547,368.786,62.667,364,62.667z"/>
			<path style="fill:#213A45;" d="M364,191.202c-4.786,0-8.667,3.88-8.667,8.667V427c0,4.786,3.88,8.667,8.667,8.667
				s8.667-3.88,8.667-8.667V199.868C372.667,195.082,368.786,191.202,364,191.202z"/>
		</g>
		<g>
			
				<text transform="matrix(0.947 -0.3212 0.3212 0.947 191.7421 102.3375)" style="fill:#FFFFFF; font-family:'SFArchRival'; font-size:17.051px;">Z</text>
			
				<text transform="matrix(0.9423 0.3348 -0.3348 0.9423 164.232 66.3065)" style="fill:#FFFFFF; font-family:'SFArchRival'; font-size:17.051px;">Z</text>
			
				<text transform="matrix(0.9981 0.062 -0.062 0.9981 176.1434 84.6513)" style="fill:#FFFFFF; font-family:'SFArchRival'; font-size:28.6167px;">Z</text>
		</g>
	</g>
</g>
<g id="DESIGNED_BY_FREEPIK">
	<g>
		<g id="XMLID_319_">
			<g id="XMLID_338_">
				<path id="XMLID_346_" d="M260.104,471.741c-0.432,0.443-0.803,0.931-1.108,1.453l-0.465-0.241
					c-0.067-0.298-0.349-0.503-0.659-0.466c-0.331,0.039-0.568,0.339-0.529,0.67c0.039,0.331,0.339,0.568,0.67,0.529
					c0.065-0.008,0.127-0.026,0.184-0.052l0.451,0.234c-0.251,0.554-0.433,1.139-0.539,1.744l0.747,0.132
					c0.23-1.306,0.85-2.507,1.792-3.473L260.104,471.741z"/>
				<path id="XMLID_345_" d="M265.592,469.439c-0.171,0-0.341,0.006-0.51,0.017l-0.074-0.626c0.188-0.149,0.296-0.389,0.266-0.645
					c-0.046-0.393-0.402-0.674-0.795-0.628c-0.393,0.046-0.674,0.402-0.628,0.795c0.03,0.254,0.189,0.461,0.404,0.564l0.074,0.624
					c-0.714,0.116-1.403,0.332-2.06,0.646l0.327,0.684c0.934-0.447,1.942-0.673,2.995-0.673c0.496,0,0.993,0.053,1.475,0.158
					l0.161-0.741C266.692,469.498,266.142,469.439,265.592,469.439z"/>
				<path id="XMLID_344_" d="M272.194,471.986c0.331-0.04,0.566-0.341,0.526-0.672c-0.04-0.331-0.341-0.566-0.672-0.526
					c-0.309,0.038-0.535,0.304-0.53,0.609l-0.416,0.363c-0.418-0.43-0.889-0.813-1.408-1.139l-0.404,0.641
					c1.134,0.715,2.021,1.726,2.563,2.925l0.691-0.313c-0.251-0.554-0.568-1.072-0.942-1.545l0.402-0.351
					C272.065,471.991,272.129,471.994,272.194,471.986z"/>
				<path id="XMLID_343_" d="M265.044,479.647c-0.386,0.023-0.775,0.035-1.157,0.035c-0.88,0-1.733-0.061-2.478-0.179
					c-0.39-0.062-0.846-0.155-1.27-0.292c1.046,1.861,3.069,3.125,5.388,3.125c2.855,0,5.262-1.916,5.95-4.504
					c-0.682,0.449-1.505,0.825-2.459,1.123C267.839,479.322,266.463,479.562,265.044,479.647z"/>
				<path id="XMLID_339_" d="M265.592,470.955c-3.352,0-6.08,2.666-6.08,5.944c0,0.426,0.046,0.849,0.137,1.261
					c0.673,0.483,2.706,0.89,5.348,0.731c2.879-0.173,5.297-0.957,6.672-2.158c-0.006-0.195-0.021-0.39-0.045-0.582
					C271.244,473.189,268.65,470.955,265.592,470.955z M263.432,477.47c-1.02,0-1.85-0.83-1.85-1.85c0-1.02,0.83-1.85,1.85-1.85
					c1.02,0,1.85,0.83,1.85,1.85C265.282,476.64,264.452,477.47,263.432,477.47z M268.17,476.561c-0.75,0-1.36-0.61-1.36-1.36
					s0.61-1.361,1.36-1.361c0.75,0,1.361,0.61,1.361,1.361S268.92,476.561,268.17,476.561z"/>
			</g>
			<path id="XMLID_336_" d="M281.595,472.822c-0.295-0.116-0.805-0.309-1.382-0.237c-0.551,0.068-0.844,0.34-0.844,1.007v0.866
				h2.228v1.717h-2.228v5.455h-1.932v-5.455h-1.34v-1.717h1.34v-0.888c0-1.68,0.896-2.783,2.568-2.783
				c0.643,0,1.157,0.122,1.59,0.308L281.595,472.822z"/>
			<path id="XMLID_334_" d="M286.298,476.154c-0.177-0.03-0.358-0.046-0.526-0.046c-0.896,0-1.51,0.548-1.51,1.613v3.908h-1.932
				v-7.172h1.873v0.785c0.451-0.674,1.14-0.977,2.021-0.977c0.414,0,0.848,0.128,1.094,0.337L286.298,476.154z"/>
			<path id="XMLID_331_" d="M293.965,478.032c0,0.222-0.015,0.489-0.037,0.651h-5.085c0.207,1.036,0.933,1.488,1.843,1.488
				c0.622,0,1.295-0.252,1.813-0.688l1.133,1.243c-0.814,0.748-1.85,1.088-3.057,1.088c-2.198,0-3.723-1.495-3.723-3.753
				c0-2.257,1.48-3.797,3.627-3.797C292.544,474.265,293.958,475.797,293.965,478.032z M288.851,477.366h3.175
				c-0.177-0.918-0.733-1.436-1.562-1.436C289.554,475.93,289.021,476.478,288.851,477.366z"/>
			<path id="XMLID_328_" d="M301.618,478.032c0,0.222-0.015,0.489-0.037,0.651h-5.085c0.207,1.036,0.933,1.488,1.843,1.488
				c0.622,0,1.295-0.252,1.814-0.688l1.132,1.243c-0.814,0.748-1.85,1.088-3.057,1.088c-2.198,0-3.723-1.495-3.723-3.753
				c0-2.257,1.48-3.797,3.627-3.797C300.197,474.265,301.611,475.797,301.618,478.032z M296.504,477.366h3.175
				c-0.178-0.918-0.733-1.436-1.562-1.436C297.207,475.93,296.674,476.478,296.504,477.366z"/>
			<path id="XMLID_325_" d="M309.964,478.04c0,2.154-1.495,3.775-3.471,3.775c-0.962,0-1.643-0.378-2.109-0.933v3.708h-1.924
				v-10.133h1.887v0.792c0.466-0.585,1.155-0.984,2.139-0.984C308.469,474.265,309.964,475.886,309.964,478.04z M304.287,478.04
				c0,1.132,0.747,1.976,1.843,1.976c1.14,0,1.85-0.881,1.85-1.976c0-1.095-0.71-1.976-1.85-1.976
				C305.035,476.064,304.287,476.907,304.287,478.04z"/>
			<path id="XMLID_322_" d="M313.068,472.111c0,0.696-0.54,1.229-1.236,1.229c-0.696,0-1.229-0.533-1.229-1.229
				c0-0.696,0.533-1.243,1.229-1.243C312.527,470.868,313.068,471.415,313.068,472.111z M312.809,481.629h-1.932v-7.172h1.932
				V481.629z"/>
			<path id="XMLID_320_" d="M316.032,477.011l2.701-2.554h2.368l-3.479,3.375l3.501,3.797h-2.376l-2.716-2.901v2.901H314.1v-10.658
				h1.932V477.011z"/>
		</g>
		<g>
			<path d="M184.412,481.564v-1.055c-0.527,0.718-1.391,1.23-2.387,1.23c-1.846,0-3.149-1.406-3.149-3.706
				c0-2.256,1.289-3.721,3.149-3.721c0.952,0,1.816,0.469,2.387,1.245v-3.765h1.099v9.77H184.412z M184.412,479.646v-3.208
				c-0.395-0.615-1.245-1.143-2.124-1.143c-1.421,0-2.27,1.172-2.27,2.739c0,1.567,0.85,2.724,2.27,2.724
				C183.168,480.759,184.017,480.261,184.412,479.646z"/>
			<path d="M186.932,478.02c0-2.051,1.465-3.706,3.486-3.706c2.139,0,3.398,1.67,3.398,3.794v0.279h-5.727
				c0.088,1.333,1.025,2.446,2.549,2.446c0.806,0,1.626-0.322,2.182-0.893l0.527,0.718c-0.703,0.703-1.655,1.084-2.812,1.084
				C188.441,481.74,186.932,480.232,186.932,478.02z M190.404,475.222c-1.509,0-2.256,1.274-2.314,2.358h4.643
				C192.718,476.525,192.015,475.222,190.404,475.222z"/>
			<path d="M194.607,480.627l0.571-0.791c0.469,0.542,1.362,1.011,2.329,1.011c1.084,0,1.67-0.513,1.67-1.216
				c0-1.714-4.38-0.659-4.38-3.281c0-1.098,0.952-2.036,2.636-2.036c1.201,0,2.051,0.454,2.622,1.026l-0.513,0.762
				c-0.424-0.513-1.201-0.894-2.109-0.894c-0.967,0-1.567,0.483-1.567,1.113c0,1.552,4.38,0.527,4.38,3.281
				c0,1.187-0.952,2.139-2.783,2.139C196.306,481.74,195.325,481.389,194.607,480.627z"/>
			<path d="M201.477,472.746c0-0.41,0.337-0.747,0.732-0.747c0.41,0,0.747,0.337,0.747,0.747c0,0.41-0.337,0.732-0.747,0.732
				C201.814,473.479,201.477,473.157,201.477,472.746z M201.667,481.564v-7.075h1.099v7.075H201.667z"/>
			<path d="M204.582,483.381l0.556-0.82c0.586,0.703,1.289,0.967,2.3,0.967c1.172,0,2.27-0.571,2.27-2.124v-1.011
				c-0.513,0.718-1.377,1.26-2.373,1.26c-1.845,0-3.149-1.377-3.149-3.662c0-2.27,1.289-3.677,3.149-3.677
				c0.952,0,1.802,0.469,2.373,1.245v-1.069h1.099v6.87c0,2.344-1.641,3.076-3.369,3.076
				C206.237,484.435,205.417,484.201,204.582,483.381z M209.709,479.528v-3.091c-0.381-0.615-1.23-1.143-2.109-1.143
				c-1.421,0-2.27,1.128-2.27,2.695c0,1.553,0.849,2.695,2.27,2.695C208.478,480.685,209.328,480.144,209.709,479.528z"/>
			<path d="M217.413,481.564v-4.629c0-1.245-0.63-1.64-1.582-1.64c-0.865,0-1.685,0.527-2.095,1.099v5.17h-1.099v-7.075h1.099v1.025
				c0.498-0.586,1.464-1.201,2.519-1.201c1.48,0,2.256,0.747,2.256,2.285v4.966H217.413z"/>
			<path d="M219.932,478.02c0-2.051,1.465-3.706,3.486-3.706c2.139,0,3.398,1.67,3.398,3.794v0.279h-5.727
				c0.088,1.333,1.025,2.446,2.549,2.446c0.806,0,1.626-0.322,2.183-0.893l0.527,0.718c-0.703,0.703-1.655,1.084-2.812,1.084
				C221.441,481.74,219.932,480.232,219.932,478.02z M223.404,475.222c-1.509,0-2.256,1.274-2.314,2.358h4.643
				C225.718,476.525,225.015,475.222,223.404,475.222z"/>
			<path d="M233.35,481.564v-1.055c-0.527,0.718-1.392,1.23-2.388,1.23c-1.846,0-3.149-1.406-3.149-3.706
				c0-2.256,1.289-3.721,3.149-3.721c0.952,0,1.817,0.469,2.388,1.245v-3.765h1.098v9.77H233.35z M233.35,479.646v-3.208
				c-0.396-0.615-1.245-1.143-2.124-1.143c-1.421,0-2.27,1.172-2.27,2.739c0,1.567,0.849,2.724,2.27,2.724
				C232.105,480.759,232.954,480.261,233.35,479.646z"/>
			<path d="M239.692,481.564v-9.77h1.098v3.765c0.572-0.776,1.421-1.245,2.388-1.245c1.845,0,3.149,1.465,3.149,3.721
				c0,2.299-1.304,3.706-3.149,3.706c-0.996,0-1.86-0.513-2.388-1.23v1.055H239.692z M242.9,480.759
				c1.436,0,2.285-1.157,2.285-2.724c0-1.568-0.85-2.739-2.285-2.739c-0.864,0-1.728,0.527-2.109,1.143v3.208
				C241.171,480.261,242.036,480.759,242.9,480.759z"/>
			<path d="M247.528,483.337c0.161,0.073,0.425,0.117,0.601,0.117c0.483,0,0.805-0.161,1.055-0.747l0.469-1.069l-2.959-7.148h1.187
				l2.358,5.801l2.344-5.801h1.201l-3.545,8.51c-0.425,1.025-1.143,1.421-2.08,1.435c-0.234,0-0.601-0.044-0.806-0.103
				L247.528,483.337z"/>
		</g>
	</g>
</g>
</svg>
